NotoSansSharada-Regular.ufo
<glyph name="uni0951" format="2">
  <unicode hex="0951"/>
  <outline>
    <contour>
      <point x="-94" y="671" type="line"/>
      <point x="-94" y="872" type="line"/>
      <point x="-165" y="872" type="line"/>
      <point x="-165" y="671" type="line"/>
    </contour>
  </outline>
</glyph>
<glyph name="uni1CD7" format="2">
  <unicode hex="1CD7"/>
  <outline>
    <contour>
      <point x="-443" y="-145" type="curve" smooth="yes"/>
      <point x="-443" y="-211"/>
      <point x="-401" y="-258"/>
      <point x="-310" y="-258" type="curve" smooth="yes"/>
      <point x="-85" y="-258" type="line"/>
      <point x="-85" y="-189" type="line"/>
      <point x="-296" y="-189" type="line" smooth="yes"/>
      <point x="-340" y="-189"/>
      <point x="-367" y="-183"/>
      <point x="-367" y="-148" type="curve" smooth="yes"/>
      <point x="-367" y="-116"/>
      <point x="-344" y="-105"/>
      <point x="-314" y="-105" type="curve" smooth="yes"/>
      <point x="-301" y="-105" type="line"/>
      <point x="-306" y="-34" type="line"/>
      <point x="-387" y="-34"/>
      <point x="-443" y="-74"/>
    </contour>
  </outline>
</glyph>
<glyph name="uni1CD9" format="2">
  <unicode hex="1CD9"/>
  <outline>
    <contour>
      <point x="-130" y="-104" type="line"/>
      <point x="59" y="-249" type="line"/>
      <point x="104" y="-188" type="line"/>
      <point x="-119" y="-28" type="line"/>
      <point x="-159" y="-28" type="line"/>
      <point x="-305" y="-208" type="line"/>
      <point x="-244" y="-248" type="line"/>
    </contour>
  </outline>
</glyph>
<glyph name="uni1CDC" format="2">
  <unicode hex="1CDC"/>
  <outline>
    <contour>
      <point x="-94" y="-250" type="line"/>
      <point x="-94" y="-49" type="line"/>
      <point x="-165" y="-49" type="line"/>
      <point x="-165" y="-250" type="line"/>
    </contour>
  </outline>
</glyph>
<glyph name="uni1CDD" format="2">
  <unicode hex="1CDD"/>
  <outline>
    <contour>
      <point x="-48" y="-174" type="line"/>
      <point x="-126" y="-91" type="line"/>
      <point x="-205" y="-174" type="line"/>
      <point x="-126" y="-256" type="line"/>
    </contour>
  </outline>
</glyph>
<glyph name="uni1CE0" format="2">
  <unicode hex="1CE0"/>
  <outline>
    <contour>
      <point x="41" y="673" type="curve" smooth="yes"/>
      <point x="41" y="596"/>
      <point x="99" y="553"/>
      <point x="182" y="553" type="curve" smooth="yes"/>
      <point x="197" y="553" type="line"/>
      <point x="197" y="622" type="line"/>
      <point x="183" y="622" type="line" smooth="yes"/>
      <point x="147" y="622"/>
      <point x="121" y="635"/>
      <point x="121" y="672" type="curve" smooth="yes"/>
      <point x="121" y="719"/>
      <point x="156" y="726"/>
      <point x="213" y="726" type="curve" smooth="yes"/>
      <point x="432" y="726" type="line"/>
      <point x="432" y="797" type="line"/>
      <point x="209" y="797" type="line" smooth="yes"/>
      <point x="107" y="797"/>
      <point x="41" y="771"/>
    </contour>
  </outline>
</glyph>
<glyph name="Candrabindu" format="2">
  <unicode hex="11180"/>
  <outline>
    <contour>
      <point x="-371" y="694" type="curve"/>
      <point x="-291" y="694" type="line"/>
      <point x="-294" y="704"/>
      <point x="-295" y="715"/>
      <point x="-295" y="725" type="curve" smooth="yes"/>
      <point x="-295" y="779"/>
      <point x="-254" y="824"/>
      <point x="-185" y="824" type="curve" smooth="yes"/>
      <point x="-120" y="824"/>
      <point x="-79" y="779"/>
      <point x="-79" y="725" type="curve" smooth="yes"/>
      <point x="-79" y="715"/>
      <point x="-80" y="705"/>
      <point x="-83" y="694" type="curve"/>
      <point x="-3" y="694" type="line"/>
      <point x="-1" y="704"/>
      <point x="0" y="714"/>
      <point x="0" y="724" type="curve" smooth="yes"/>
      <point x="0" y="810"/>
      <point x="-81" y="890"/>
      <point x="-187" y="890" type="curve" smooth="yes"/>
      <point x="-293" y="890"/>
      <point x="-374" y="810"/>
      <point x="-374" y="724" type="curve" smooth="yes"/>
      <point x="-374" y="714"/>
      <point x="-373" y="704"/>
    </contour>
    <contour>
      <point x="-184" y="679" type="curve" smooth="yes"/>
      <point x="-156" y="679"/>
      <point x="-133" y="701"/>
      <point x="-133" y="730" type="curve" smooth="yes"/>
      <point x="-133" y="759"/>
      <point x="-156" y="782"/>
      <point x="-184" y="782" type="curve" smooth="yes"/>
      <point x="-212" y="782"/>
      <point x="-236" y="759"/>
      <point x="-236" y="730" type="curve" smooth="yes"/>
      <point x="-236" y="701"/>
      <point x="-212" y="679"/>
    </contour>
  </outline>
</glyph>
<glyph name="Anusvara" format="2">
  <unicode hex="11181"/>
  <outline>
    <contour>
      <point x="-66" y="684" type="curve" smooth="yes"/>
      <point x="-30" y="684"/>
      <point x="0" y="714"/>
      <point x="0" y="753" type="curve" smooth="yes"/>
      <point x="0" y="791"/>
      <point x="-30" y="822"/>
      <point x="-66" y="822" type="curve" smooth="yes"/>
      <point x="-102" y="822"/>
      <point x="-133" y="791"/>
      <point x="-133" y="753" type="curve" smooth="yes"/>
      <point x="-133" y="714"/>
      <point x="-102" y="684"/>
    </contour>
  </outline>
</glyph>
<glyph name="Visarga" format="2">
  <advance width="293"/>
  <unicode hex="11182"/>
  <outline>
    <contour>
      <point x="147" y="379" type="curve" smooth="yes"/>
      <point x="183" y="379"/>
      <point x="213" y="409"/>
      <point x="213" y="448" type="curve" smooth="yes"/>
      <point x="213" y="486"/>
      <point x="183" y="517"/>
      <point x="147" y="517" type="curve" smooth="yes"/>
      <point x="111" y="517"/>
      <point x="80" y="486"/>
      <point x="80" y="448" type="curve" smooth="yes"/>
      <point x="80" y="409"/>
      <point x="111" y="379"/>
    </contour>
    <contour>
      <point x="147" y="49" type="curve" smooth="yes"/>
      <point x="183" y="49"/>
      <point x="213" y="79"/>
      <point x="213" y="118" type="curve" smooth="yes"/>
      <point x="213" y="156"/>
      <point x="183" y="187"/>
      <point x="147" y="187" type="curve" smooth="yes"/>
      <point x="111" y="187"/>
      <point x="80" y="156"/>
      <point x="80" y="118" type="curve" smooth="yes"/>
      <point x="80" y="79"/>
      <point x="111" y="49"/>
    </contour>
  </outline>
</glyph>
<glyph name="letterA" format="2">
  <advance width="642"/>
  <unicode hex="11183"/>
  <outline>
    <contour>
      <point x="481" y="0" type="line"/>
      <point x="566" y="0" type="line"/>
      <point x="566" y="550" type="line"/>
      <point x="618" y="550" type="line"/>
      <point x="618" y="625" type="line"/>
      <point x="44" y="625" type="line"/>
      <point x="44" y="550" type="line"/>
      <point x="117" y="550" type="line"/>
      <point x="105" y="513"/>
      <point x="98" y="477"/>
      <point x="98" y="437" type="curve" smooth="yes"/>
      <point x="98" y="390"/>
      <point x="110" y="344"/>
      <point x="134" y="310" type="curve"/>
      <point x="3" y="219" type="line"/>
      <point x="47" y="156" type="line"/>
      <point x="182" y="253" type="line"/>
      <point x="219" y="226"/>
      <point x="263" y="210"/>
      <point x="318" y="210" type="curve" smooth="yes"/>
      <point x="329" y="210"/>
      <point x="339" y="210"/>
      <point x="349" y="211" type="curve"/>
      <point x="161" y="81" type="line"/>
      <point x="205" y="18" type="line"/>
      <point x="481" y="217" type="line"/>
    </contour>
    <contour>
      <point x="344" y="283" type="curve" smooth="yes"/>
      <point x="261" y="283"/>
      <point x="183" y="316"/>
      <point x="183" y="442" type="curve" smooth="yes"/>
      <point x="183" y="478"/>
      <point x="190" y="515"/>
      <point x="201" y="550" type="curve"/>
      <point x="481" y="550" type="line"/>
      <point x="481" y="307" type="line"/>
      <point x="438" y="293"/>
      <point x="398" y="283"/>
    </contour>
  </outline>
</glyph>
<glyph name="letterAA" format="2">
  <advance width="680"/>
  <unicode hex="11184"/>
  <outline>
    <contour>
      <point x="515" y="-122" type="curve" smooth="yes"/>
      <point x="607" y="-122"/>
      <point x="668" y="-74"/>
      <point x="668" y="0" type="curve" smooth="yes"/>
      <point x="668" y="66"/>
      <point x="627" y="111"/>
      <point x="566" y="128" type="curve"/>
      <point x="566" y="550" type="line"/>
      <point x="618" y="550" type="line"/>
      <point x="618" y="625" type="line"/>
      <point x="44" y="625" type="line"/>
      <point x="44" y="550" type="line"/>
      <point x="117" y="550" type="line"/>
      <point x="105" y="513"/>
      <point x="98" y="477"/>
      <point x="98" y="437" type="curve" smooth="yes"/>
      <point x="98" y="390"/>
      <point x="110" y="344"/>
      <point x="134" y="310" type="curve"/>
      <point x="3" y="219" type="line"/>
      <point x="47" y="156" type="line"/>
      <point x="182" y="253" type="line"/>
      <point x="219" y="226"/>
      <point x="263" y="210"/>
      <point x="318" y="210" type="curve" smooth="yes"/>
      <point x="329" y="210"/>
      <point x="339" y="210"/>
      <point x="349" y="211" type="curve"/>
      <point x="161" y="81" type="line"/>
      <point x="205" y="18" type="line"/>
      <point x="481" y="217" type="line"/>
      <point x="481" y="66" type="line"/>
      <point x="497" y="66" type="line" smooth="yes"/>
      <point x="543" y="66"/>
      <point x="584" y="56"/>
      <point x="584" y="7" type="curve" smooth="yes"/>
      <point x="584" y="-33"/>
      <point x="550" y="-48"/>
      <point x="510" y="-48" type="curve" smooth="yes"/>
      <point x="463" y="-48"/>
      <point x="420" y="-26"/>
      <point x="383" y="0" type="curve"/>
      <point x="352" y="-67" type="line"/>
      <point x="378" y="-90"/>
      <point x="447" y="-122"/>
    </contour>
    <contour>
      <point x="344" y="283" type="curve" smooth="yes"/>
      <point x="261" y="283"/>
      <point x="183" y="316"/>
      <point x="183" y="442" type="curve" smooth="yes"/>
      <point x="183" y="478"/>
      <point x="190" y="515"/>
      <point x="201" y="550" type="curve"/>
      <point x="481" y="550" type="line"/>
      <point x="481" y="307" type="line"/>
      <point x="438" y="293"/>
      <point x="398" y="283"/>
    </contour>
  </outline>
</glyph>
<glyph name="letterI" format="2">
  <advance width="628"/>
  <unicode hex="11185"/>
  <outline>
    <contour>
      <point x="404" y="-12" type="curve" smooth="yes"/>
      <point x="542" y="-12"/>
      <point x="598" y="90"/>
      <point x="598" y="176" type="curve" smooth="yes"/>
      <point x="598" y="269"/>
      <point x="543" y="352"/>
      <point x="434" y="352" type="curve" smooth="yes"/>
      <point x="351" y="352"/>
      <point x="291" y="299"/>
      <point x="271" y="248" type="curve"/>
      <point x="327" y="200" type="line"/>
      <point x="350" y="251"/>
      <point x="385" y="277"/>
      <point x="427" y="277" type="curve" smooth="yes"/>
      <point x="483" y="277"/>
      <point x="513" y="241"/>
      <point x="513" y="176" type="curve" smooth="yes"/>
      <point x="513" y="113"/>
      <point x="471" y="63"/>
      <point x="402" y="63" type="curve" smooth="yes"/>
      <point x="293" y="63"/>
      <point x="168" y="166"/>
      <point x="87" y="367" type="curve"/>
      <point x="20" y="334" type="line"/>
      <point x="112" y="100"/>
      <point x="251" y="-12"/>
    </contour>
    <contour>
      <point x="427" y="463" type="curve" smooth="yes"/>
      <point x="487" y="463"/>
      <point x="552" y="493"/>
      <point x="591" y="590" type="curve"/>
      <point x="527" y="619" type="line"/>
      <point x="506" y="579"/>
      <point x="484" y="538"/>
      <point x="431" y="538" type="curve" smooth="yes"/>
      <point x="392" y="538"/>
      <point x="364" y="561"/>
      <point x="337" y="584" type="curve" smooth="yes"/>
      <point x="307" y="610"/>
      <point x="273" y="635"/>
      <point x="220" y="635" type="curve" smooth="yes"/>
      <point x="164" y="635"/>
      <point x="99" y="605"/>
      <point x="60" y="508" type="curve"/>
      <point x="124" y="479" type="line"/>
      <point x="144" y="517"/>
      <point x="172" y="560"/>
      <point x="215" y="560" type="curve" smooth="yes"/>
      <point x="252" y="560"/>
      <point x="279" y="539"/>
      <point x="307" y="516" type="curve" smooth="yes"/>
      <point x="339" y="490"/>
      <point x="376" y="463"/>
    </contour>
  </outline>
</glyph>
<glyph name="letterII" format="2">
  <advance width="428"/>
  <unicode hex="11186"/>
  <outline>
    <contour>
      <point x="153" y="-12" type="curve" smooth="yes"/>
      <point x="241" y="-12"/>
      <point x="271" y="45"/>
      <point x="271" y="144" type="curve" smooth="yes"/>
      <point x="271" y="550" type="line"/>
      <point x="404" y="550" type="line"/>
      <point x="404" y="625" type="line"/>
      <point x="62" y="625" type="line"/>
      <point x="62" y="550" type="line"/>
      <point x="186" y="550" type="line"/>
      <point x="186" y="128" type="line" smooth="yes"/>
      <point x="186" y="76"/>
      <point x="169" y="62"/>
      <point x="140" y="62" type="curve" smooth="yes"/>
      <point x="115" y="62"/>
      <point x="91" y="71"/>
      <point x="56" y="98" type="curve"/>
      <point x="18" y="39" type="line"/>
      <point x="48" y="10"/>
      <point x="101" y="-12"/>
    </contour>
    <contour>
      <point x="132" y="684" type="curve" smooth="yes"/>
      <point x="168" y="684"/>
      <point x="198" y="714"/>
      <point x="198" y="753" type="curve" smooth="yes"/>
      <point x="198" y="791"/>
      <point x="168" y="822"/>
      <point x="132" y="822" type="curve" smooth="yes"/>
      <point x="96" y="822"/>
      <point x="65" y="791"/>
      <point x="65" y="753" type="curve" smooth="yes"/>
      <point x="65" y="714"/>
      <point x="96" y="684"/>
    </contour>
    <contour>
      <point x="322" y="684" type="curve" smooth="yes"/>
      <point x="358" y="684"/>
      <point x="388" y="714"/>
      <point x="388" y="753" type="curve" smooth="yes"/>
      <point x="388" y="791"/>
      <point x="358" y="822"/>
      <point x="322" y="822" type="curve" smooth="yes"/>
      <point x="286" y="822"/>
      <point x="255" y="791"/>
      <point x="255" y="753" type="curve" smooth="yes"/>
      <point x="255" y="714"/>
      <point x="286" y="684"/>
    </contour>
  </outline>
</glyph>
<glyph name="letterU" format="2">
  <advance width="607"/>
  <unicode hex="11187"/>
  <outline>
    <contour>
      <point x="368" y="-12" type="curve" smooth="yes"/>
      <point x="507" y="-12"/>
      <point x="577" y="86"/>
      <point x="577" y="199" type="curve" smooth="yes"/>
      <point x="577" y="284"/>
      <point x="532" y="348"/>
      <point x="450" y="377" type="curve"/>
      <point x="492" y="415"/>
      <point x="521" y="470"/>
      <point x="521" y="550" type="curve" smooth="yes"/>
      <point x="521" y="608"/>
      <point x="484" y="625"/>
      <point x="433" y="625" type="curve" smooth="yes"/>
      <point x="222" y="625" type="line"/>
      <point x="222" y="550" type="line"/>
      <point x="385" y="550" type="line" smooth="yes"/>
      <point x="421" y="550"/>
      <point x="436" y="550"/>
      <point x="436" y="515" type="curve" smooth="yes"/>
      <point x="436" y="440"/>
      <point x="376" y="398"/>
      <point x="333" y="390" type="curve"/>
      <point x="324" y="390"/>
      <point x="316" y="389"/>
      <point x="308" y="388" type="curve"/>
      <point x="308" y="313" type="line"/>
      <point x="325" y="315"/>
      <point x="343" y="317"/>
      <point x="361" y="317" type="curve" smooth="yes"/>
      <point x="447" y="317"/>
      <point x="492" y="269"/>
      <point x="492" y="195" type="curve" smooth="yes"/>
      <point x="492" y="113"/>
      <point x="444" y="63"/>
      <point x="363" y="63" type="curve" smooth="yes"/>
      <point x="226" y="63"/>
      <point x="113" y="197"/>
      <point x="70" y="445" type="curve"/>
      <point x="0" y="428" type="line"/>
      <point x="44" y="153"/>
      <point x="188" y="-12"/>
    </contour>
  </outline>
</glyph>
<glyph name="letterUU" format="2">
  <advance width="782"/>
  <unicode hex="11188"/>
  <outline>
    <contour>
      <point x="550" y="-122" type="line"/>
      <point x="707" y="-55"/>
      <point x="752" y="41"/>
      <point x="752" y="128" type="curve" smooth="yes"/>
      <point x="752" y="215"/>
      <point x="687" y="275"/>
      <point x="596" y="275" type="curve" smooth="yes"/>
      <point x="585" y="275"/>
      <point x="575" y="274"/>
      <point x="564" y="272" type="curve"/>
      <point x="545" y="318"/>
      <point x="511" y="356"/>
      <point x="450" y="377" type="curve"/>
      <point x="492" y="415"/>
      <point x="521" y="470"/>
      <point x="521" y="550" type="curve" smooth="yes"/>
      <point x="521" y="608"/>
      <point x="484" y="625"/>
      <point x="433" y="625" type="curve" smooth="yes"/>
      <point x="222" y="625" type="line"/>
      <point x="222" y="550" type="line"/>
      <point x="385" y="550" type="line" smooth="yes"/>
      <point x="421" y="550"/>
      <point x="436" y="550"/>
      <point x="436" y="515" type="curve" smooth="yes"/>
      <point x="436" y="440"/>
      <point x="376" y="398"/>
      <point x="333" y="390" type="curve"/>
      <point x="324" y="390"/>
      <point x="316" y="389"/>
      <point x="308" y="388" type="curve"/>
      <point x="308" y="313" type="line"/>
      <point x="325" y="315"/>
      <point x="343" y="317"/>
      <point x="361" y="317" type="curve" smooth="yes"/>
      <point x="447" y="317"/>
      <point x="492" y="269"/>
      <point x="492" y="195" type="curve" smooth="yes"/>
      <point x="492" y="113"/>
      <point x="444" y="63"/>
      <point x="363" y="63" type="curve" smooth="yes"/>
      <point x="226" y="63"/>
      <point x="113" y="197"/>
      <point x="70" y="445" type="curve"/>
      <point x="0" y="428" type="line"/>
      <point x="44" y="153"/>
      <point x="188" y="-12"/>
      <point x="368" y="-12" type="curve" smooth="yes"/>
      <point x="507" y="-12"/>
      <point x="577" y="86"/>
      <point x="577" y="199" type="curve" smooth="yes"/>
      <point x="577" y="203" type="line"/>
      <point x="582" y="204"/>
      <point x="588" y="204"/>
      <point x="594" y="204" type="curve" smooth="yes"/>
      <point x="640" y="204"/>
      <point x="677" y="177"/>
      <point x="677" y="118" type="curve" smooth="yes"/>
      <point x="677" y="61"/>
      <point x="639" y="-12"/>
      <point x="512" y="-63" type="curve"/>
    </contour>
  </outline>
</glyph>
<glyph name="letterVocR" format="2">
  <advance width="492"/>
  <unicode hex="11189"/>
  <outline>
    <contour>
      <point x="290" y="-12" type="curve" smooth="yes"/>
      <point x="382" y="-12"/>
      <point x="462" y="43"/>
      <point x="462" y="154" type="curve" smooth="yes"/>
      <point x="462" y="181" type="line"/>
      <point x="377" y="181" type="line"/>
      <point x="377" y="156" type="line" smooth="yes"/>
      <point x="377" y="91"/>
      <point x="332" y="63"/>
      <point x="290" y="63" type="curve" smooth="yes"/>
      <point x="244" y="63"/>
      <point x="197" y="88"/>
      <point x="197" y="176" type="curve" smooth="yes"/>
      <point x="197" y="550" type="line"/>
      <point x="384" y="550" type="line"/>
      <point x="384" y="625" type="line"/>
      <point x="24" y="625" type="line"/>
      <point x="24" y="550" type="line"/>
      <point x="112" y="550" type="line"/>
      <point x="112" y="174" type="line" smooth="yes"/>
      <point x="112" y="61"/>
      <point x="185" y="-12"/>
    </contour>
  </outline>
</glyph>
<glyph name="letterVocRR" format="2">
  <advance width="499"/>
  <unicode hex="1118A"/>
  <outline>
    <contour>
      <point x="290" y="-12" type="curve" smooth="yes"/>
      <point x="382" y="-12"/>
      <point x="462" y="43"/>
      <point x="462" y="154" type="curve" smooth="yes"/>
      <point x="462" y="181" type="line"/>
      <point x="377" y="181" type="line"/>
      <point x="377" y="156" type="line" smooth="yes"/>
      <point x="377" y="91"/>
      <point x="332" y="63"/>
      <point x="290" y="63" type="curve" smooth="yes"/>
      <point x="244" y="63"/>
      <point x="197" y="88"/>
      <point x="197" y="176" type="curve" smooth="yes"/>
      <point x="197" y="550" type="line"/>
      <point x="274" y="550" type="line"/>
      <point x="274" y="483" type="line" smooth="yes"/>
      <point x="274" y="384"/>
      <point x="305" y="327"/>
      <point x="387" y="327" type="curve" smooth="yes"/>
      <point x="418" y="327"/>
      <point x="450" y="341"/>
      <point x="469" y="363" type="curve"/>
      <point x="425" y="422" type="line"/>
      <point x="414" y="406"/>
      <point x="402" y="402"/>
      <point x="390" y="402" type="curve" smooth="yes"/>
      <point x="370" y="402"/>
      <point x="354" y="413"/>
      <point x="354" y="467" type="curve" smooth="yes"/>
      <point x="354" y="550" type="line"/>
      <point x="439" y="550" type="line"/>
      <point x="439" y="625" type="line"/>
      <point x="24" y="625" type="line"/>
      <point x="24" y="550" type="line"/>
      <point x="112" y="550" type="line"/>
      <point x="112" y="174" type="line" smooth="yes"/>
      <point x="112" y="61"/>
      <point x="185" y="-12"/>
    </contour>
  </outline>
</glyph>
<glyph name="letterVocL" format="2">
  <advance width="595"/>
  <unicode hex="1118B"/>
  <outline>
    <contour>
      <point x="374" y="-12" type="curve" smooth="yes"/>
      <point x="457" y="-12"/>
      <point x="525" y="38"/>
      <point x="546" y="57" type="curve"/>
      <point x="507" y="114" type="line"/>
      <point x="467" y="86"/>
      <point x="429" y="63"/>
      <point x="374" y="63" type="curve" smooth="yes"/>
      <point x="333" y="63"/>
      <point x="305" y="83"/>
      <point x="305" y="118" type="curve" smooth="yes"/>
      <point x="305" y="151"/>
      <point x="336" y="171"/>
      <point x="393" y="204" type="curve" smooth="yes"/>
      <point x="445" y="234"/>
      <point x="500" y="271"/>
      <point x="500" y="350" type="curve" smooth="yes"/>
      <point x="500" y="420"/>
      <point x="448" y="456"/>
      <point x="399" y="466" type="curve"/>
      <point x="399" y="550" type="line"/>
      <point x="565" y="550" type="line"/>
      <point x="565" y="625" type="line"/>
      <point x="24" y="625" type="line"/>
      <point x="24" y="550" type="line"/>
      <point x="74" y="550" type="line"/>
      <point x="74" y="0" type="line"/>
      <point x="159" y="0" type="line"/>
      <point x="159" y="550" type="line"/>
      <point x="314" y="550" type="line"/>
      <point x="314" y="464" type="line"/>
      <point x="274" y="455"/>
      <point x="245" y="436"/>
      <point x="222" y="415" type="curve"/>
      <point x="259" y="359" type="line"/>
      <point x="287" y="382"/>
      <point x="316" y="396"/>
      <point x="356" y="396" type="curve" smooth="yes"/>
      <point x="391" y="396"/>
      <point x="417" y="380"/>
      <point x="417" y="347" type="curve" smooth="yes"/>
      <point x="417" y="306"/>
      <point x="383" y="285"/>
      <point x="330" y="255" type="curve" smooth="yes"/>
      <point x="277" y="225"/>
      <point x="222" y="184"/>
      <point x="222" y="117" type="curve" smooth="yes"/>
      <point x="222" y="32"/>
      <point x="289" y="-12"/>
    </contour>
  </outline>
</glyph>
<glyph name="letterVocLL" format="2">
  <advance width="798"/>
  <unicode hex="1118C"/>
  <outline>
    <contour>
      <point x="374" y="-12" type="curve" smooth="yes"/>
      <point x="457" y="-12"/>
      <point x="525" y="38"/>
      <point x="546" y="57" type="curve"/>
      <point x="507" y="114" type="line"/>
      <point x="467" y="86"/>
      <point x="429" y="63"/>
      <point x="374" y="63" type="curve" smooth="yes"/>
      <point x="333" y="63"/>
      <point x="305" y="83"/>
      <point x="305" y="118" type="curve" smooth="yes"/>
      <point x="305" y="151"/>
      <point x="336" y="171"/>
      <point x="393" y="204" type="curve" smooth="yes"/>
      <point x="445" y="234"/>
      <point x="500" y="271"/>
      <point x="500" y="350" type="curve" smooth="yes"/>
      <point x="500" y="420"/>
      <point x="448" y="456"/>
      <point x="399" y="466" type="curve"/>
      <point x="399" y="550" type="line"/>
      <point x="472" y="550" type="line"/>
      <point x="472" y="544" type="line" smooth="yes"/>
      <point x="472" y="465"/>
      <point x="532" y="416"/>
      <point x="607" y="416" type="curve" smooth="yes"/>
      <point x="678" y="416"/>
      <point x="740" y="465"/>
      <point x="740" y="553" type="curve" smooth="yes"/>
      <point x="740" y="625" type="line"/>
      <point x="24" y="625" type="line"/>
      <point x="24" y="550" type="line"/>
      <point x="74" y="550" type="line"/>
      <point x="74" y="0" type="line"/>
      <point x="159" y="0" type="line"/>
      <point x="159" y="550" type="line"/>
      <point x="314" y="550" type="line"/>
      <point x="314" y="464" type="line"/>
      <point x="274" y="455"/>
      <point x="245" y="436"/>
      <point x="222" y="415" type="curve"/>
      <point x="259" y="359" type="line"/>
      <point x="287" y="382"/>
      <point x="316" y="396"/>
      <point x="356" y="396" type="curve" smooth="yes"/>
      <point x="391" y="396"/>
      <point x="417" y="380"/>
      <point x="417" y="347" type="curve" smooth="yes"/>
      <point x="417" y="306"/>
      <point x="383" y="285"/>
      <point x="330" y="255" type="curve" smooth="yes"/>
      <point x="277" y="225"/>
      <point x="222" y="184"/>
      <point x="222" y="117" type="curve" smooth="yes"/>
      <point x="222" y="32"/>
      <point x="289" y="-12"/>
    </contour>
    <contour>
      <point x="609" y="481" type="curve" smooth="yes"/>
      <point x="573" y="481"/>
      <point x="544" y="504"/>
      <point x="544" y="544" type="curve" smooth="yes"/>
      <point x="544" y="550" type="line"/>
      <point x="668" y="550" type="line"/>
      <point x="668" y="544" type="line" smooth="yes"/>
      <point x="668" y="504"/>
      <point x="642" y="481"/>
    </contour>
  </outline>
</glyph>
<glyph name="letterE" format="2">
  <advance width="576"/>
  <unicode hex="1118D"/>
  <outline>
    <contour>
      <point x="64" y="0" type="line"/>
      <point x="149" y="0" type="line"/>
      <point x="149" y="369" type="line"/>
      <point x="212" y="262"/>
      <point x="284" y="141"/>
      <point x="391" y="141" type="curve" smooth="yes"/>
      <point x="492" y="141"/>
      <point x="508" y="210"/>
      <point x="508" y="290" type="curve" smooth="yes"/>
      <point x="508" y="550" type="line"/>
      <point x="552" y="550" type="line"/>
      <point x="552" y="625" type="line"/>
      <point x="24" y="625" type="line"/>
      <point x="24" y="550" type="line"/>
      <point x="64" y="550" type="line"/>
    </contour>
    <contour>
      <point x="388" y="214" type="curve" smooth="yes"/>
      <point x="313" y="214"/>
      <point x="203" y="407"/>
      <point x="149" y="508" type="curve"/>
      <point x="149" y="550" type="line"/>
      <point x="423" y="550" type="line"/>
      <point x="423" y="272" type="line" smooth="yes"/>
      <point x="423" y="227"/>
      <point x="413" y="214"/>
    </contour>
  </outline>
</glyph>
<glyph name="letterO" format="2">
  <advance width="651"/>
  <unicode hex="1118F"/>
  <outline>
    <contour>
      <point x="94" y="0" type="line"/>
      <point x="179" y="0" type="line"/>
      <point x="179" y="266" type="line"/>
      <point x="237" y="142"/>
      <point x="330" y="72"/>
      <point x="441" y="72" type="curve" smooth="yes"/>
      <point x="574" y="72"/>
      <point x="627" y="166"/>
      <point x="627" y="256" type="curve" smooth="yes"/>
      <point x="627" y="329"/>
      <point x="587" y="380"/>
      <point x="519" y="403" type="curve"/>
      <point x="554" y="436"/>
      <point x="579" y="462"/>
      <point x="579" y="530" type="curve" smooth="yes"/>
      <point x="579" y="537"/>
      <point x="578" y="543"/>
      <point x="576" y="550" type="curve"/>
      <point x="622" y="550" type="line"/>
      <point x="622" y="625" type="line"/>
      <point x="24" y="625" type="line"/>
      <point x="24" y="550" type="line"/>
      <point x="94" y="550" type="line"/>
    </contour>
    <contour>
      <point x="444" y="146" type="curve" smooth="yes"/>
      <point x="339" y="146"/>
      <point x="219" y="252"/>
      <point x="179" y="465" type="curve"/>
      <point x="179" y="550" type="line"/>
      <point x="462" y="550" type="line" smooth="yes"/>
      <point x="489" y="550"/>
      <point x="500" y="538"/>
      <point x="500" y="511" type="curve" smooth="yes"/>
      <point x="500" y="446"/>
      <point x="448" y="421"/>
      <point x="411" y="414" type="curve"/>
      <point x="403" y="414"/>
      <point x="396" y="413"/>
      <point x="389" y="412" type="curve"/>
      <point x="389" y="348" type="line"/>
      <point x="404" y="350"/>
      <point x="420" y="352"/>
      <point x="435" y="352" type="curve" smooth="yes"/>
      <point x="509" y="352"/>
      <point x="547" y="311"/>
      <point x="547" y="249" type="curve" smooth="yes"/>
      <point x="547" y="179"/>
      <point x="499" y="146"/>
    </contour>
  </outline>
</glyph>
<glyph name="letterAU" format="2">
  <advance width="815"/>
  <unicode hex="11190"/>
  <outline>
    <contour>
      <point x="94" y="0" type="line"/>
      <point x="179" y="0" type="line"/>
      <point x="179" y="266" type="line"/>
      <point x="237" y="142"/>
      <point x="330" y="72"/>
      <point x="434" y="72" type="curve" smooth="yes"/>
      <point x="560" y="72"/>
      <point x="627" y="159"/>
      <point x="627" y="251" type="curve" smooth="yes"/>
      <point x="627" y="317"/>
      <point x="587" y="378"/>
      <point x="519" y="403" type="curve"/>
      <point x="536" y="419"/>
      <point x="551" y="434"/>
      <point x="562" y="453" type="curve"/>
      <point x="587" y="428"/>
      <point x="620" y="416"/>
      <point x="657" y="416" type="curve" smooth="yes"/>
      <point x="728" y="416"/>
      <point x="785" y="465"/>
      <point x="785" y="550" type="curve" smooth="yes"/>
      <point x="785" y="625" type="line"/>
      <point x="24" y="625" type="line"/>
      <point x="24" y="550" type="line"/>
      <point x="94" y="550" type="line"/>
    </contour>
    <contour>
      <point x="437" y="146" type="curve" smooth="yes"/>
      <point x="339" y="146"/>
      <point x="219" y="252"/>
      <point x="179" y="465" type="curve"/>
      <point x="179" y="550" type="line"/>
      <point x="455" y="550" type="line" smooth="yes"/>
      <point x="487" y="550"/>
      <point x="500" y="540"/>
      <point x="500" y="511" type="curve" smooth="yes"/>
      <point x="500" y="446"/>
      <point x="448" y="421"/>
      <point x="411" y="414" type="curve"/>
      <point x="403" y="414"/>
      <point x="396" y="413"/>
      <point x="389" y="412" type="curve"/>
      <point x="389" y="348" type="line"/>
      <point x="404" y="350"/>
      <point x="420" y="352"/>
      <point x="435" y="352" type="curve" smooth="yes"/>
      <point x="509" y="352"/>
      <point x="547" y="311"/>
      <point x="547" y="244" type="curve" smooth="yes"/>
      <point x="547" y="179"/>
      <point x="499" y="146"/>
    </contour>
    <contour>
      <point x="649" y="481" type="curve" smooth="yes"/>
      <point x="611" y="481"/>
      <point x="581" y="504"/>
      <point x="581" y="544" type="curve" smooth="yes"/>
      <point x="581" y="550" type="line"/>
      <point x="713" y="550" type="line"/>
      <point x="713" y="544" type="line" smooth="yes"/>
      <point x="713" y="504"/>
      <point x="687" y="481"/>
    </contour>
  </outline>
</glyph>
<glyph name="Ka" format="2">
  <advance width="707"/>
  <unicode hex="11191"/>
  <outline>
    <contour>
      <point x="311" y="0" type="line"/>
      <point x="396" y="0" type="line"/>
      <point x="396" y="145" type="line"/>
      <point x="429" y="123"/>
      <point x="470" y="109"/>
      <point x="512" y="109" type="curve" smooth="yes"/>
      <point x="609" y="109"/>
      <point x="677" y="189"/>
      <point x="677" y="289" type="curve" smooth="yes"/>
      <point x="677" y="400"/>
      <point x="593" y="465"/>
      <point x="512" y="465" type="curve" smooth="yes"/>
      <point x="464" y="465"/>
      <point x="424" y="448"/>
      <point x="396" y="413" type="curve"/>
      <point x="396" y="550" type="line"/>
      <point x="637" y="550" type="line"/>
      <point x="637" y="625" type="line"/>
      <point x="62" y="625" type="line"/>
      <point x="62" y="550" type="line"/>
      <point x="311" y="550" type="line"/>
      <point x="311" y="428" type="line"/>
      <point x="277" y="450"/>
      <point x="236" y="465"/>
      <point x="195" y="465" type="curve" smooth="yes"/>
      <point x="102" y="465"/>
      <point x="30" y="389"/>
      <point x="30" y="280" type="curve" smooth="yes"/>
      <point x="30" y="174"/>
      <point x="114" y="109"/>
      <point x="195" y="109" type="curve" smooth="yes"/>
      <point x="243" y="109"/>
      <point x="282" y="124"/>
      <point x="311" y="161" type="curve"/>
    </contour>
    <contour>
      <point x="208" y="184" type="curve" smooth="yes"/>
      <point x="159" y="184"/>
      <point x="115" y="215"/>
      <point x="115" y="285" type="curve" smooth="yes"/>
      <point x="115" y="351"/>
      <point x="154" y="390"/>
      <point x="203" y="390" type="curve" smooth="yes"/>
      <point x="243" y="390"/>
      <point x="276" y="372"/>
      <point x="311" y="349" type="curve"/>
      <point x="311" y="274" type="line"/>
      <point x="286" y="217"/>
      <point x="253" y="184"/>
    </contour>
    <contour>
      <point x="504" y="184" type="curve" smooth="yes"/>
      <point x="464" y="184"/>
      <point x="430" y="201"/>
      <point x="396" y="225" type="curve"/>
      <point x="396" y="299" type="line"/>
      <point x="420" y="357"/>
      <point x="454" y="390"/>
      <point x="501" y="390" type="curve" smooth="yes"/>
      <point x="551" y="390"/>
      <point x="592" y="360"/>
      <point x="592" y="285" type="curve" smooth="yes"/>
      <point x="592" y="219"/>
      <point x="553" y="184"/>
    </contour>
  </outline>
</glyph>
<glyph name="Kha" format="2">
  <advance width="706"/>
  <unicode hex="11192"/>
  <outline>
    <contour>
      <point x="74" y="0" type="line"/>
      <point x="159" y="0" type="line"/>
      <point x="159" y="550" type="line"/>
      <point x="266" y="550" type="line"/>
      <point x="266" y="312" type="line" smooth="yes"/>
      <point x="266" y="204"/>
      <point x="332" y="141"/>
      <point x="435" y="141" type="curve" smooth="yes"/>
      <point x="481" y="141"/>
      <point x="518" y="154"/>
      <point x="547" y="176" type="curve"/>
      <point x="547" y="0" type="line"/>
      <point x="632" y="0" type="line"/>
      <point x="632" y="550" type="line"/>
      <point x="682" y="550" type="line"/>
      <point x="682" y="625" type="line"/>
      <point x="24" y="625" type="line"/>
      <point x="24" y="550" type="line"/>
      <point x="74" y="550" type="line"/>
    </contour>
    <contour>
      <point x="440" y="214" type="curve" smooth="yes"/>
      <point x="394" y="214"/>
      <point x="351" y="245"/>
      <point x="351" y="311" type="curve" smooth="yes"/>
      <point x="351" y="550" type="line"/>
      <point x="547" y="550" type="line"/>
      <point x="547" y="256" type="line"/>
      <point x="528" y="234"/>
      <point x="495" y="214"/>
    </contour>
  </outline>
</glyph>
<glyph name="Ga" format="2">
  <advance width="585"/>
  <unicode hex="11193"/>
  <outline>
    <contour>
      <point x="413" y="0" type="line"/>
      <point x="498" y="0" type="line"/>
      <point x="498" y="550" type="line"/>
      <point x="561" y="550" type="line"/>
      <point x="561" y="625" type="line"/>
      <point x="24" y="625" type="line"/>
      <point x="24" y="550" type="line"/>
      <point x="148" y="550" type="line"/>
      <point x="148" y="333" type="line"/>
      <point x="106" y="324"/>
      <point x="31" y="307"/>
      <point x="31" y="263" type="curve" smooth="yes"/>
      <point x="31" y="215"/>
      <point x="155" y="128"/>
      <point x="189" y="128" type="curve" smooth="yes"/>
      <point x="223" y="128"/>
      <point x="233" y="169"/>
      <point x="233" y="204" type="curve" smooth="yes"/>
      <point x="233" y="550" type="line"/>
      <point x="413" y="550" type="line"/>
    </contour>
  </outline>
</glyph>
<glyph name="Gha" format="2">
  <advance width="747"/>
  <unicode hex="11194"/>
  <outline>
    <contour>
      <point x="588" y="0" type="line"/>
      <point x="673" y="0" type="line"/>
      <point x="673" y="550" type="line"/>
      <point x="723" y="550" type="line"/>
      <point x="723" y="625" type="line"/>
      <point x="588" y="625" type="line"/>
      <point x="588" y="316" type="line"/>
      <point x="570" y="301"/>
      <point x="542" y="284"/>
      <point x="502" y="284" type="curve" smooth="yes"/>
      <point x="454" y="284"/>
      <point x="413" y="314"/>
      <point x="413" y="378" type="curve" smooth="yes"/>
      <point x="413" y="550" type="line"/>
      <point x="328" y="550" type="line"/>
      <point x="328" y="382" type="line" smooth="yes"/>
      <point x="328" y="361"/>
      <point x="330" y="345"/>
      <point x="336" y="322" type="curve"/>
      <point x="318" y="298"/>
      <point x="287" y="284"/>
      <point x="248" y="284" type="curve" smooth="yes"/>
      <point x="195" y="284"/>
      <point x="159" y="314"/>
      <point x="159" y="379" type="curve" smooth="yes"/>
      <point x="159" y="625" type="line"/>
      <point x="24" y="625" type="line"/>
      <point x="24" y="550" type="line"/>
      <point x="74" y="550" type="line"/>
      <point x="74" y="376" type="line" smooth="yes"/>
      <point x="74" y="278"/>
      <point x="136" y="211"/>
      <point x="236" y="211" type="curve" smooth="yes"/>
      <point x="296" y="211"/>
      <point x="338" y="234"/>
      <point x="365" y="265" type="curve"/>
      <point x="392" y="234"/>
      <point x="434" y="211"/>
      <point x="493" y="211" type="curve" smooth="yes"/>
      <point x="534" y="211"/>
      <point x="564" y="220"/>
      <point x="588" y="237" type="curve"/>
    </contour>
  </outline>
</glyph>
<glyph name="Nga" format="2">
  <advance width="536"/>
  <unicode hex="11195"/>
  <outline>
    <contour>
      <point x="404" y="-19" type="line"/>
      <point x="446" y="47" type="line"/>
      <point x="377" y="87" type="line" smooth="yes"/>
      <point x="238" y="167"/>
      <point x="152" y="219"/>
      <point x="152" y="315" type="curve" smooth="yes"/>
      <point x="152" y="550" type="line"/>
      <point x="421" y="550" type="line"/>
      <point x="421" y="450" type="line"/>
      <point x="496" y="450" type="line"/>
      <point x="496" y="625" type="line"/>
      <point x="24" y="625" type="line"/>
      <point x="24" y="550" type="line"/>
      <point x="67" y="550" type="line"/>
      <point x="67" y="307" type="line" smooth="yes"/>
      <point x="67" y="187"/>
      <point x="169" y="117"/>
      <point x="339" y="19" type="curve" smooth="yes"/>
    </contour>
  </outline>
</glyph>
<glyph name="Ca" format="2">
  <advance width="625"/>
  <unicode hex="11196"/>
  <outline>
    <contour>
      <point x="134" y="-12" type="curve" smooth="yes"/>
      <point x="187" y="-12"/>
      <point x="202" y="32"/>
      <point x="202" y="82" type="curve" smooth="yes"/>
      <point x="202" y="122" type="line"/>
      <point x="388" y="122" type="line" smooth="yes"/>
      <point x="506" y="122"/>
      <point x="537" y="194"/>
      <point x="537" y="271" type="curve" smooth="yes"/>
      <point x="537" y="550" type="line"/>
      <point x="601" y="550" type="line"/>
      <point x="601" y="625" type="line"/>
      <point x="43" y="625" type="line"/>
      <point x="43" y="550" type="line"/>
      <point x="117" y="550" type="line"/>
      <point x="117" y="195" type="line"/>
      <point x="62" y="195"/>
      <point x="0" y="167"/>
      <point x="0" y="123" type="curve" smooth="yes"/>
      <point x="0" y="54"/>
      <point x="100" y="-12"/>
    </contour>
    <contour>
      <point x="202" y="197" type="line"/>
      <point x="202" y="550" type="line"/>
      <point x="452" y="550" type="line"/>
      <point x="452" y="274" type="line" smooth="yes"/>
      <point x="452" y="214"/>
      <point x="422" y="197"/>
      <point x="383" y="197" type="curve" smooth="yes"/>
    </contour>
  </outline>
</glyph>
<glyph name="Cha" format="2">
  <advance width="706"/>
  <unicode hex="11197"/>
  <outline>
    <contour>
      <point x="205" y="-12" type="curve" smooth="yes"/>
      <point x="260" y="-12"/>
      <point x="305" y="10"/>
      <point x="337" y="42" type="curve"/>
      <point x="383" y="5"/>
      <point x="432" y="-12"/>
      <point x="496" y="-12" type="curve" smooth="yes"/>
      <point x="604" y="-12"/>
      <point x="676" y="77"/>
      <point x="676" y="184" type="curve" smooth="yes"/>
      <point x="676" y="305"/>
      <point x="598" y="364"/>
      <point x="504" y="364" type="curve" smooth="yes"/>
      <point x="464" y="364"/>
      <point x="431" y="356"/>
      <point x="401" y="328" type="curve"/>
      <point x="401" y="550" type="line"/>
      <point x="668" y="550" type="line"/>
      <point x="668" y="625" type="line"/>
      <point x="34" y="625" type="line"/>
      <point x="34" y="550" type="line"/>
      <point x="316" y="550" type="line"/>
      <point x="316" y="328" type="line"/>
      <point x="284" y="354"/>
      <point x="248" y="364"/>
      <point x="200" y="364" type="curve" smooth="yes"/>
      <point x="104" y="364"/>
      <point x="24" y="288"/>
      <point x="24" y="176" type="curve" smooth="yes"/>
      <point x="24" y="56"/>
      <point x="104" y="-12"/>
    </contour>
    <contour>
      <point x="202" y="63" type="curve" smooth="yes"/>
      <point x="147" y="63"/>
      <point x="109" y="106"/>
      <point x="109" y="174" type="curve" smooth="yes"/>
      <point x="109" y="257"/>
      <point x="161" y="289"/>
      <point x="201" y="289" type="curve" smooth="yes"/>
      <point x="241" y="289"/>
      <point x="277" y="273"/>
      <point x="316" y="239" type="curve"/>
      <point x="316" y="225" type="line" smooth="yes"/>
      <point x="316" y="147"/>
      <point x="286" y="63"/>
    </contour>
    <contour>
      <point x="486" y="63" type="curve" smooth="yes"/>
      <point x="447" y="63"/>
      <point x="414" y="78"/>
      <point x="379" y="107" type="curve"/>
      <point x="391" y="137"/>
      <point x="398" y="172"/>
      <point x="400" y="213" type="curve"/>
      <point x="418" y="268"/>
      <point x="453" y="289"/>
      <point x="495" y="289" type="curve" smooth="yes"/>
      <point x="548" y="289"/>
      <point x="591" y="256"/>
      <point x="591" y="180" type="curve" smooth="yes"/>
      <point x="591" y="105"/>
      <point x="542" y="63"/>
    </contour>
  </outline>
</glyph>
<glyph name="Ja" format="2">
  <advance width="653"/>
  <unicode hex="11198"/>
  <outline>
    <contour>
      <point x="301" y="-20" type="line"/>
      <point x="320" y="2"/>
      <point x="331" y="38"/>
      <point x="331" y="72" type="curve" smooth="yes"/>
      <point x="331" y="150"/>
      <point x="296" y="193"/>
      <point x="235" y="240" type="curve" smooth="yes"/>
      <point x="185" y="278"/>
      <point x="159" y="298"/>
      <point x="159" y="362" type="curve" smooth="yes"/>
      <point x="159" y="550" type="line"/>
      <point x="289" y="550" type="line"/>
      <point x="289" y="260" type="line"/>
      <point x="374" y="260" type="line"/>
      <point x="374" y="550" type="line"/>
      <point x="494" y="550" type="line"/>
      <point x="494" y="200" type="line"/>
      <point x="579" y="200" type="line"/>
      <point x="579" y="550" type="line"/>
      <point x="629" y="550" type="line"/>
      <point x="629" y="625" type="line"/>
      <point x="24" y="625" type="line"/>
      <point x="24" y="550" type="line"/>
      <point x="74" y="550" type="line"/>
      <point x="74" y="362" type="line" smooth="yes"/>
      <point x="74" y="260"/>
      <point x="120" y="223"/>
      <point x="170" y="184" type="curve" smooth="yes"/>
      <point x="216" y="148"/>
      <point x="246" y="123"/>
      <point x="246" y="73" type="curve" smooth="yes"/>
      <point x="246" y="52"/>
      <point x="241" y="37"/>
      <point x="233" y="26" type="curve"/>
    </contour>
  </outline>
</glyph>
<glyph name="Jha" format="2">
  <advance width="755"/>
  <unicode hex="11199"/>
  <outline>
    <contour>
      <point x="501" y="-12" type="curve" smooth="yes"/>
      <point x="600" y="-12"/>
      <point x="668" y="46"/>
      <point x="668" y="156" type="curve" smooth="yes"/>
      <point x="668" y="550" type="line"/>
      <point x="731" y="550" type="line"/>
      <point x="731" y="625" type="line"/>
      <point x="24" y="625" type="line"/>
      <point x="24" y="550" type="line"/>
      <point x="148" y="550" type="line"/>
      <point x="148" y="333" type="line"/>
      <point x="106" y="324"/>
      <point x="31" y="307"/>
      <point x="31" y="263" type="curve" smooth="yes"/>
      <point x="31" y="215"/>
      <point x="155" y="128"/>
      <point x="189" y="128" type="curve" smooth="yes"/>
      <point x="223" y="128"/>
      <point x="233" y="169"/>
      <point x="233" y="204" type="curve" smooth="yes"/>
      <point x="233" y="550" type="line"/>
      <point x="338" y="550" type="line"/>
      <point x="338" y="156" type="line" smooth="yes"/>
      <point x="338" y="62"/>
      <point x="406" y="-12"/>
    </contour>
    <contour>
      <point x="502" y="63" type="curve" smooth="yes"/>
      <point x="456" y="63"/>
      <point x="423" y="96"/>
      <point x="423" y="156" type="curve" smooth="yes"/>
      <point x="423" y="550" type="line"/>
      <point x="583" y="550" type="line"/>
      <point x="583" y="156" type="line" smooth="yes"/>
      <point x="583" y="95"/>
      <point x="547" y="63"/>
    </contour>
  </outline>
</glyph>
<glyph name="Nya" format="2">
  <advance width="695"/>
  <unicode hex="1119A"/>
  <outline>
    <contour>
      <point x="497" y="-12" type="line"/>
      <point x="582" y="14"/>
      <point x="655" y="89"/>
      <point x="655" y="200" type="curve" smooth="yes"/>
      <point x="655" y="298"/>
      <point x="572" y="381"/>
      <point x="456" y="384" type="curve"/>
      <point x="456" y="550" type="line"/>
      <point x="629" y="550" type="line"/>
      <point x="629" y="625" type="line"/>
      <point x="24" y="625" type="line"/>
      <point x="24" y="550" type="line"/>
      <point x="84" y="550" type="line"/>
      <point x="84" y="0" type="line"/>
      <point x="169" y="0" type="line"/>
      <point x="169" y="550" type="line"/>
      <point x="371" y="550" type="line"/>
      <point x="371" y="379" type="line"/>
      <point x="329" y="370"/>
      <point x="256" y="344"/>
      <point x="256" y="300" type="curve" smooth="yes"/>
      <point x="256" y="252"/>
      <point x="347" y="192"/>
      <point x="401" y="192" type="curve" smooth="yes"/>
      <point x="446" y="192"/>
      <point x="456" y="233"/>
      <point x="456" y="268" type="curve" smooth="yes"/>
      <point x="456" y="309" type="line"/>
      <point x="519" y="306"/>
      <point x="570" y="259"/>
      <point x="570" y="197" type="curve" smooth="yes"/>
      <point x="570" y="123"/>
      <point x="539" y="85"/>
      <point x="461" y="49" type="curve"/>
    </contour>
  </outline>
</glyph>
<glyph name="Tta" format="2">
  <advance width="542"/>
  <unicode hex="1119B"/>
  <outline>
    <contour>
      <point x="265" y="-12" type="curve" smooth="yes"/>
      <point x="387" y="-12"/>
      <point x="465" y="68"/>
      <point x="499" y="125" type="curve"/>
      <point x="451" y="176" type="line"/>
      <point x="411" y="118"/>
      <point x="353" y="61"/>
      <point x="270" y="61" type="curve" smooth="yes"/>
      <point x="212" y="61"/>
      <point x="151" y="91"/>
      <point x="151" y="171" type="curve" smooth="yes"/>
      <point x="151" y="550" type="line"/>
      <point x="383" y="550" type="line"/>
      <point x="383" y="420" type="line"/>
      <point x="458" y="420" type="line"/>
      <point x="458" y="550" type="line"/>
      <point x="518" y="550" type="line"/>
      <point x="518" y="625" type="line"/>
      <point x="24" y="625" type="line"/>
      <point x="24" y="550" type="line"/>
      <point x="66" y="550" type="line"/>
      <point x="66" y="171" type="line" smooth="yes"/>
      <point x="66" y="57"/>
      <point x="149" y="-12"/>
    </contour>
  </outline>
</glyph>
<glyph name="Ttha" format="2">
  <advance width="661"/>
  <unicode hex="1119C"/>
  <outline>
    <contour>
      <point x="322" y="13" type="curve" smooth="yes"/>
      <point x="481" y="13"/>
      <point x="621" y="144"/>
      <point x="621" y="324" type="curve" smooth="yes"/>
      <point x="621" y="477"/>
      <point x="504" y="601"/>
      <point x="339" y="601" type="curve" smooth="yes"/>
      <point x="189" y="601"/>
      <point x="40" y="476"/>
      <point x="40" y="288" type="curve"/>
      <point x="40" y="137"/>
      <point x="155" y="13"/>
    </contour>
    <contour>
      <point x="318" y="88" type="curve" smooth="yes"/>
      <point x="204" y="88"/>
      <point x="125" y="187"/>
      <point x="125" y="294" type="curve" smooth="yes"/>
      <point x="125" y="432"/>
      <point x="232" y="526"/>
      <point x="343" y="526" type="curve" smooth="yes"/>
      <point x="460" y="526"/>
      <point x="536" y="428"/>
      <point x="536" y="318" type="curve" smooth="yes"/>
      <point x="536" y="187"/>
      <point x="433" y="88"/>
    </contour>
  </outline>
</glyph>
<glyph name="Dda" format="2">
  <advance width="533"/>
  <unicode hex="1119D"/>
  <outline>
    <contour>
      <point x="307" y="-15" type="line"/>
      <point x="377" y="17"/>
      <point x="490" y="102"/>
      <point x="490" y="230" type="curve" smooth="yes"/>
      <point x="490" y="331"/>
      <point x="419" y="407"/>
      <point x="322" y="407" type="curve" smooth="yes"/>
      <point x="304" y="407"/>
      <point x="285" y="406"/>
      <point x="261" y="398" type="curve"/>
      <point x="276" y="449"/>
      <point x="288" y="496"/>
      <point x="295" y="550" type="curve"/>
      <point x="509" y="550" type="line"/>
      <point x="509" y="625" type="line"/>
      <point x="24" y="625" type="line"/>
      <point x="24" y="550" type="line"/>
      <point x="209" y="550" type="line"/>
      <point x="196" y="468"/>
      <point x="166" y="357"/>
      <point x="121" y="299" type="curve"/>
      <point x="172" y="253" type="line"/>
      <point x="204" y="292"/>
      <point x="246" y="332"/>
      <point x="306" y="332" type="curve" smooth="yes"/>
      <point x="372" y="332"/>
      <point x="405" y="285"/>
      <point x="405" y="234" type="curve" smooth="yes"/>
      <point x="405" y="142"/>
      <point x="348" y="98"/>
      <point x="262" y="46" type="curve"/>
    </contour>
  </outline>
</glyph>
<glyph name="Ddha" format="2">
  <advance width="682"/>
  <unicode hex="1119E"/>
  <outline>
    <contour>
      <point x="383" y="0" type="line"/>
      <point x="468" y="0" type="line"/>
      <point x="468" y="202" type="line"/>
      <point x="492" y="202" type="line" smooth="yes"/>
      <point x="609" y="202"/>
      <point x="652" y="248"/>
      <point x="652" y="324" type="curve" smooth="yes"/>
      <point x="652" y="406"/>
      <point x="599" y="441"/>
      <point x="529" y="441" type="curve" smooth="yes"/>
      <point x="440" y="441"/>
      <point x="386" y="375"/>
      <point x="383" y="277" type="curve"/>
      <point x="233" y="277" type="line"/>
      <point x="233" y="550" type="line"/>
      <point x="611" y="550" type="line"/>
      <point x="611" y="625" type="line"/>
      <point x="24" y="625" type="line"/>
      <point x="24" y="550" type="line"/>
      <point x="148" y="550" type="line"/>
      <point x="148" y="281" type="line"/>
      <point x="106" y="272"/>
      <point x="31" y="255"/>
      <point x="31" y="211" type="curve" smooth="yes"/>
      <point x="31" y="163"/>
      <point x="155" y="76"/>
      <point x="189" y="76" type="curve" smooth="yes"/>
      <point x="223" y="76"/>
      <point x="233" y="117"/>
      <point x="233" y="152" type="curve" smooth="yes"/>
      <point x="233" y="202" type="line"/>
      <point x="383" y="202" type="line"/>
    </contour>
    <contour>
      <point x="468" y="277" type="line"/>
      <point x="471" y="347"/>
      <point x="498" y="371"/>
      <point x="528" y="371" type="curve" smooth="yes"/>
      <point x="570" y="371"/>
      <point x="573" y="338"/>
      <point x="573" y="324" type="curve" smooth="yes"/>
      <point x="573" y="278"/>
      <point x="525" y="277"/>
      <point x="487" y="277" type="curve" smooth="yes"/>
    </contour>
  </outline>
</glyph>
<glyph name="Ta" format="2">
  <advance width="626"/>
  <unicode hex="111A0"/>
  <outline>
    <contour>
      <point x="388" y="-12" type="curve" smooth="yes"/>
      <point x="526" y="-12"/>
      <point x="582" y="90"/>
      <point x="582" y="176" type="curve" smooth="yes"/>
      <point x="582" y="271"/>
      <point x="516" y="343"/>
      <point x="426" y="355" type="curve"/>
      <point x="452" y="381"/>
      <point x="466" y="419"/>
      <point x="466" y="458" type="curve" smooth="yes"/>
      <point x="466" y="496"/>
      <point x="456" y="526"/>
      <point x="439" y="550" type="curve"/>
      <point x="602" y="550" type="line"/>
      <point x="602" y="625" type="line"/>
      <point x="169" y="625" type="line"/>
      <point x="169" y="550" type="line"/>
      <point x="331" y="550" type="line"/>
      <point x="358" y="537"/>
      <point x="381" y="510"/>
      <point x="381" y="454" type="curve" smooth="yes"/>
      <point x="381" y="390"/>
      <point x="352" y="363"/>
      <point x="316" y="358" type="curve"/>
      <point x="316" y="283" type="line"/>
      <point x="335" y="286"/>
      <point x="345" y="287"/>
      <point x="363" y="287" type="curve" smooth="yes"/>
      <point x="456" y="287"/>
      <point x="497" y="246"/>
      <point x="497" y="172" type="curve" smooth="yes"/>
      <point x="497" y="110"/>
      <point x="450" y="63"/>
      <point x="386" y="63" type="curve" smooth="yes"/>
      <point x="282" y="63"/>
      <point x="164" y="156"/>
      <point x="74" y="355" type="curve"/>
      <point x="10" y="324" type="line"/>
      <point x="109" y="90"/>
      <point x="242" y="-12"/>
    </contour>
  </outline>
</glyph>
<glyph name="Tha" format="2">
  <advance width="674"/>
  <unicode hex="111A1"/>
  <outline>
    <contour>
      <point x="472" y="0" type="line"/>
      <point x="557" y="0" type="line"/>
      <point x="557" y="550" type="line"/>
      <point x="650" y="550" type="line"/>
      <point x="650" y="625" type="line"/>
      <point x="24" y="625" type="line"/>
      <point x="24" y="550" type="line"/>
      <point x="96" y="550" type="line"/>
      <point x="96" y="276" type="line" smooth="yes"/>
      <point x="96" y="152"/>
      <point x="168" y="100"/>
      <point x="288" y="100" type="curve" smooth="yes"/>
      <point x="341" y="100"/>
      <point x="412" y="112"/>
      <point x="472" y="162" type="curve"/>
    </contour>
    <contour>
      <point x="292" y="173" type="curve" smooth="yes"/>
      <point x="216" y="173"/>
      <point x="181" y="198"/>
      <point x="181" y="279" type="curve" smooth="yes"/>
      <point x="181" y="333" type="line"/>
      <point x="472" y="333" type="line"/>
      <point x="472" y="252" type="line"/>
      <point x="407" y="185"/>
      <point x="338" y="173"/>
    </contour>
    <contour>
      <point x="181" y="403" type="line"/>
      <point x="181" y="550" type="line"/>
      <point x="472" y="550" type="line"/>
      <point x="472" y="403" type="line"/>
    </contour>
  </outline>
</glyph>
<glyph name="Da" format="2">
  <advance width="717"/>
  <unicode hex="111A2"/>
  <outline>
    <contour>
      <point x="143" y="-12" type="curve" smooth="yes"/>
      <point x="209" y="-12"/>
      <point x="255" y="34"/>
      <point x="276" y="92" type="curve"/>
      <point x="343" y="39"/>
      <point x="425" y="-12"/>
      <point x="514" y="-12" type="curve" smooth="yes"/>
      <point x="624" y="-12"/>
      <point x="684" y="76"/>
      <point x="707" y="187" type="curve"/>
      <point x="636" y="206" type="line"/>
      <point x="623" y="122"/>
      <point x="581" y="63"/>
      <point x="511" y="63" type="curve" smooth="yes"/>
      <point x="446" y="63"/>
      <point x="366" y="118"/>
      <point x="289" y="171" type="curve"/>
      <point x="289" y="550" type="line"/>
      <point x="659" y="550" type="line"/>
      <point x="659" y="625" type="line"/>
      <point x="60" y="625" type="line"/>
      <point x="60" y="550" type="line"/>
      <point x="204" y="550" type="line"/>
      <point x="204" y="209" type="line"/>
      <point x="182" y="216"/>
      <point x="159" y="220"/>
      <point x="135" y="220" type="curve" smooth="yes"/>
      <point x="80" y="220"/>
      <point x="20" y="178"/>
      <point x="20" y="105" type="curve" smooth="yes"/>
      <point x="20" y="31"/>
      <point x="68" y="-12"/>
    </contour>
    <contour>
      <point x="144" y="58" type="curve" smooth="yes"/>
      <point x="102" y="58"/>
      <point x="99" y="91"/>
      <point x="99" y="105" type="curve" smooth="yes"/>
      <point x="99" y="138"/>
      <point x="119" y="150"/>
      <point x="139" y="150" type="curve" smooth="yes"/>
      <point x="160" y="150"/>
      <point x="181" y="144"/>
      <point x="202" y="135" type="curve"/>
      <point x="195" y="78"/>
      <point x="171" y="58"/>
    </contour>
  </outline>
</glyph>
<glyph name="Dha" format="2">
  <advance width="651"/>
  <unicode hex="111A3"/>
  <outline>
    <contour>
      <point x="346" y="-12" type="curve" smooth="yes"/>
      <point x="454" y="-12"/>
      <point x="557" y="26"/>
      <point x="557" y="184" type="curve" smooth="yes"/>
      <point x="557" y="550" type="line"/>
      <point x="627" y="550" type="line"/>
      <point x="627" y="625" type="line"/>
      <point x="24" y="625" type="line"/>
      <point x="24" y="550" type="line"/>
      <point x="151" y="550" type="line"/>
      <point x="151" y="186" type="line" smooth="yes"/>
      <point x="151" y="75"/>
      <point x="199" y="-12"/>
    </contour>
    <contour>
      <point x="346" y="61" type="curve" smooth="yes"/>
      <point x="284" y="61"/>
      <point x="236" y="88"/>
      <point x="236" y="187" type="curve" smooth="yes"/>
      <point x="236" y="550" type="line"/>
      <point x="472" y="550" type="line"/>
      <point x="472" y="184" type="line" smooth="yes"/>
      <point x="472" y="84"/>
      <point x="415" y="61"/>
    </contour>
  </outline>
</glyph>
<glyph name="Na" format="2">
  <advance width="526"/>
  <unicode hex="111A4"/>
  <outline>
    <contour>
      <point x="347" y="0" type="line"/>
      <point x="432" y="0" type="line"/>
      <point x="432" y="550" type="line"/>
      <point x="502" y="550" type="line"/>
      <point x="502" y="625" type="line"/>
      <point x="24" y="625" type="line"/>
      <point x="24" y="550" type="line"/>
      <point x="347" y="550" type="line"/>
      <point x="347" y="395" type="line"/>
      <point x="64" y="395" type="line"/>
      <point x="64" y="320" type="line"/>
      <point x="347" y="320" type="line"/>
    </contour>
  </outline>
</glyph>
<glyph name="Pa" format="2">
  <advance width="674"/>
  <unicode hex="111A5"/>
  <outline>
    <contour>
      <point x="472" y="0" type="line"/>
      <point x="557" y="0" type="line"/>
      <point x="557" y="550" type="line"/>
      <point x="650" y="550" type="line"/>
      <point x="650" y="625" type="line"/>
      <point x="24" y="625" type="line"/>
      <point x="24" y="550" type="line"/>
      <point x="96" y="550" type="line"/>
      <point x="96" y="276" type="line" smooth="yes"/>
      <point x="96" y="152"/>
      <point x="168" y="100"/>
      <point x="288" y="100" type="curve" smooth="yes"/>
      <point x="341" y="100"/>
      <point x="412" y="112"/>
      <point x="472" y="162" type="curve"/>
    </contour>
    <contour>
      <point x="292" y="173" type="curve" smooth="yes"/>
      <point x="216" y="173"/>
      <point x="181" y="198"/>
      <point x="181" y="279" type="curve" smooth="yes"/>
      <point x="181" y="550" type="line"/>
      <point x="472" y="550" type="line"/>
      <point x="472" y="252" type="line"/>
      <point x="407" y="185"/>
      <point x="338" y="173"/>
    </contour>
  </outline>
</glyph>
<glyph name="Pha" format="2">
  <advance width="687"/>
  <unicode hex="111A6"/>
  <outline>
    <contour>
      <point x="250" y="0" type="curve"/>
      <point x="299" y="0" type="line"/>
      <point x="309" y="66"/>
      <point x="322" y="121"/>
      <point x="335" y="167" type="curve"/>
      <point x="365" y="140"/>
      <point x="430" y="100"/>
      <point x="491" y="100" type="curve" smooth="yes"/>
      <point x="594" y="100"/>
      <point x="657" y="170"/>
      <point x="657" y="270" type="curve" smooth="yes"/>
      <point x="657" y="381"/>
      <point x="578" y="438"/>
      <point x="497" y="438" type="curve" smooth="yes"/>
      <point x="347" y="438"/>
      <point x="270" y="275"/>
      <point x="242" y="86" type="curve"/>
      <point x="179" y="114"/>
      <point x="143" y="197"/>
      <point x="143" y="304" type="curve" smooth="yes"/>
      <point x="143" y="401"/>
      <point x="192" y="515"/>
      <point x="282" y="550" type="curve"/>
      <point x="615" y="550" type="line"/>
      <point x="615" y="625" type="line"/>
      <point x="24" y="625" type="line"/>
      <point x="24" y="550" type="line"/>
      <point x="172" y="550" type="line"/>
      <point x="98" y="493"/>
      <point x="58" y="397"/>
      <point x="58" y="298" type="curve" smooth="yes"/>
      <point x="58" y="161"/>
      <point x="126" y="26"/>
    </contour>
    <contour>
      <point x="489" y="175" type="curve" smooth="yes"/>
      <point x="438" y="175"/>
      <point x="392" y="207"/>
      <point x="360" y="236" type="curve"/>
      <point x="388" y="309"/>
      <point x="430" y="363"/>
      <point x="491" y="363" type="curve" smooth="yes"/>
      <point x="545" y="363"/>
      <point x="572" y="319"/>
      <point x="572" y="269" type="curve" smooth="yes"/>
      <point x="572" y="213"/>
      <point x="539" y="175"/>
    </contour>
    <contour>
      <point x="491" y="363" type="move"/>
    </contour>
  </outline>
</glyph>
<glyph name="Ba" format="2">
  <advance width="608"/>
  <unicode hex="111A7"/>
  <outline>
    <contour>
      <point x="213" y="-12" type="curve" smooth="yes"/>
      <point x="330" y="-12"/>
      <point x="407" y="65"/>
      <point x="407" y="232" type="curve" smooth="yes"/>
      <point x="407" y="550" type="line"/>
      <point x="584" y="550" type="line"/>
      <point x="584" y="625" type="line"/>
      <point x="64" y="625" type="line"/>
      <point x="64" y="550" type="line"/>
      <point x="322" y="550" type="line"/>
      <point x="322" y="333" type="line"/>
      <point x="290" y="353"/>
      <point x="254" y="364"/>
      <point x="213" y="364" type="curve" smooth="yes"/>
      <point x="104" y="364"/>
      <point x="30" y="286"/>
      <point x="30" y="176" type="curve" smooth="yes"/>
      <point x="30" y="47"/>
      <point x="120" y="-12"/>
    </contour>
    <contour>
      <point x="213" y="63" type="curve" smooth="yes"/>
      <point x="153" y="63"/>
      <point x="115" y="108"/>
      <point x="115" y="174" type="curve" smooth="yes"/>
      <point x="115" y="257"/>
      <point x="167" y="289"/>
      <point x="218" y="289" type="curve" smooth="yes"/>
      <point x="257" y="289"/>
      <point x="296" y="271"/>
      <point x="322" y="246" type="curve"/>
      <point x="322" y="225" type="line" smooth="yes"/>
      <point x="322" y="140"/>
      <point x="300" y="63"/>
    </contour>
  </outline>
</glyph>
<glyph name="Bha" format="2">
  <advance width="631"/>
  <unicode hex="111A8"/>
  <outline>
    <contour>
      <point x="388" y="-12" type="curve" smooth="yes"/>
      <point x="520" y="-12"/>
      <point x="601" y="89"/>
      <point x="601" y="199" type="curve" smooth="yes"/>
      <point x="601" y="325"/>
      <point x="501" y="404"/>
      <point x="354" y="404" type="curve" smooth="yes"/>
      <point x="334" y="404"/>
      <point x="307" y="402"/>
      <point x="286" y="399" type="curve"/>
      <point x="286" y="550" type="line"/>
      <point x="586" y="550" type="line"/>
      <point x="586" y="625" type="line"/>
      <point x="24" y="625" type="line"/>
      <point x="24" y="550" type="line"/>
      <point x="201" y="550" type="line"/>
      <point x="201" y="380" type="line"/>
      <point x="149" y="366"/>
      <point x="86" y="323"/>
      <point x="86" y="294" type="curve" smooth="yes"/>
      <point x="86" y="251"/>
      <point x="177" y="198"/>
      <point x="231" y="198" type="curve" smooth="yes"/>
      <point x="276" y="198"/>
      <point x="286" y="239"/>
      <point x="286" y="274" type="curve" smooth="yes"/>
      <point x="286" y="323" type="line"/>
      <point x="308" y="327"/>
      <point x="334" y="329"/>
      <point x="359" y="329" type="curve" smooth="yes"/>
      <point x="445" y="329"/>
      <point x="516" y="291"/>
      <point x="516" y="199" type="curve" smooth="yes"/>
      <point x="516" y="125"/>
      <point x="462" y="63"/>
      <point x="381" y="63" type="curve" smooth="yes"/>
      <point x="319" y="63"/>
      <point x="274" y="82"/>
      <point x="234" y="122" type="curve"/>
      <point x="188" y="67" type="line"/>
      <point x="238" y="14"/>
      <point x="300" y="-12"/>
    </contour>
  </outline>
</glyph>
<glyph name="Ma" format="2">
  <advance width="664"/>
  <unicode hex="111A9"/>
  <outline>
    <contour>
      <point x="496" y="0" type="line"/>
      <point x="581" y="0" type="line"/>
      <point x="581" y="550" type="line"/>
      <point x="640" y="550" type="line"/>
      <point x="640" y="625" type="line"/>
      <point x="496" y="625" type="line"/>
      <point x="496" y="317" type="line"/>
      <point x="255" y="317" type="line"/>
      <point x="259" y="348"/>
      <point x="261" y="378"/>
      <point x="261" y="399" type="curve" smooth="yes"/>
      <point x="261" y="487"/>
      <point x="234" y="625"/>
      <point x="74" y="625" type="curve" smooth="yes"/>
      <point x="38" y="625" type="line"/>
      <point x="38" y="550" type="line"/>
      <point x="61" y="550" type="line" smooth="yes"/>
      <point x="163" y="550"/>
      <point x="176" y="474"/>
      <point x="176" y="405" type="curve" smooth="yes"/>
      <point x="176" y="373"/>
      <point x="170" y="335"/>
      <point x="159" y="313" type="curve"/>
      <point x="106" y="302"/>
      <point x="30" y="285"/>
      <point x="30" y="251" type="curve" smooth="yes"/>
      <point x="30" y="203"/>
      <point x="139" y="126"/>
      <point x="173" y="126" type="curve" smooth="yes"/>
      <point x="204" y="126"/>
      <point x="227" y="179"/>
      <point x="241" y="242" type="curve"/>
      <point x="496" y="242" type="line"/>
    </contour>
  </outline>
</glyph>
<glyph name="Ya" format="2">
  <advance width="619"/>
  <unicode hex="111AA"/>
  <outline>
    <contour>
      <point x="457" y="0" type="line"/>
      <point x="542" y="0" type="line"/>
      <point x="542" y="550" type="line"/>
      <point x="595" y="550" type="line"/>
      <point x="595" y="625" type="line"/>
      <point x="24" y="625" type="line"/>
      <point x="24" y="550" type="line"/>
      <point x="67" y="550" type="line"/>
      <point x="84" y="487"/>
      <point x="136" y="438"/>
      <point x="182" y="402" type="curve"/>
      <point x="114" y="377"/>
      <point x="62" y="322"/>
      <point x="62" y="252" type="curve" smooth="yes"/>
      <point x="62" y="178"/>
      <point x="123" y="100"/>
      <point x="268" y="100" type="curve" smooth="yes"/>
      <point x="338" y="100"/>
      <point x="415" y="126"/>
      <point x="457" y="168" type="curve"/>
    </contour>
    <contour>
      <point x="263" y="175" type="curve" smooth="yes"/>
      <point x="186" y="175"/>
      <point x="147" y="206"/>
      <point x="147" y="260" type="curve" smooth="yes"/>
      <point x="147" y="318"/>
      <point x="216" y="356"/>
      <point x="290" y="358" type="curve"/>
      <point x="290" y="420" type="line"/>
      <point x="230" y="445"/>
      <point x="171" y="500"/>
      <point x="160" y="550" type="curve"/>
      <point x="457" y="550" type="line"/>
      <point x="457" y="252" type="line"/>
      <point x="399" y="194"/>
      <point x="330" y="175"/>
    </contour>
  </outline>
</glyph>
<glyph name="Ra" format="2">
  <advance width="420"/>
  <unicode hex="111AB"/>
  <outline>
    <contour>
      <point x="194" y="-12" type="curve" smooth="yes"/>
      <point x="228" y="-12"/>
      <point x="238" y="29"/>
      <point x="238" y="64" type="curve" smooth="yes"/>
      <point x="238" y="550" type="line"/>
      <point x="405" y="550" type="line"/>
      <point x="405" y="625" type="line"/>
      <point x="24" y="625" type="line"/>
      <point x="24" y="550" type="line"/>
      <point x="153" y="550" type="line"/>
      <point x="153" y="193" type="line"/>
      <point x="111" y="184"/>
      <point x="36" y="167"/>
      <point x="36" y="123" type="curve" smooth="yes"/>
      <point x="36" y="75"/>
      <point x="160" y="-12"/>
    </contour>
  </outline>
</glyph>
<glyph name="La" format="2">
  <advance width="716"/>
  <unicode hex="111AC"/>
  <outline>
    <contour>
      <point x="232" y="-17" type="curve"/>
      <point x="283" y="36" type="line"/>
      <point x="181" y="120"/>
      <point x="115" y="188"/>
      <point x="115" y="281" type="curve" smooth="yes"/>
      <point x="115" y="344"/>
      <point x="159" y="376"/>
      <point x="209" y="376" type="curve" smooth="yes"/>
      <point x="264" y="376"/>
      <point x="289" y="342"/>
      <point x="289" y="300" type="curve" smooth="yes"/>
      <point x="289" y="290" type="line"/>
      <point x="364" y="290" type="line"/>
      <point x="364" y="295" type="line" smooth="yes"/>
      <point x="364" y="336"/>
      <point x="402" y="376"/>
      <point x="458" y="376" type="curve" smooth="yes"/>
      <point x="504" y="376"/>
      <point x="532" y="353"/>
      <point x="549" y="329" type="curve"/>
      <point x="549" y="0" type="line"/>
      <point x="634" y="0" type="line"/>
      <point x="634" y="550" type="line"/>
      <point x="692" y="550" type="line"/>
      <point x="692" y="625" type="line"/>
      <point x="65" y="625" type="line"/>
      <point x="65" y="550" type="line"/>
      <point x="549" y="550" type="line"/>
      <point x="549" y="420" type="line"/>
      <point x="525" y="439"/>
      <point x="495" y="449"/>
      <point x="458" y="449" type="curve" smooth="yes"/>
      <point x="401" y="449"/>
      <point x="355" y="426"/>
      <point x="330" y="386" type="curve"/>
      <point x="307" y="428"/>
      <point x="261" y="449"/>
      <point x="204" y="449" type="curve" smooth="yes"/>
      <point x="98" y="449"/>
      <point x="30" y="380"/>
      <point x="30" y="274" type="curve"/>
      <point x="30" y="145"/>
      <point x="132" y="61"/>
    </contour>
  </outline>
</glyph>
<glyph name="Lla" format="2">
  <advance width="614"/>
  <unicode hex="111AD"/>
  <outline>
    <contour>
      <point x="143" y="-18" type="line"/>
      <point x="378" y="52"/>
      <point x="434" y="145"/>
      <point x="434" y="237" type="curve" smooth="yes"/>
      <point x="434" y="329"/>
      <point x="346" y="402"/>
      <point x="230" y="404" type="curve"/>
      <point x="230" y="550" type="line"/>
      <point x="318" y="550" type="line"/>
      <point x="318" y="544" type="line" smooth="yes"/>
      <point x="318" y="465"/>
      <point x="378" y="416"/>
      <point x="453" y="416" type="curve" smooth="yes"/>
      <point x="524" y="416"/>
      <point x="586" y="465"/>
      <point x="586" y="553" type="curve" smooth="yes"/>
      <point x="586" y="625" type="line"/>
      <point x="58" y="625" type="line"/>
      <point x="58" y="550" type="line"/>
      <point x="145" y="550" type="line"/>
      <point x="145" y="399" type="line"/>
      <point x="103" y="390"/>
      <point x="30" y="364"/>
      <point x="30" y="320" type="curve" smooth="yes"/>
      <point x="30" y="272"/>
      <point x="121" y="212"/>
      <point x="175" y="212" type="curve" smooth="yes"/>
      <point x="220" y="212"/>
      <point x="230" y="253"/>
      <point x="230" y="288" type="curve" smooth="yes"/>
      <point x="230" y="329" type="line"/>
      <point x="293" y="326"/>
      <point x="349" y="289"/>
      <point x="349" y="228" type="curve" smooth="yes"/>
      <point x="349" y="166"/>
      <point x="294" y="104"/>
      <point x="111" y="49" type="curve"/>
    </contour>
    <contour>
      <point x="452" y="481" type="curve" smooth="yes"/>
      <point x="420" y="481"/>
      <point x="390" y="504"/>
      <point x="390" y="544" type="curve" smooth="yes"/>
      <point x="390" y="550" type="line"/>
      <point x="514" y="550" type="line"/>
      <point x="514" y="544" type="line" smooth="yes"/>
      <point x="514" y="504"/>
      <point x="488" y="481"/>
    </contour>
  </outline>
</glyph>
<glyph name="Va" format="2">
  <advance width="535"/>
  <unicode hex="111AE"/>
  <outline>
    <contour>
      <point x="360" y="0" type="line"/>
      <point x="445" y="0" type="line"/>
      <point x="445" y="550" type="line"/>
      <point x="511" y="550" type="line"/>
      <point x="511" y="625" type="line"/>
      <point x="24" y="625" type="line"/>
      <point x="24" y="550" type="line"/>
      <point x="360" y="550" type="line"/>
      <point x="360" y="419" type="line"/>
      <point x="329" y="444"/>
      <point x="285" y="464"/>
      <point x="224" y="464" type="curve" smooth="yes"/>
      <point x="115" y="464"/>
      <point x="38" y="381"/>
      <point x="38" y="276" type="curve" smooth="yes"/>
      <point x="38" y="158"/>
      <point x="120" y="88"/>
      <point x="224" y="88" type="curve" smooth="yes"/>
      <point x="285" y="88"/>
      <point x="326" y="110"/>
      <point x="360" y="144" type="curve"/>
    </contour>
    <contour>
      <point x="238" y="163" type="curve" smooth="yes"/>
      <point x="178" y="163"/>
      <point x="123" y="197"/>
      <point x="123" y="274" type="curve" smooth="yes"/>
      <point x="123" y="347"/>
      <point x="162" y="389"/>
      <point x="232" y="389" type="curve" smooth="yes"/>
      <point x="278" y="389"/>
      <point x="326" y="365"/>
      <point x="360" y="329" type="curve"/>
      <point x="360" y="289" type="line"/>
      <point x="357" y="215"/>
      <point x="306" y="163"/>
    </contour>
  </outline>
</glyph>
<glyph name="Sha" format="2">
  <advance width="700"/>
  <unicode hex="111AF"/>
  <outline>
    <contour>
      <point x="512" y="0" type="line"/>
      <point x="597" y="0" type="line"/>
      <point x="597" y="550" type="line"/>
      <point x="676" y="550" type="line"/>
      <point x="676" y="625" type="line"/>
      <point x="24" y="625" type="line"/>
      <point x="24" y="550" type="line"/>
      <point x="168" y="550" type="line"/>
      <point x="168" y="321" type="line"/>
      <point x="126" y="312"/>
      <point x="51" y="295"/>
      <point x="51" y="251" type="curve" smooth="yes"/>
      <point x="51" y="203"/>
      <point x="175" y="116"/>
      <point x="209" y="116" type="curve" smooth="yes"/>
      <point x="243" y="116"/>
      <point x="253" y="157"/>
      <point x="253" y="192" type="curve" smooth="yes"/>
      <point x="253" y="242" type="line"/>
      <point x="512" y="242" type="line"/>
    </contour>
    <contour>
      <point x="253" y="317" type="line"/>
      <point x="253" y="550" type="line"/>
      <point x="512" y="550" type="line"/>
      <point x="512" y="317" type="line"/>
    </contour>
  </outline>
</glyph>
<glyph name="Ssa" format="2">
  <advance width="674"/>
  <unicode hex="111B0"/>
  <outline>
    <contour>
      <point x="472" y="0" type="line"/>
      <point x="557" y="0" type="line"/>
      <point x="557" y="550" type="line"/>
      <point x="650" y="550" type="line"/>
      <point x="650" y="625" type="line"/>
      <point x="472" y="625" type="line"/>
      <point x="472" y="283" type="line"/>
      <point x="181" y="514" type="line"/>
      <point x="181" y="625" type="line"/>
      <point x="24" y="625" type="line"/>
      <point x="24" y="550" type="line"/>
      <point x="96" y="550" type="line"/>
      <point x="96" y="276" type="line" smooth="yes"/>
      <point x="96" y="152"/>
      <point x="169" y="100"/>
      <point x="288" y="100" type="curve" smooth="yes"/>
      <point x="372" y="100"/>
      <point x="434" y="129"/>
      <point x="472" y="162" type="curve"/>
    </contour>
    <contour>
      <point x="292" y="173" type="curve" smooth="yes"/>
      <point x="216" y="173"/>
      <point x="181" y="198"/>
      <point x="181" y="279" type="curve" smooth="yes"/>
      <point x="181" y="421" type="line"/>
      <point x="435" y="220" type="line"/>
      <point x="400" y="193"/>
      <point x="348" y="173"/>
    </contour>
  </outline>
</glyph>
<glyph name="Ha" format="2">
  <advance width="537"/>
  <unicode hex="111B2"/>
  <outline>
    <contour>
      <point x="367" y="-12" type="line"/>
      <point x="450" y="-3"/>
      <point x="507" y="74"/>
      <point x="507" y="145" type="curve" smooth="yes"/>
      <point x="507" y="242"/>
      <point x="439" y="295"/>
      <point x="355" y="295" type="curve" smooth="yes"/>
      <point x="297" y="295"/>
      <point x="247" y="264"/>
      <point x="220" y="206" type="curve"/>
      <point x="165" y="225"/>
      <point x="139" y="273"/>
      <point x="139" y="353" type="curve" smooth="yes"/>
      <point x="139" y="423"/>
      <point x="173" y="511"/>
      <point x="238" y="550" type="curve"/>
      <point x="465" y="550" type="line"/>
      <point x="465" y="625" type="line"/>
      <point x="24" y="625" type="line"/>
      <point x="24" y="550" type="line"/>
      <point x="150" y="550" type="line"/>
      <point x="88" y="500"/>
      <point x="54" y="423"/>
      <point x="54" y="349" type="curve" smooth="yes"/>
      <point x="54" y="240"/>
      <point x="105" y="133"/>
      <point x="264" y="127" type="curve"/>
      <point x="276" y="186"/>
      <point x="308" y="220"/>
      <point x="357" y="220" type="curve" smooth="yes"/>
      <point x="399" y="220"/>
      <point x="426" y="191"/>
      <point x="426" y="144" type="curve" smooth="yes"/>
      <point x="426" y="95"/>
      <point x="391" y="64"/>
      <point x="345" y="54" type="curve"/>
    </contour>
  </outline>
</glyph>
<glyph name="AA" format="2">
  <advance width="231"/>
  <unicode hex="111B3"/>
  <outline>
    <contour>
      <point x="59" y="340" type="line"/>
      <point x="144" y="340" type="line"/>
      <point x="144" y="550" type="line"/>
      <point x="207" y="550" type="line"/>
      <point x="207" y="625" type="line"/>
      <point x="-70" y="625" type="line"/>
      <point x="-70" y="550" type="line"/>
      <point x="59" y="550" type="line"/>
    </contour>
  </outline>
</glyph>
<glyph name="I" format="2">
  <advance width="224"/>
  <unicode hex="111B4"/>
  <outline>
    <contour>
      <point x="84" y="0" type="line"/>
      <point x="169" y="0" type="line"/>
      <point x="169" y="550" type="line"/>
      <point x="296" y="550" type="line"/>
      <point x="296" y="625" type="line"/>
      <point x="169" y="625" type="line"/>
      <point x="169" y="688" type="line" smooth="yes"/>
      <point x="169" y="753"/>
      <point x="208" y="805"/>
      <point x="280" y="805" type="curve" smooth="yes"/>
      <point x="392" y="805"/>
      <point x="471" y="720"/>
      <point x="543" y="593" type="curve"/>
      <point x="625" y="593" type="line"/>
      <point x="532" y="780"/>
      <point x="415" y="880"/>
      <point x="278" y="880" type="curve" smooth="yes"/>
      <point x="142" y="880"/>
      <point x="84" y="781"/>
      <point x="84" y="690" type="curve" smooth="yes"/>
      <point x="84" y="625" type="line"/>
      <point x="24" y="625" type="line"/>
      <point x="24" y="550" type="line"/>
      <point x="84" y="550" type="line"/>
    </contour>
    <contour>
      <point x="170" y="550" type="move"/>
    </contour>
  </outline>
</glyph>
<glyph name="II" format="2">
  <advance width="254"/>
  <unicode hex="111B5"/>
  <outline>
    <contour>
      <point x="85" y="0" type="line"/>
      <point x="170" y="0" type="line"/>
      <point x="170" y="550" type="line"/>
      <point x="230" y="550" type="line"/>
      <point x="230" y="625" type="line"/>
      <point x="164" y="625" type="line"/>
      <point x="88" y="770"/>
      <point x="13" y="880"/>
      <point x="-101" y="880" type="curve" smooth="yes"/>
      <point x="-225" y="880"/>
      <point x="-290" y="710"/>
      <point x="-313" y="598" type="curve"/>
      <point x="-237" y="583" type="line"/>
      <point x="-212" y="687"/>
      <point x="-174" y="805"/>
      <point x="-95" y="805" type="curve" smooth="yes"/>
      <point x="-32" y="805"/>
      <point x="19" y="729"/>
      <point x="75" y="625" type="curve"/>
      <point x="-82" y="625" type="line"/>
      <point x="-82" y="550" type="line"/>
      <point x="85" y="550" type="line"/>
    </contour>
  </outline>
</glyph>
<glyph name="U" format="2">
  <unicode hex="111B6"/>
  <outline>
    <contour>
      <point x="-41" y="-219" type="curve" smooth="yes"/>
      <point x="-9" y="-219"/>
      <point x="0" y="-182"/>
      <point x="0" y="-151" type="curve" smooth="yes"/>
      <point x="0" y="27" type="line"/>
      <point x="-85" y="27" type="line"/>
      <point x="-85" y="-49" type="line"/>
      <point x="-127" y="-58"/>
      <point x="-169" y="-88"/>
      <point x="-169" y="-119" type="curve" smooth="yes"/>
      <point x="-169" y="-162"/>
      <point x="-72" y="-219"/>
    </contour>
  </outline>
</glyph>
<glyph name="UU" format="2">
  <unicode hex="111B7"/>
  <outline>
    <contour>
      <point x="-303" y="-190" type="line"/>
      <point x="0" y="-190" type="line"/>
      <point x="0" y="27" type="line"/>
      <point x="-85" y="27" type="line"/>
      <point x="-85" y="-123" type="line"/>
      <point x="-303" y="-123" type="line"/>
    </contour>
  </outline>
</glyph>
<glyph name="vocR" format="2">
  <unicode hex="111B8"/>
  <outline>
    <contour>
      <point x="64" y="-230" type="curve" smooth="yes"/>
      <point x="169" y="-230"/>
      <point x="204" y="-152"/>
      <point x="204" y="-73" type="curve" smooth="yes"/>
      <point x="204" y="-59" type="line"/>
      <point x="129" y="-59" type="line"/>
      <point x="129" y="-86" type="line" smooth="yes"/>
      <point x="129" y="-139"/>
      <point x="106" y="-165"/>
      <point x="65" y="-165" type="curve" smooth="yes"/>
      <point x="23" y="-165"/>
      <point x="0" y="-128"/>
      <point x="0" y="-70" type="curve" smooth="yes"/>
      <point x="0" y="27" type="line"/>
      <point x="-85" y="27" type="line"/>
      <point x="-85" y="-73" type="line" smooth="yes"/>
      <point x="-85" y="-171"/>
      <point x="-21" y="-230"/>
    </contour>
  </outline>
</glyph>
<glyph name="vocRR" format="2">
  <unicode hex="111B9"/>
  <outline>
    <contour>
      <point x="35" y="-230" type="curve" smooth="yes"/>
      <point x="83" y="-230"/>
      <point x="114" y="-203"/>
      <point x="129" y="-174" type="curve"/>
      <point x="145" y="-205"/>
      <point x="175" y="-230"/>
      <point x="219" y="-230" type="curve" smooth="yes"/>
      <point x="297" y="-230"/>
      <point x="334" y="-162"/>
      <point x="334" y="-73" type="curve" smooth="yes"/>
      <point x="334" y="-35" type="line"/>
      <point x="259" y="-35" type="line"/>
      <point x="259" y="-83" type="line" smooth="yes"/>
      <point x="259" y="-147"/>
      <point x="237" y="-165"/>
      <point x="212" y="-165" type="curve" smooth="yes"/>
      <point x="184" y="-165"/>
      <point x="167" y="-149"/>
      <point x="167" y="-89" type="curve" smooth="yes"/>
      <point x="167" y="-35" type="line"/>
      <point x="92" y="-35" type="line"/>
      <point x="92" y="-89" type="line" smooth="yes"/>
      <point x="92" y="-147"/>
      <point x="71" y="-165"/>
      <point x="44" y="-165" type="curve" smooth="yes"/>
      <point x="16" y="-165"/>
      <point x="0" y="-141"/>
      <point x="0" y="-83" type="curve" smooth="yes"/>
      <point x="0" y="27" type="line"/>
      <point x="-85" y="27" type="line"/>
      <point x="-85" y="-73" type="line" smooth="yes"/>
      <point x="-85" y="-161"/>
      <point x="-47" y="-230"/>
    </contour>
  </outline>
</glyph>
<glyph name="vocL" format="2">
  <unicode hex="111BA"/>
  <outline>
    <contour>
      <point x="74" y="-359" type="curve" smooth="yes"/>
      <point x="117" y="-359"/>
      <point x="158" y="-342"/>
      <point x="183" y="-321" type="curve"/>
      <point x="150" y="-277" type="line"/>
      <point x="127" y="-294"/>
      <point x="104" y="-304"/>
      <point x="77" y="-304" type="curve" smooth="yes"/>
      <point x="54" y="-304"/>
      <point x="39" y="-296"/>
      <point x="39" y="-276" type="curve" smooth="yes"/>
      <point x="39" y="-258"/>
      <point x="58" y="-246"/>
      <point x="85" y="-229" type="curve" smooth="yes"/>
      <point x="119" y="-208"/>
      <point x="151" y="-183"/>
      <point x="151" y="-144" type="curve" smooth="yes"/>
      <point x="151" y="-111"/>
      <point x="129" y="-86"/>
      <point x="100" y="-74" type="curve"/>
      <point x="100" y="-48" type="line"/>
      <point x="200" y="-48" type="line"/>
      <point x="200" y="18" type="line"/>
      <point x="-201" y="18" type="line"/>
      <point x="-201" y="-48" type="line"/>
      <point x="-150" y="-48" type="line"/>
      <point x="-150" y="-351" type="line"/>
      <point x="-76" y="-351" type="line"/>
      <point x="-76" y="-48" type="line"/>
      <point x="35" y="-48" type="line"/>
      <point x="35" y="-72" type="line"/>
      <point x="5" y="-78"/>
      <point x="-18" y="-91"/>
      <point x="-33" y="-103" type="curve"/>
      <point x="1" y="-145" type="line"/>
      <point x="14" y="-134"/>
      <point x="36" y="-122"/>
      <point x="55" y="-122" type="curve" smooth="yes"/>
      <point x="77" y="-122"/>
      <point x="85" y="-136"/>
      <point x="85" y="-147" type="curve" smooth="yes"/>
      <point x="85" y="-165"/>
      <point x="65" y="-178"/>
      <point x="33" y="-196" type="curve" smooth="yes"/>
      <point x="-6" y="-218"/>
      <point x="-28" y="-246"/>
      <point x="-28" y="-278" type="curve" smooth="yes"/>
      <point x="-28" y="-333"/>
      <point x="17" y="-359"/>
    </contour>
  </outline>
</glyph>
<glyph name="vocLL" format="2">
  <unicode hex="111BB"/>
  <outline>
    <contour>
      <point x="55" y="-360" type="curve" smooth="yes"/>
      <point x="97" y="-360"/>
      <point x="138" y="-343"/>
      <point x="162" y="-322" type="curve"/>
      <point x="128" y="-278" type="line"/>
      <point x="107" y="-295"/>
      <point x="84" y="-305"/>
      <point x="58" y="-305" type="curve" smooth="yes"/>
      <point x="35" y="-305"/>
      <point x="20" y="-298"/>
      <point x="20" y="-283" type="curve" smooth="yes"/>
      <point x="20" y="-264"/>
      <point x="39" y="-251"/>
      <point x="68" y="-233" type="curve" smooth="yes"/>
      <point x="100" y="-213"/>
      <point x="132" y="-188"/>
      <point x="132" y="-151" type="curve" smooth="yes"/>
      <point x="132" y="-122"/>
      <point x="107" y="-98"/>
      <point x="74" y="-88" type="curve"/>
      <point x="74" y="-49" type="line"/>
      <point x="110" y="-49" type="line"/>
      <point x="112" y="-108"/>
      <point x="156" y="-144"/>
      <point x="208" y="-144" type="curve" smooth="yes"/>
      <point x="263" y="-144"/>
      <point x="309" y="-105"/>
      <point x="309" y="-38" type="curve" smooth="yes"/>
      <point x="309" y="17" type="line"/>
      <point x="-201" y="17" type="line"/>
      <point x="-201" y="-49" type="line"/>
      <point x="-150" y="-49" type="line"/>
      <point x="-150" y="-352" type="line"/>
      <point x="-76" y="-352" type="line"/>
      <point x="-76" y="-49" type="line"/>
      <point x="9" y="-49" type="line"/>
      <point x="9" y="-86" type="line"/>
      <point x="-20" y="-92"/>
      <point x="-40" y="-106"/>
      <point x="-54" y="-119" type="curve"/>
      <point x="-20" y="-161" type="line"/>
      <point x="-8" y="-149"/>
      <point x="12" y="-136"/>
      <point x="35" y="-136" type="curve" smooth="yes"/>
      <point x="55" y="-136"/>
      <point x="66" y="-141"/>
      <point x="66" y="-152" type="curve" smooth="yes"/>
      <point x="66" y="-167"/>
      <point x="46" y="-180"/>
      <point x="15" y="-199" type="curve" smooth="yes"/>
      <point x="-25" y="-224"/>
      <point x="-47" y="-252"/>
      <point x="-47" y="-285" type="curve" smooth="yes"/>
      <point x="-47" y="-336"/>
      <point x="-2" y="-360"/>
    </contour>
    <contour>
      <point x="210" y="-87" type="curve" smooth="yes"/>
      <point x="190" y="-87"/>
      <point x="174" y="-73"/>
      <point x="172" y="-49" type="curve"/>
      <point x="247" y="-49" type="line"/>
      <point x="245" y="-73"/>
      <point x="230" y="-87"/>
    </contour>
  </outline>
</glyph>
<glyph name="E" format="2">
  <unicode hex="111BC"/>
  <outline>
    <contour>
      <point x="-182" y="710" type="line"/>
      <point x="182" y="710" type="line"/>
      <point x="182" y="769" type="line"/>
      <point x="-182" y="769" type="line"/>
    </contour>
  </outline>
</glyph>
<glyph name="AI" format="2">
  <unicode hex="111BD"/>
  <outline>
    <contour>
      <point x="-182" y="815" type="line"/>
      <point x="182" y="815" type="line"/>
      <point x="182" y="874" type="line"/>
      <point x="-182" y="874" type="line"/>
    </contour>
    <contour>
      <point x="-182" y="710" type="line"/>
      <point x="182" y="710" type="line"/>
      <point x="182" y="769" type="line"/>
      <point x="-182" y="769" type="line"/>
    </contour>
  </outline>
</glyph>
<glyph name="O" format="2">
  <unicode hex="111BE"/>
  <outline>
    <contour>
      <point x="-78" y="674" type="curve"/>
      <point x="0" y="674" type="line"/>
      <point x="-42" y="783"/>
      <point x="-100" y="845"/>
      <point x="-176" y="845" type="curve" smooth="yes"/>
      <point x="-220" y="845"/>
      <point x="-245" y="818"/>
      <point x="-271" y="789" type="curve" smooth="yes"/>
      <point x="-294" y="763"/>
      <point x="-307" y="749"/>
      <point x="-330" y="749" type="curve" smooth="yes"/>
      <point x="-356" y="749"/>
      <point x="-374" y="771"/>
      <point x="-391" y="792" type="curve" smooth="yes"/>
      <point x="-415" y="821"/>
      <point x="-445" y="845"/>
      <point x="-491" y="845" type="curve" smooth="yes"/>
      <point x="-564" y="845"/>
      <point x="-607" y="779"/>
      <point x="-629" y="719" type="curve"/>
      <point x="-571" y="691" type="line"/>
      <point x="-551" y="742"/>
      <point x="-528" y="780"/>
      <point x="-493" y="780" type="curve" smooth="yes"/>
      <point x="-467" y="780"/>
      <point x="-450" y="761"/>
      <point x="-430" y="737" type="curve" smooth="yes"/>
      <point x="-407" y="709"/>
      <point x="-377" y="684"/>
      <point x="-330" y="684" type="curve" smooth="yes"/>
      <point x="-284" y="684"/>
      <point x="-258" y="706"/>
      <point x="-228" y="740" type="curve" smooth="yes"/>
      <point x="-208" y="763"/>
      <point x="-193" y="780"/>
      <point x="-170" y="780" type="curve" smooth="yes"/>
      <point x="-136" y="780"/>
      <point x="-108" y="748"/>
    </contour>
  </outline>
</glyph>
<glyph name="AU" format="2">
  <advance width="270"/>
  <unicode hex="111BF"/>
  <outline>
    <contour>
      <point x="85" y="400" type="line"/>
      <point x="170" y="400" type="line"/>
      <point x="170" y="550" type="line"/>
      <point x="230" y="550" type="line"/>
      <point x="230" y="625" type="line"/>
      <point x="163" y="625" type="line"/>
      <point x="113" y="781"/>
      <point x="50" y="845"/>
      <point x="-29" y="845" type="curve" smooth="yes"/>
      <point x="-73" y="845"/>
      <point x="-98" y="818"/>
      <point x="-124" y="789" type="curve" smooth="yes"/>
      <point x="-147" y="763"/>
      <point x="-160" y="749"/>
      <point x="-183" y="749" type="curve" smooth="yes"/>
      <point x="-209" y="749"/>
      <point x="-227" y="771"/>
      <point x="-244" y="792" type="curve" smooth="yes"/>
      <point x="-268" y="821"/>
      <point x="-298" y="845"/>
      <point x="-344" y="845" type="curve" smooth="yes"/>
      <point x="-417" y="845"/>
      <point x="-460" y="779"/>
      <point x="-482" y="719" type="curve"/>
      <point x="-424" y="691" type="line"/>
      <point x="-404" y="742"/>
      <point x="-381" y="780"/>
      <point x="-346" y="780" type="curve" smooth="yes"/>
      <point x="-320" y="780"/>
      <point x="-303" y="761"/>
      <point x="-283" y="737" type="curve" smooth="yes"/>
      <point x="-260" y="709"/>
      <point x="-230" y="684"/>
      <point x="-183" y="684" type="curve" smooth="yes"/>
      <point x="-137" y="684"/>
      <point x="-111" y="706"/>
      <point x="-81" y="740" type="curve" smooth="yes"/>
      <point x="-61" y="763"/>
      <point x="-46" y="780"/>
      <point x="-23" y="780" type="curve" smooth="yes"/>
      <point x="12" y="780"/>
      <point x="43" y="748"/>
      <point x="81" y="625" type="curve"/>
      <point x="-70" y="625" type="line"/>
      <point x="-70" y="550" type="line"/>
      <point x="85" y="550" type="line"/>
    </contour>
  </outline>
</glyph>
<glyph name="virama" format="2">
  <advance width="250"/>
  <unicode hex="111C0"/>
  <outline>
    <contour>
      <point x="85" y="0" type="line"/>
      <point x="170" y="0" type="line"/>
      <point x="170" y="720" type="line"/>
      <point x="85" y="720" type="line"/>
      <point x="85" y="625" type="line"/>
      <point x="-70" y="625" type="line"/>
      <point x="-70" y="550" type="line"/>
      <point x="85" y="550" type="line"/>
    </contour>
  </outline>
</glyph>
<glyph name="Avagraha" format="2">
  <advance width="263"/>
  <unicode hex="111C1"/>
  <outline>
    <contour>
      <point x="137" y="-195" type="curve" smooth="yes"/>
      <point x="204" y="-195"/>
      <point x="258" y="-162"/>
      <point x="258" y="-95" type="curve" smooth="yes"/>
      <point x="258" y="-52"/>
      <point x="230" y="-16"/>
      <point x="181" y="17" type="curve" smooth="yes"/>
      <point x="146" y="40"/>
      <point x="122" y="56"/>
      <point x="122" y="81" type="curve" smooth="yes"/>
      <point x="122" y="95"/>
      <point x="133" y="114"/>
      <point x="163" y="114" type="curve" smooth="yes"/>
      <point x="185" y="114"/>
      <point x="210" y="100"/>
      <point x="225" y="87" type="curve"/>
      <point x="264" y="137" type="line"/>
      <point x="241" y="158"/>
      <point x="203" y="179"/>
      <point x="149" y="179" type="curve" smooth="yes"/>
      <point x="96" y="179"/>
      <point x="46" y="140"/>
      <point x="46" y="84" type="curve" smooth="yes"/>
      <point x="46" y="34"/>
      <point x="82" y="0"/>
      <point x="120" y="-25" type="curve" smooth="yes"/>
      <point x="157" y="-50"/>
      <point x="181" y="-67"/>
      <point x="181" y="-92" type="curve" smooth="yes"/>
      <point x="181" y="-117"/>
      <point x="162" y="-129"/>
      <point x="133" y="-129" type="curve" smooth="yes"/>
      <point x="100" y="-129"/>
      <point x="71" y="-116"/>
      <point x="44" y="-95" type="curve"/>
      <point x="5" y="-148" type="line"/>
      <point x="35" y="-174"/>
      <point x="85" y="-195"/>
    </contour>
  </outline>
</glyph>
<glyph name="Jihvamuliya" format="2">
  <advance width="571"/>
  <unicode hex="111C2"/>
  <outline>
    <contour>
      <point x="354" y="615" type="curve"/>
      <point x="400" y="615" type="line"/>
      <point x="400" y="839" type="line"/>
      <point x="435" y="839" type="line"/>
      <point x="435" y="897" type="line"/>
      <point x="153" y="897" type="line"/>
      <point x="153" y="839" type="line"/>
      <point x="333" y="839" type="line"/>
      <point x="333" y="828" type="line"/>
      <point x="270" y="816" type="line" smooth="yes"/>
      <point x="183" y="799"/>
      <point x="136" y="767"/>
      <point x="136" y="724" type="curve" smooth="yes"/>
      <point x="136" y="666"/>
      <point x="217" y="631"/>
    </contour>
    <contour>
      <point x="333" y="678" type="line"/>
      <point x="278" y="684"/>
      <point x="214" y="700"/>
      <point x="214" y="725" type="curve" smooth="yes"/>
      <point x="214" y="747"/>
      <point x="267" y="764"/>
      <point x="333" y="774" type="curve"/>
    </contour>
  </outline>
</glyph>
<glyph name="Danda" format="2">
  <advance width="325"/>
  <unicode hex="111C5"/>
  <outline>
    <contour>
      <point x="205" y="-20" type="line"/>
      <point x="205" y="625" type="line"/>
      <point x="120" y="645" type="line"/>
      <point x="120" y="0" type="line"/>
    </contour>
  </outline>
</glyph>
<glyph name="DoubleDanda" format="2">
  <advance width="485"/>
  <unicode hex="111C6"/>
  <outline>
    <contour>
      <point x="365" y="-20" type="line"/>
      <point x="365" y="625" type="line"/>
      <point x="280" y="645" type="line"/>
      <point x="280" y="0" type="line"/>
    </contour>
    <contour>
      <point x="205" y="-20" type="line"/>
      <point x="205" y="625" type="line"/>
      <point x="120" y="645" type="line"/>
      <point x="120" y="0" type="line"/>
    </contour>
  </outline>
</glyph>
<glyph name="Abbreviation" format="2">
  <advance width="374"/>
  <unicode hex="111C7"/>
  <outline>
    <contour>
      <point x="188" y="236" type="curve" smooth="yes"/>
      <point x="235" y="236"/>
      <point x="274" y="275"/>
      <point x="274" y="326" type="curve" smooth="yes"/>
      <point x="274" y="376"/>
      <point x="235" y="417"/>
      <point x="188" y="417" type="curve" smooth="yes"/>
      <point x="141" y="417"/>
      <point x="100" y="376"/>
      <point x="100" y="326" type="curve" smooth="yes"/>
      <point x="100" y="275"/>
      <point x="141" y="236"/>
    </contour>
  </outline>
</glyph>
<glyph name="Separator" format="2">
  <advance width="125"/>
  <unicode hex="111C8"/>
  <outline>
    <contour>
      <point x="20" y="-290" type="line"/>
      <point x="98" y="-290" type="line"/>
      <point x="98" y="-50" type="line"/>
      <point x="20" y="-50" type="line"/>
    </contour>
  </outline>
</glyph>
<glyph name="SandhiMark" format="2">
  <unicode hex="111C9"/>
  <outline>
    <contour>
      <point x="-98" y="-300" type="curve" smooth="yes"/>
      <point x="-43" y="-300"/>
      <point x="-10" y="-277"/>
      <point x="-10" y="-232" type="curve" smooth="yes"/>
      <point x="-10" y="-194"/>
      <point x="-41" y="-170"/>
      <point x="-68" y="-154" type="curve" smooth="yes"/>
      <point x="-94" y="-139"/>
      <point x="-109" y="-130"/>
      <point x="-109" y="-114" type="curve" smooth="yes"/>
      <point x="-109" y="-104"/>
      <point x="-100" y="-96"/>
      <point x="-85" y="-96" type="curve" smooth="yes"/>
      <point x="-73" y="-96"/>
      <point x="-57" y="-102"/>
      <point x="-42" y="-110" type="curve"/>
      <point x="-13" y="-69" type="line"/>
      <point x="-30" y="-56"/>
      <point x="-57" y="-43"/>
      <point x="-91" y="-43" type="curve" smooth="yes"/>
      <point x="-134" y="-43"/>
      <point x="-171" y="-68"/>
      <point x="-171" y="-111" type="curve" smooth="yes"/>
      <point x="-171" y="-148"/>
      <point x="-140" y="-172"/>
      <point x="-111" y="-190" type="curve" smooth="yes"/>
      <point x="-90" y="-203"/>
      <point x="-71" y="-215"/>
      <point x="-71" y="-227" type="curve" smooth="yes"/>
      <point x="-71" y="-238"/>
      <point x="-79" y="-247"/>
      <point x="-101" y="-247" type="curve" smooth="yes"/>
      <point x="-127" y="-247"/>
      <point x="-154" y="-236"/>
      <point x="-173" y="-223" type="curve"/>
      <point x="-198" y="-268" type="line"/>
      <point x="-173" y="-289"/>
      <point x="-135" y="-300"/>
    </contour>
  </outline>
</glyph>
<glyph name="Nukta" format="2">
  <unicode hex="111CA"/>
  <outline>
    <contour>
      <point x="248" y="-188" type="curve" smooth="yes"/>
      <point x="284" y="-188"/>
      <point x="314" y="-158"/>
      <point x="314" y="-119" type="curve" smooth="yes"/>
      <point x="314" y="-81"/>
      <point x="284" y="-50"/>
      <point x="248" y="-50" type="curve" smooth="yes"/>
      <point x="212" y="-50"/>
      <point x="181" y="-81"/>
      <point x="181" y="-119" type="curve" smooth="yes"/>
      <point x="181" y="-158"/>
      <point x="212" y="-188"/>
    </contour>
  </outline>
</glyph>
<glyph name="VowelModifier" format="2">
  <unicode hex="111CB"/>
  <outline>
    <contour>
      <point x="147" y="684" type="line"/>
      <point x="225" y="684" type="line"/>
      <point x="225" y="894" type="line"/>
      <point x="147" y="894" type="line"/>
    </contour>
  </outline>
</glyph>
<glyph name="ShortVowelMark" format="2">
  <unicode hex="111CC"/>
  <outline>
    <contour>
      <point x="154" y="-265" type="line"/>
      <point x="203" y="-215" type="line"/>
      <point x="3" y="-37" type="line"/>
      <point x="-46" y="-87" type="line"/>
    </contour>
  </outline>
</glyph>
<glyph name="SutraMark" format="2">
  <advance width="885"/>
  <unicode hex="111CD"/>
  <outline>
    <contour>
      <point x="443" y="442" type="curve" smooth="yes"/>
      <point x="472" y="442"/>
      <point x="495" y="464"/>
      <point x="495" y="493" type="curve" smooth="yes"/>
      <point x="495" y="522"/>
      <point x="472" y="545"/>
      <point x="443" y="545" type="curve" smooth="yes"/>
      <point x="414" y="545"/>
      <point x="392" y="522"/>
      <point x="392" y="493" type="curve" smooth="yes"/>
      <point x="392" y="464"/>
      <point x="414" y="442"/>
    </contour>
    <contour>
      <point x="80" y="339" type="line"/>
      <point x="230" y="339" type="line"/>
      <point x="230" y="388" type="line"/>
      <point x="80" y="388" type="line"/>
    </contour>
    <contour>
      <point x="418" y="0" type="line"/>
      <point x="471" y="0" type="line"/>
      <point x="471" y="150" type="line"/>
      <point x="418" y="150" type="line"/>
    </contour>
    <contour>
      <point x="342" y="229" type="curve" smooth="yes"/>
      <point x="359" y="229"/>
      <point x="372" y="242"/>
      <point x="372" y="259" type="curve" smooth="yes"/>
      <point x="372" y="277"/>
      <point x="359" y="290"/>
      <point x="342" y="290" type="curve" smooth="yes"/>
      <point x="324" y="290"/>
      <point x="311" y="277"/>
      <point x="311" y="259" type="curve" smooth="yes"/>
      <point x="311" y="242"/>
      <point x="324" y="229"/>
    </contour>
    <contour>
      <point x="312" y="311" type="curve" smooth="yes"/>
      <point x="341" y="311"/>
      <point x="363" y="333"/>
      <point x="363" y="362" type="curve" smooth="yes"/>
      <point x="363" y="391"/>
      <point x="341" y="414"/>
      <point x="312" y="414" type="curve" smooth="yes"/>
      <point x="283" y="414"/>
      <point x="260" y="391"/>
      <point x="260" y="362" type="curve" smooth="yes"/>
      <point x="260" y="333"/>
      <point x="283" y="311"/>
    </contour>
    <contour>
      <point x="443" y="180" type="curve" smooth="yes"/>
      <point x="472" y="180"/>
      <point x="495" y="203"/>
      <point x="495" y="232" type="curve" smooth="yes"/>
      <point x="495" y="261"/>
      <point x="472" y="283"/>
      <point x="443" y="283" type="curve" smooth="yes"/>
      <point x="414" y="283"/>
      <point x="392" y="261"/>
      <point x="392" y="232" type="curve" smooth="yes"/>
      <point x="392" y="203"/>
      <point x="414" y="180"/>
    </contour>
    <contour>
      <point x="546" y="229" type="curve" smooth="yes"/>
      <point x="563" y="229"/>
      <point x="576" y="242"/>
      <point x="576" y="259" type="curve" smooth="yes"/>
      <point x="576" y="277"/>
      <point x="563" y="290"/>
      <point x="546" y="290" type="curve" smooth="yes"/>
      <point x="528" y="290"/>
      <point x="515" y="277"/>
      <point x="515" y="259" type="curve" smooth="yes"/>
      <point x="515" y="242"/>
      <point x="528" y="229"/>
    </contour>
    <contour>
      <point x="443" y="311" type="curve" smooth="yes"/>
      <point x="472" y="311"/>
      <point x="495" y="333"/>
      <point x="495" y="362" type="curve" smooth="yes"/>
      <point x="495" y="391"/>
      <point x="472" y="414"/>
      <point x="443" y="414" type="curve" smooth="yes"/>
      <point x="414" y="414"/>
      <point x="392" y="391"/>
      <point x="392" y="362" type="curve" smooth="yes"/>
      <point x="392" y="333"/>
      <point x="414" y="311"/>
    </contour>
    <contour>
      <point x="342" y="435" type="curve" smooth="yes"/>
      <point x="359" y="435"/>
      <point x="372" y="448"/>
      <point x="372" y="465" type="curve" smooth="yes"/>
      <point x="372" y="483"/>
      <point x="359" y="496"/>
      <point x="342" y="496" type="curve" smooth="yes"/>
      <point x="324" y="496"/>
      <point x="311" y="483"/>
      <point x="311" y="465" type="curve" smooth="yes"/>
      <point x="311" y="448"/>
      <point x="324" y="435"/>
    </contour>
    <contour>
      <point x="573" y="311" type="curve" smooth="yes"/>
      <point x="602" y="311"/>
      <point x="625" y="333"/>
      <point x="625" y="362" type="curve" smooth="yes"/>
      <point x="625" y="391"/>
      <point x="602" y="414"/>
      <point x="573" y="414" type="curve" smooth="yes"/>
      <point x="544" y="414"/>
      <point x="522" y="391"/>
      <point x="522" y="362" type="curve" smooth="yes"/>
      <point x="522" y="333"/>
      <point x="544" y="311"/>
    </contour>
    <contour>
      <point x="546" y="435" type="curve" smooth="yes"/>
      <point x="563" y="435"/>
      <point x="576" y="448"/>
      <point x="576" y="465" type="curve" smooth="yes"/>
      <point x="576" y="483"/>
      <point x="563" y="496"/>
      <point x="546" y="496" type="curve" smooth="yes"/>
      <point x="528" y="496"/>
      <point x="515" y="483"/>
      <point x="515" y="465" type="curve" smooth="yes"/>
      <point x="515" y="448"/>
      <point x="528" y="435"/>
    </contour>
    <contour>
      <point x="655" y="339" type="line"/>
      <point x="805" y="339" type="line"/>
      <point x="805" y="388" type="line"/>
      <point x="655" y="388" type="line"/>
    </contour>
    <contour>
      <point x="418" y="575" type="line"/>
      <point x="471" y="575" type="line"/>
      <point x="471" y="725" type="line"/>
      <point x="418" y="725" type="line"/>
    </contour>
  </outline>
</glyph>
<glyph name="Sh_Zero" format="2">
  <advance width="406"/>
  <unicode hex="111D0"/>
  <outline>
    <contour>
      <point x="203" y="214" type="curve" smooth="yes"/>
      <point x="271" y="214"/>
      <point x="326" y="268"/>
      <point x="326" y="336" type="curve" smooth="yes"/>
      <point x="326" y="404"/>
      <point x="271" y="459"/>
      <point x="203" y="459" type="curve" smooth="yes"/>
      <point x="135" y="459"/>
      <point x="80" y="404"/>
      <point x="80" y="336" type="curve" smooth="yes"/>
      <point x="80" y="268"/>
      <point x="135" y="214"/>
    </contour>
  </outline>
</glyph>
<glyph name="Sh_One" format="2">
  <advance width="571"/>
  <unicode hex="111D1"/>
  <outline>
    <contour>
      <point x="285" y="129" type="curve" smooth="yes"/>
      <point x="408" y="129"/>
      <point x="491" y="217"/>
      <point x="491" y="331" type="curve" smooth="yes"/>
      <point x="491" y="441"/>
      <point x="407" y="535"/>
      <point x="285" y="535" type="curve" smooth="yes"/>
      <point x="164" y="535"/>
      <point x="80" y="443"/>
      <point x="80" y="331" type="curve" smooth="yes"/>
      <point x="80" y="221"/>
      <point x="170" y="129"/>
    </contour>
    <contour>
      <point x="285" y="202" type="curve" smooth="yes"/>
      <point x="214" y="202"/>
      <point x="164" y="259"/>
      <point x="164" y="331" type="curve" smooth="yes"/>
      <point x="164" y="403"/>
      <point x="211" y="461"/>
      <point x="285" y="461" type="curve" smooth="yes"/>
      <point x="355" y="461"/>
      <point x="406" y="398"/>
      <point x="406" y="331" type="curve" smooth="yes"/>
      <point x="406" y="256"/>
      <point x="356" y="202"/>
    </contour>
  </outline>
</glyph>
<glyph name="Sh_Two" format="2">
  <advance width="483"/>
  <unicode hex="111D2"/>
  <outline>
    <contour>
      <point x="233" y="-12" type="curve" smooth="yes"/>
      <point x="362" y="-12"/>
      <point x="433" y="80"/>
      <point x="433" y="181" type="curve" smooth="yes"/>
      <point x="433" y="258"/>
      <point x="388" y="321"/>
      <point x="318" y="347" type="curve"/>
      <point x="357" y="375"/>
      <point x="384" y="417"/>
      <point x="384" y="477" type="curve" smooth="yes"/>
      <point x="384" y="578"/>
      <point x="300" y="637"/>
      <point x="206" y="637" type="curve" smooth="yes"/>
      <point x="103" y="637"/>
      <point x="29" y="572"/>
      <point x="29" y="482" type="curve" smooth="yes"/>
      <point x="29" y="444"/>
      <point x="45" y="403"/>
      <point x="68" y="382" type="curve"/>
      <point x="131" y="414" type="line"/>
      <point x="119" y="436"/>
      <point x="112" y="461"/>
      <point x="112" y="480" type="curve" smooth="yes"/>
      <point x="112" y="524"/>
      <point x="149" y="562"/>
      <point x="206" y="562" type="curve" smooth="yes"/>
      <point x="252" y="562"/>
      <point x="296" y="529"/>
      <point x="296" y="475" type="curve" smooth="yes"/>
      <point x="296" y="403"/>
      <point x="246" y="377"/>
      <point x="197" y="367" type="curve"/>
      <point x="186" y="367"/>
      <point x="175" y="366"/>
      <point x="166" y="365" type="curve"/>
      <point x="166" y="295" type="line"/>
      <point x="179" y="296"/>
      <point x="192" y="297"/>
      <point x="206" y="297" type="curve" smooth="yes"/>
      <point x="299" y="297"/>
      <point x="345" y="246"/>
      <point x="345" y="185" type="curve" smooth="yes"/>
      <point x="345" y="110"/>
      <point x="298" y="63"/>
      <point x="227" y="63" type="curve" smooth="yes"/>
      <point x="167" y="63"/>
      <point x="119" y="85"/>
      <point x="63" y="138" type="curve"/>
      <point x="15" y="85" type="line"/>
      <point x="69" y="30"/>
      <point x="142" y="-12"/>
    </contour>
  </outline>
</glyph>
<glyph name="Sh_Three" format="2">
  <advance width="507"/>
  <unicode hex="111D3"/>
  <outline>
    <contour>
      <point x="247" y="-12" type="curve" smooth="yes"/>
      <point x="376" y="-12"/>
      <point x="447" y="80"/>
      <point x="447" y="181" type="curve" smooth="yes"/>
      <point x="447" y="255"/>
      <point x="406" y="313"/>
      <point x="334" y="339" type="curve"/>
      <point x="365" y="363"/>
      <point x="378" y="396"/>
      <point x="378" y="434" type="curve" smooth="yes"/>
      <point x="378" y="500"/>
      <point x="326" y="539"/>
      <point x="273" y="544" type="curve"/>
      <point x="288" y="566"/>
      <point x="298" y="588"/>
      <point x="298" y="618" type="curve" smooth="yes"/>
      <point x="298" y="682"/>
      <point x="245" y="738"/>
      <point x="156" y="738" type="curve" smooth="yes"/>
      <point x="69" y="738"/>
      <point x="20" y="676"/>
      <point x="20" y="616" type="curve" smooth="yes"/>
      <point x="20" y="596"/>
      <point x="26" y="575"/>
      <point x="38" y="557" type="curve"/>
      <point x="103" y="593" type="line"/>
      <point x="97" y="603"/>
      <point x="95" y="614"/>
      <point x="95" y="624" type="curve" smooth="yes"/>
      <point x="95" y="648"/>
      <point x="117" y="673"/>
      <point x="156" y="673" type="curve" smooth="yes"/>
      <point x="201" y="673"/>
      <point x="220" y="643"/>
      <point x="220" y="610" type="curve" smooth="yes"/>
      <point x="220" y="572"/>
      <point x="198" y="543"/>
      <point x="166" y="535" type="curve"/>
      <point x="183" y="479" type="line"/>
      <point x="188" y="481"/>
      <point x="219" y="486"/>
      <point x="225" y="486" type="curve" smooth="yes"/>
      <point x="265" y="486"/>
      <point x="300" y="474"/>
      <point x="300" y="432" type="curve" smooth="yes"/>
      <point x="300" y="380"/>
      <point x="266" y="366"/>
      <point x="220" y="358" type="curve"/>
      <point x="208" y="358"/>
      <point x="195" y="357"/>
      <point x="183" y="356" type="curve"/>
      <point x="183" y="285" type="line"/>
      <point x="203" y="287"/>
      <point x="210" y="287"/>
      <point x="220" y="287" type="curve" smooth="yes"/>
      <point x="313" y="287"/>
      <point x="359" y="246"/>
      <point x="359" y="177" type="curve" smooth="yes"/>
      <point x="359" y="110"/>
      <point x="312" y="63"/>
      <point x="241" y="63" type="curve" smooth="yes"/>
      <point x="181" y="63"/>
      <point x="133" y="85"/>
      <point x="77" y="138" type="curve"/>
      <point x="29" y="85" type="line"/>
      <point x="83" y="30"/>
      <point x="156" y="-12"/>
    </contour>
  </outline>
</glyph>
<glyph name="Sh_Four" format="2">
  <advance width="515"/>
  <unicode hex="111D4"/>
  <outline>
    <contour>
      <point x="165" y="202" type="curve" smooth="yes"/>
      <point x="210" y="202"/>
      <point x="220" y="243"/>
      <point x="220" y="278" type="curve" smooth="yes"/>
      <point x="220" y="318" type="line"/>
      <point x="475" y="318" type="line"/>
      <point x="475" y="393" type="line"/>
      <point x="220" y="393" type="line"/>
      <point x="220" y="550" type="line"/>
      <point x="475" y="550" type="line"/>
      <point x="475" y="625" type="line"/>
      <point x="51" y="625" type="line"/>
      <point x="51" y="550" type="line"/>
      <point x="135" y="550" type="line"/>
      <point x="135" y="389" type="line"/>
      <point x="93" y="380"/>
      <point x="20" y="354"/>
      <point x="20" y="310" type="curve" smooth="yes"/>
      <point x="20" y="262"/>
      <point x="111" y="202"/>
    </contour>
  </outline>
</glyph>
<glyph name="Sh_Five" format="2">
  <advance width="488"/>
  <unicode hex="111D5"/>
  <outline>
    <contour>
      <point x="343" y="0" type="line"/>
      <point x="428" y="0" type="line"/>
      <point x="428" y="625" type="line"/>
      <point x="343" y="625" type="line"/>
      <point x="343" y="435" type="line"/>
      <point x="338" y="364"/>
      <point x="311" y="284"/>
      <point x="224" y="284" type="curve" smooth="yes"/>
      <point x="185" y="284"/>
      <point x="125" y="308"/>
      <point x="125" y="421" type="curve" smooth="yes"/>
      <point x="125" y="625" type="line"/>
      <point x="40" y="625" type="line"/>
      <point x="40" y="418" type="line" smooth="yes"/>
      <point x="40" y="283"/>
      <point x="101" y="211"/>
      <point x="219" y="211" type="curve" smooth="yes"/>
      <point x="276" y="211"/>
      <point x="316" y="234"/>
      <point x="343" y="268" type="curve"/>
    </contour>
  </outline>
</glyph>
<glyph name="Sh_Six" format="2">
  <advance width="627"/>
  <unicode hex="111D6"/>
  <outline>
    <contour>
      <point x="350" y="-15" type="curve" smooth="yes"/>
      <point x="492" y="-15"/>
      <point x="567" y="84"/>
      <point x="567" y="178" type="curve" smooth="yes"/>
      <point x="567" y="333"/>
      <point x="457" y="374"/>
      <point x="340" y="419" type="curve" smooth="yes"/>
      <point x="204" y="471"/>
      <point x="127" y="521"/>
      <point x="88" y="647" type="curve"/>
      <point x="20" y="622" type="line"/>
      <point x="76" y="440"/>
      <point x="200" y="389"/>
      <point x="306" y="349" type="curve" smooth="yes"/>
      <point x="402" y="313"/>
      <point x="482" y="283"/>
      <point x="482" y="186" type="curve" smooth="yes"/>
      <point x="482" y="105"/>
      <point x="430" y="63"/>
      <point x="352" y="63" type="curve" smooth="yes"/>
      <point x="267" y="63"/>
      <point x="213" y="97"/>
      <point x="213" y="176" type="curve" smooth="yes"/>
      <point x="213" y="188"/>
      <point x="214" y="200"/>
      <point x="216" y="214" type="curve"/>
      <point x="145" y="228" type="line"/>
      <point x="141" y="208"/>
      <point x="139" y="189"/>
      <point x="139" y="172" type="curve" smooth="yes"/>
      <point x="139" y="51"/>
      <point x="235" y="-15"/>
    </contour>
  </outline>
</glyph>
<glyph name="Sh_Seven" format="2">
  <advance width="456"/>
  <unicode hex="111D7"/>
  <outline>
    <contour>
      <point x="311" y="0" type="line"/>
      <point x="396" y="0" type="line"/>
      <point x="396" y="382" type="line" smooth="yes"/>
      <point x="396" y="557"/>
      <point x="327" y="637"/>
      <point x="201" y="637" type="curve" smooth="yes"/>
      <point x="91" y="637"/>
      <point x="20" y="553"/>
      <point x="20" y="459" type="curve" smooth="yes"/>
      <point x="20" y="389"/>
      <point x="54" y="329"/>
      <point x="108" y="297" type="curve"/>
      <point x="150" y="364" type="line"/>
      <point x="120" y="383"/>
      <point x="102" y="419"/>
      <point x="102" y="458" type="curve" smooth="yes"/>
      <point x="102" y="523"/>
      <point x="146" y="560"/>
      <point x="202" y="560" type="curve" smooth="yes"/>
      <point x="274" y="560"/>
      <point x="311" y="501"/>
      <point x="311" y="384" type="curve" smooth="yes"/>
    </contour>
  </outline>
</glyph>
<glyph name="Sh_Eight" format="2">
  <advance width="491"/>
  <unicode hex="111D8"/>
  <outline>
    <contour>
      <point x="233" y="-12" type="curve" smooth="yes"/>
      <point x="362" y="-12"/>
      <point x="433" y="80"/>
      <point x="433" y="184" type="curve" smooth="yes"/>
      <point x="433" y="269"/>
      <point x="386" y="333"/>
      <point x="304" y="355" type="curve"/>
      <point x="335" y="384"/>
      <point x="356" y="423"/>
      <point x="356" y="469" type="curve" smooth="yes"/>
      <point x="356" y="502"/>
      <point x="344" y="529"/>
      <point x="326" y="550" type="curve"/>
      <point x="372" y="550" type="line"/>
      <point x="372" y="625" type="line"/>
      <point x="72" y="625" type="line"/>
      <point x="72" y="550" type="line"/>
      <point x="178" y="550" type="line" smooth="yes"/>
      <point x="248" y="550"/>
      <point x="271" y="517"/>
      <point x="271" y="465" type="curve" smooth="yes"/>
      <point x="271" y="403"/>
      <point x="228" y="368"/>
      <point x="156" y="362" type="curve"/>
      <point x="156" y="293" type="line"/>
      <point x="174" y="296"/>
      <point x="192" y="297"/>
      <point x="212" y="297" type="curve" smooth="yes"/>
      <point x="305" y="297"/>
      <point x="345" y="246"/>
      <point x="345" y="184" type="curve" smooth="yes"/>
      <point x="345" y="110"/>
      <point x="298" y="63"/>
      <point x="227" y="63" type="curve" smooth="yes"/>
      <point x="167" y="63"/>
      <point x="119" y="85"/>
      <point x="63" y="138" type="curve"/>
      <point x="15" y="85" type="line"/>
      <point x="69" y="30"/>
      <point x="142" y="-12"/>
    </contour>
  </outline>
</glyph>
<glyph name="Sh_Nine" format="2">
  <advance width="835"/>
  <unicode hex="111D9"/>
  <outline>
    <contour>
      <point x="488" y="-12" type="curve" smooth="yes"/>
      <point x="677" y="-12"/>
      <point x="775" y="130"/>
      <point x="775" y="291" type="curve" smooth="yes"/>
      <point x="775" y="448"/>
      <point x="649" y="577"/>
      <point x="509" y="577" type="curve" smooth="yes"/>
      <point x="406" y="577"/>
      <point x="336" y="502"/>
      <point x="336" y="410" type="curve" smooth="yes"/>
      <point x="336" y="303"/>
      <point x="414" y="248"/>
      <point x="507" y="248" type="curve" smooth="yes"/>
      <point x="586" y="248"/>
      <point x="639" y="283"/>
      <point x="677" y="370" type="curve"/>
      <point x="685" y="347"/>
      <point x="690" y="323"/>
      <point x="690" y="293" type="curve" smooth="yes"/>
      <point x="690" y="180"/>
      <point x="629" y="63"/>
      <point x="492" y="63" type="curve" smooth="yes"/>
      <point x="259" y="63"/>
      <point x="154" y="337"/>
      <point x="85" y="518" type="curve"/>
      <point x="18" y="494" type="line"/>
      <point x="100" y="247"/>
      <point x="231" y="-12"/>
    </contour>
    <contour>
      <point x="518" y="323" type="curve" smooth="yes"/>
      <point x="461" y="323"/>
      <point x="423" y="352"/>
      <point x="423" y="410" type="curve" smooth="yes"/>
      <point x="423" y="464"/>
      <point x="458" y="501"/>
      <point x="510" y="501" type="curve" smooth="yes"/>
      <point x="559" y="501"/>
      <point x="605" y="476"/>
      <point x="638" y="436" type="curve"/>
      <point x="614" y="370"/>
      <point x="578" y="323"/>
    </contour>
  </outline>
</glyph>
<glyph name="Ekam" format="2">
  <advance width="1067"/>
  <unicode hex="111DA"/>
  <outline>
    <contour>
      <point x="418" y="260" type="line"/>
      <point x="503" y="260" type="line"/>
      <point x="503" y="550" type="line"/>
      <point x="583" y="550" type="line"/>
      <point x="583" y="260" type="line"/>
      <point x="668" y="260" type="line"/>
      <point x="668" y="550" type="line"/>
      <point x="788" y="550" type="line"/>
      <point x="751" y="526"/>
      <point x="729" y="485"/>
      <point x="729" y="436" type="curve" smooth="yes"/>
      <point x="729" y="357"/>
      <point x="789" y="297"/>
      <point x="881" y="297" type="curve" smooth="yes"/>
      <point x="950" y="297"/>
      <point x="1004" y="335"/>
      <point x="1047" y="419" type="curve"/>
      <point x="986" y="453" type="line"/>
      <point x="958" y="401"/>
      <point x="929" y="372"/>
      <point x="883" y="372" type="curve" smooth="yes"/>
      <point x="839" y="372"/>
      <point x="814" y="402"/>
      <point x="814" y="442" type="curve" smooth="yes"/>
      <point x="814" y="489"/>
      <point x="840" y="534"/>
      <point x="912" y="550" type="curve"/>
      <point x="942" y="550" type="line"/>
      <point x="942" y="625" type="line"/>
      <point x="214" y="625" type="line"/>
      <point x="214" y="550" type="line"/>
      <point x="271" y="550" type="line"/>
      <point x="270" y="491"/>
      <point x="253" y="468"/>
      <point x="219" y="468" type="curve" smooth="yes"/>
      <point x="177" y="468"/>
      <point x="125" y="505"/>
      <point x="97" y="588" type="curve"/>
      <point x="20" y="588" type="line"/>
      <point x="69" y="445"/>
      <point x="139" y="394"/>
      <point x="221" y="394" type="curve" smooth="yes"/>
      <point x="304" y="394"/>
      <point x="354" y="448"/>
      <point x="358" y="550" type="curve"/>
      <point x="418" y="550" type="line"/>
    </contour>
  </outline>
</glyph>
<glyph name="SiddhamSign" format="2">
  <advance width="954"/>
  <unicode hex="111DB"/>
  <outline>
    <contour>
      <point x="597" y="-12" type="curve" smooth="yes"/>
      <point x="785" y="-12"/>
      <point x="894" y="125"/>
      <point x="894" y="299" type="curve" smooth="yes"/>
      <point x="894" y="453"/>
      <point x="777" y="576"/>
      <point x="629" y="576" type="curve" smooth="yes"/>
      <point x="520" y="576"/>
      <point x="431" y="504"/>
      <point x="431" y="398" type="curve" smooth="yes"/>
      <point x="431" y="287"/>
      <point x="518" y="236"/>
      <point x="606" y="236" type="curve" smooth="yes"/>
      <point x="662" y="236"/>
      <point x="702" y="257"/>
      <point x="739" y="294" type="curve"/>
      <point x="691" y="347" type="line"/>
      <point x="672" y="325"/>
      <point x="643" y="311"/>
      <point x="603" y="311" type="curve" smooth="yes"/>
      <point x="568" y="311"/>
      <point x="516" y="333"/>
      <point x="516" y="402" type="curve" smooth="yes"/>
      <point x="516" y="457"/>
      <point x="563" y="501"/>
      <point x="629" y="501" type="curve" smooth="yes"/>
      <point x="738" y="501"/>
      <point x="809" y="404"/>
      <point x="809" y="293" type="curve" smooth="yes"/>
      <point x="809" y="176"/>
      <point x="741" y="63"/>
      <point x="595" y="63" type="curve" smooth="yes"/>
      <point x="382" y="63"/>
      <point x="210" y="278"/>
      <point x="90" y="515" type="curve"/>
      <point x="20" y="480" type="line"/>
      <point x="146" y="212"/>
      <point x="345" y="-12"/>
    </contour>
  </outline>
</glyph>
<glyph name="Headstroke" format="2">
  <advance width="315"/>
  <unicode hex="111DC"/>
  <outline>
    <contour>
      <point x="-80" y="550" type="line"/>
      <point x="395" y="550" type="line"/>
      <point x="395" y="625" type="line"/>
      <point x="-80" y="625" type="line"/>
    </contour>
  </outline>
</glyph>
<glyph name="ContinuationSign" format="2">
  <advance width="377"/>
  <unicode hex="111DD"/>
  <outline>
    <contour>
      <point x="339" y="-20" type="curve"/>
      <point x="380" y="36" type="line"/>
      <point x="257" y="121"/>
      <point x="145" y="211"/>
      <point x="145" y="280" type="curve" smooth="yes"/>
      <point x="145" y="306"/>
      <point x="156" y="328"/>
      <point x="169" y="353" type="curve" smooth="yes"/>
      <point x="184" y="383"/>
      <point x="200" y="417"/>
      <point x="200" y="470" type="curve" smooth="yes"/>
      <point x="200" y="520"/>
      <point x="178" y="587"/>
      <point x="154" y="634" type="curve"/>
      <point x="88" y="609" type="line"/>
      <point x="106" y="568"/>
      <point x="120" y="512"/>
      <point x="120" y="470" type="curve" smooth="yes"/>
      <point x="120" y="430"/>
      <point x="105" y="400"/>
      <point x="88" y="371" type="curve" smooth="yes"/>
      <point x="73" y="346"/>
      <point x="60" y="319"/>
      <point x="60" y="283" type="curve" smooth="yes"/>
      <point x="60" y="175"/>
      <point x="220" y="60"/>
    </contour>
  </outline>
</glyph>
<glyph name="SectionMark1" format="2">
  <advance width="636"/>
  <unicode hex="111DE"/>
  <outline>
    <contour>
      <point x="412" y="363" type="curve" smooth="yes"/>
      <point x="466" y="363"/>
      <point x="523" y="393"/>
      <point x="558" y="491" type="curve"/>
      <point x="497" y="523" type="line"/>
      <point x="480" y="483"/>
      <point x="459" y="439"/>
      <point x="412" y="439" type="curve" smooth="yes"/>
      <point x="378" y="439"/>
      <point x="352" y="463"/>
      <point x="327" y="486" type="curve" smooth="yes"/>
      <point x="299" y="512"/>
      <point x="270" y="538"/>
      <point x="221" y="538" type="curve" smooth="yes"/>
      <point x="157" y="538"/>
      <point x="107" y="494"/>
      <point x="77" y="409" type="curve"/>
      <point x="141" y="379" type="line"/>
      <point x="155" y="415"/>
      <point x="180" y="462"/>
      <point x="219" y="462" type="curve" smooth="yes"/>
      <point x="250" y="462"/>
      <point x="276" y="438"/>
      <point x="301" y="415" type="curve" smooth="yes"/>
      <point x="330" y="389"/>
      <point x="366" y="363"/>
    </contour>
    <contour>
      <point x="412" y="143" type="curve" smooth="yes"/>
      <point x="466" y="143"/>
      <point x="523" y="173"/>
      <point x="558" y="271" type="curve"/>
      <point x="497" y="303" type="line"/>
      <point x="480" y="263"/>
      <point x="459" y="219"/>
      <point x="412" y="219" type="curve" smooth="yes"/>
      <point x="378" y="219"/>
      <point x="352" y="243"/>
      <point x="327" y="266" type="curve" smooth="yes"/>
      <point x="299" y="292"/>
      <point x="270" y="318"/>
      <point x="221" y="318" type="curve" smooth="yes"/>
      <point x="157" y="318"/>
      <point x="107" y="274"/>
      <point x="77" y="189" type="curve"/>
      <point x="141" y="159" type="line"/>
      <point x="155" y="195"/>
      <point x="180" y="242"/>
      <point x="219" y="242" type="curve" smooth="yes"/>
      <point x="250" y="242"/>
      <point x="276" y="218"/>
      <point x="301" y="195" type="curve" smooth="yes"/>
      <point x="330" y="169"/>
      <point x="366" y="143"/>
    </contour>
  </outline>
</glyph>
<glyph name="SectionMark2" format="2">
  <advance width="565"/>
  <unicode hex="111DF"/>
  <outline>
    <contour>
      <point x="141" y="316" type="line"/>
      <point x="250" y="412" type="line" smooth="yes"/>
      <point x="272" y="432"/>
      <point x="282" y="441"/>
      <point x="291" y="441" type="curve" smooth="yes"/>
      <point x="297" y="441"/>
      <point x="303" y="436"/>
      <point x="312" y="428" type="curve" smooth="yes"/>
      <point x="433" y="318" type="line"/>
      <point x="485" y="367" type="line"/>
      <point x="319" y="519" type="line" smooth="yes"/>
      <point x="306" y="531"/>
      <point x="294" y="538"/>
      <point x="282" y="538" type="curve" smooth="yes"/>
      <point x="268" y="538"/>
      <point x="253" y="529"/>
      <point x="233" y="511" type="curve" smooth="yes"/>
      <point x="80" y="375" type="line"/>
    </contour>
    <contour>
      <point x="141" y="116" type="line"/>
      <point x="248" y="211" type="line" smooth="yes"/>
      <point x="270" y="231"/>
      <point x="280" y="240"/>
      <point x="289" y="240" type="curve" smooth="yes"/>
      <point x="295" y="240"/>
      <point x="301" y="235"/>
      <point x="310" y="227" type="curve" smooth="yes"/>
      <point x="431" y="117" type="line"/>
      <point x="485" y="167" type="line"/>
      <point x="319" y="319" type="line" smooth="yes"/>
      <point x="306" y="331"/>
      <point x="294" y="338"/>
      <point x="282" y="338" type="curve" smooth="yes"/>
      <point x="268" y="338"/>
      <point x="253" y="329"/>
      <point x="233" y="311" type="curve" smooth="yes"/>
      <point x="80" y="175" type="line"/>
    </contour>
  </outline>
</glyph>
<glyph name="BhRa" format="2">
  <advance width="631"/>
  <outline>
    <contour>
      <point x="388" y="-12" type="curve" smooth="yes"/>
      <point x="520" y="-12"/>
      <point x="601" y="89"/>
      <point x="601" y="199" type="curve" smooth="yes"/>
      <point x="601" y="325"/>
      <point x="501" y="404"/>
      <point x="354" y="404" type="curve" smooth="yes"/>
      <point x="334" y="404"/>
      <point x="307" y="402"/>
      <point x="286" y="399" type="curve"/>
      <point x="286" y="550" type="line"/>
      <point x="586" y="550" type="line"/>
      <point x="586" y="625" type="line"/>
      <point x="24" y="625" type="line"/>
      <point x="24" y="550" type="line"/>
      <point x="201" y="550" type="line"/>
      <point x="201" y="380" type="line"/>
      <point x="149" y="366"/>
      <point x="86" y="323"/>
      <point x="86" y="294" type="curve" smooth="yes"/>
      <point x="86" y="251"/>
      <point x="177" y="198"/>
      <point x="231" y="198" type="curve" smooth="yes"/>
      <point x="276" y="198"/>
      <point x="286" y="239"/>
      <point x="286" y="274" type="curve" smooth="yes"/>
      <point x="286" y="323" type="line"/>
      <point x="308" y="327"/>
      <point x="334" y="329"/>
      <point x="359" y="329" type="curve" smooth="yes"/>
      <point x="445" y="329"/>
      <point x="516" y="291"/>
      <point x="516" y="199" type="curve" smooth="yes"/>
      <point x="516" y="125"/>
      <point x="462" y="63"/>
      <point x="381" y="63" type="curve" smooth="yes"/>
      <point x="319" y="63"/>
      <point x="274" y="82"/>
      <point x="234" y="122" type="curve"/>
      <point x="188" y="67" type="line"/>
      <point x="238" y="14"/>
      <point x="300" y="-12"/>
    </contour>
    <contour>
      <point x="490" y="-235" type="line"/>
      <point x="546" y="-193" type="line"/>
      <point x="513" y="-148" type="line" smooth="yes"/>
      <point x="449" y="-60"/>
      <point x="400" y="4"/>
      <point x="353" y="46" type="curve"/>
      <point x="246" y="21" type="line"/>
      <point x="332" y="-29"/>
      <point x="389" y="-97"/>
      <point x="456" y="-188" type="curve" smooth="yes"/>
    </contour>
  </outline>
</glyph>
<glyph name="Bhu" format="2">
  <advance width="616"/>
  <outline>
    <contour>
      <point x="485" y="-61"/>
      <point x="549" y="-5"/>
      <point x="549" y="72" type="curve" smooth="yes"/>
      <point x="549" y="101"/>
      <point x="540" y="128"/>
      <point x="515" y="147" type="curve"/>
      <point x="564" y="179"/>
      <point x="585" y="228"/>
      <point x="585" y="286" type="curve" smooth="yes"/>
      <point x="585" y="425"/>
      <point x="464" y="464"/>
      <point x="370" y="464" type="curve" smooth="yes"/>
      <point x="338" y="464"/>
      <point x="310" y="462"/>
      <point x="286" y="459" type="curve"/>
      <point x="286" y="550" type="line"/>
      <point x="586" y="550" type="line"/>
      <point x="586" y="625" type="line"/>
      <point x="24" y="625" type="line"/>
      <point x="24" y="550" type="line"/>
      <point x="201" y="550" type="line"/>
      <point x="201" y="440" type="line"/>
      <point x="168" y="431"/>
      <point x="86" y="390"/>
      <point x="86" y="354" type="curve" smooth="yes"/>
      <point x="86" y="311"/>
      <point x="177" y="258"/>
      <point x="231" y="258" type="curve" smooth="yes"/>
      <point x="276" y="258"/>
      <point x="286" y="299"/>
      <point x="286" y="334" type="curve" smooth="yes"/>
      <point x="286" y="383" type="line"/>
      <point x="308" y="387"/>
      <point x="334" y="389"/>
      <point x="359" y="389" type="curve" smooth="yes"/>
      <point x="441" y="389"/>
      <point x="500" y="352"/>
      <point x="500" y="283" type="curve" smooth="yes"/>
      <point x="500" y="227"/>
      <point x="461" y="190"/>
      <point x="390" y="190" type="curve" smooth="yes"/>
      <point x="355" y="190"/>
      <point x="306" y="197"/>
      <point x="256" y="221" type="curve"/>
      <point x="218" y="167" type="line"/>
      <point x="273" y="136"/>
      <point x="333" y="117"/>
      <point x="395" y="117" type="curve" smooth="yes"/>
      <point x="411" y="117"/>
      <point x="424" y="118"/>
      <point x="434" y="119" type="curve"/>
      <point x="459" y="112"/>
      <point x="471" y="94"/>
      <point x="471" y="74" type="curve" smooth="yes"/>
      <point x="471" y="32"/>
      <point x="426" y="11"/>
      <point x="374" y="11" type="curve" smooth="yes"/>
      <point x="323" y="11"/>
      <point x="270" y="23"/>
      <point x="212" y="56" type="curve"/>
      <point x="173" y="0" type="line"/>
      <point x="236" y="-39"/>
      <point x="304" y="-61"/>
      <point x="384" y="-61" type="curve" smooth="yes"/>
    </contour>
  </outline>
</glyph>
<glyph name="Bhuu" format="2">
  <advance width="616"/>
  <outline>
    <contour>
      <point x="374" y="-203" type="curve" smooth="yes"/>
      <point x="475" y="-203"/>
      <point x="539" y="-147"/>
      <point x="539" y="-71" type="curve" smooth="yes"/>
      <point x="539" y="-34"/>
      <point x="526" y="-3"/>
      <point x="503" y="14" type="curve"/>
      <point x="532" y="36"/>
      <point x="549" y="66"/>
      <point x="549" y="102" type="curve" smooth="yes"/>
      <point x="549" y="131"/>
      <point x="540" y="158"/>
      <point x="515" y="177" type="curve"/>
      <point x="560" y="209"/>
      <point x="585" y="254"/>
      <point x="585" y="306" type="curve" smooth="yes"/>
      <point x="585" y="438"/>
      <point x="464" y="474"/>
      <point x="370" y="474" type="curve" smooth="yes"/>
      <point x="338" y="474"/>
      <point x="310" y="472"/>
      <point x="286" y="469" type="curve"/>
      <point x="286" y="550" type="line"/>
      <point x="586" y="550" type="line"/>
      <point x="586" y="625" type="line"/>
      <point x="24" y="625" type="line"/>
      <point x="24" y="550" type="line"/>
      <point x="201" y="550" type="line"/>
      <point x="201" y="450" type="line"/>
      <point x="168" y="441"/>
      <point x="86" y="400"/>
      <point x="86" y="364" type="curve" smooth="yes"/>
      <point x="86" y="321"/>
      <point x="177" y="268"/>
      <point x="231" y="268" type="curve" smooth="yes"/>
      <point x="276" y="268"/>
      <point x="286" y="309"/>
      <point x="286" y="344" type="curve" smooth="yes"/>
      <point x="286" y="393" type="line"/>
      <point x="308" y="397"/>
      <point x="334" y="399"/>
      <point x="359" y="399" type="curve" smooth="yes"/>
      <point x="441" y="399"/>
      <point x="500" y="369"/>
      <point x="500" y="307" type="curve" smooth="yes"/>
      <point x="500" y="257"/>
      <point x="461" y="220"/>
      <point x="390" y="220" type="curve" smooth="yes"/>
      <point x="355" y="220"/>
      <point x="306" y="227"/>
      <point x="256" y="251" type="curve"/>
      <point x="218" y="197" type="line"/>
      <point x="273" y="166"/>
      <point x="333" y="147"/>
      <point x="395" y="147" type="curve" smooth="yes"/>
      <point x="411" y="147"/>
      <point x="424" y="148"/>
      <point x="434" y="149" type="curve"/>
      <point x="459" y="142"/>
      <point x="471" y="124"/>
      <point x="471" y="99" type="curve" smooth="yes"/>
      <point x="471" y="62"/>
      <point x="426" y="41"/>
      <point x="368" y="41" type="curve" smooth="yes"/>
      <point x="327" y="41"/>
      <point x="272" y="52"/>
      <point x="212" y="86" type="curve"/>
      <point x="173" y="30" type="line"/>
      <point x="236" y="-9"/>
      <point x="304" y="-31"/>
      <point x="374" y="-31" type="curve" smooth="yes"/>
      <point x="390" y="-31"/>
      <point x="409" y="-29"/>
      <point x="423" y="-27" type="curve"/>
      <point x="447" y="-31"/>
      <point x="461" y="-49"/>
      <point x="461" y="-72" type="curve" smooth="yes"/>
      <point x="461" y="-110"/>
      <point x="417" y="-131"/>
      <point x="366" y="-131" type="curve" smooth="yes"/>
      <point x="313" y="-131"/>
      <point x="262" y="-120"/>
      <point x="188" y="-77" type="curve"/>
      <point x="152" y="-135" type="line"/>
      <point x="213" y="-178"/>
      <point x="297" y="-203"/>
    </contour>
  </outline>
</glyph>
<glyph name="DDha" format="2">
  <advance width="613"/>
  <outline>
    <contour>
      <point x="585" y="-233" type="curve"/>
      <point x="587" y="-234" type="line"/>
      <point x="644" y="-193" type="line"/>
      <point x="571" y="-65"/>
      <point x="507" y="29"/>
      <point x="439" y="90" type="curve"/>
      <point x="485" y="163"/>
      <point x="546" y="318"/>
      <point x="569" y="420" type="curve"/>
      <point x="505" y="433" type="line"/>
      <point x="471" y="327"/>
      <point x="428" y="213"/>
      <point x="382" y="131" type="curve"/>
      <point x="332" y="162"/>
      <point x="279" y="178"/>
      <point x="223" y="178" type="curve" smooth="yes"/>
      <point x="138" y="178"/>
      <point x="78" y="126"/>
      <point x="78" y="57" type="curve" smooth="yes"/>
      <point x="78" y="-18"/>
      <point x="137" y="-61"/>
      <point x="222" y="-61" type="curve" smooth="yes"/>
      <point x="290" y="-61"/>
      <point x="348" y="-30"/>
      <point x="399" y="30" type="curve"/>
      <point x="452" y="-22"/>
      <point x="518" y="-113"/>
    </contour>
    <contour>
      <point x="226" y="9" type="curve" smooth="yes"/>
      <point x="188" y="9"/>
      <point x="153" y="19"/>
      <point x="153" y="57" type="curve" smooth="yes"/>
      <point x="153" y="101"/>
      <point x="196" y="108"/>
      <point x="226" y="108" type="curve" smooth="yes"/>
      <point x="265" y="108"/>
      <point x="305" y="95"/>
      <point x="345" y="74" type="curve"/>
      <point x="307" y="29"/>
      <point x="271" y="9"/>
    </contour>
    <contour>
      <point x="241" y="422" type="curve"/>
      <point x="231" y="343" type="line"/>
      <point x="283" y="292"/>
      <point x="348" y="242"/>
      <point x="418" y="242" type="curve" smooth="yes"/>
      <point x="500" y="242"/>
      <point x="533" y="313"/>
      <point x="561" y="420" type="curve"/>
      <point x="505" y="434" type="line"/>
      <point x="481" y="358"/>
      <point x="466" y="317"/>
      <point x="415" y="317" type="curve" smooth="yes"/>
      <point x="365" y="317"/>
      <point x="301" y="371"/>
    </contour>
    <contour>
      <point x="153" y="218" type="curve" smooth="yes"/>
      <point x="250" y="218"/>
      <point x="293" y="315"/>
      <point x="293" y="399" type="curve" smooth="yes"/>
      <point x="293" y="550" type="line"/>
      <point x="549" y="550" type="line"/>
      <point x="549" y="625" type="line"/>
      <point x="64" y="625" type="line"/>
      <point x="64" y="550" type="line"/>
      <point x="208" y="550" type="line"/>
      <point x="208" y="395" type="line" smooth="yes"/>
      <point x="208" y="317"/>
      <point x="182" y="288"/>
      <point x="154" y="288" type="curve" smooth="yes"/>
      <point x="124" y="288"/>
      <point x="109" y="305"/>
      <point x="109" y="330" type="curve" smooth="yes"/>
      <point x="109" y="358"/>
      <point x="130" y="375"/>
      <point x="153" y="375" type="curve" smooth="yes"/>
      <point x="173" y="375"/>
      <point x="197" y="366"/>
      <point x="221" y="353" type="curve"/>
      <point x="223" y="429" type="line"/>
      <point x="198" y="439"/>
      <point x="172" y="445"/>
      <point x="145" y="445" type="curve" smooth="yes"/>
      <point x="90" y="445"/>
      <point x="30" y="405"/>
      <point x="30" y="335" type="curve" smooth="yes"/>
      <point x="30" y="261"/>
      <point x="78" y="218"/>
    </contour>
  </outline>
</glyph>
<glyph name="DRu" format="2">
  <advance width="730"/>
  <outline>
    <contour>
      <point x="301" y="-60" type="curve" smooth="yes"/>
      <point x="360" y="-60"/>
      <point x="398" y="-7"/>
      <point x="455" y="117" type="curve" smooth="yes"/>
      <point x="505" y="221"/>
      <point x="544" y="345"/>
      <point x="560" y="420" type="curve"/>
      <point x="499" y="434" type="line"/>
      <point x="461" y="311"/>
      <point x="421" y="198"/>
      <point x="369" y="98" type="curve"/>
      <point x="363" y="99"/>
      <point x="352" y="99"/>
      <point x="345" y="99" type="curve" smooth="yes"/>
      <point x="283" y="99"/>
      <point x="219" y="73"/>
      <point x="219" y="11" type="curve" smooth="yes"/>
      <point x="219" y="-40"/>
      <point x="257" y="-60"/>
    </contour>
    <contour>
      <point x="235" y="422" type="curve"/>
      <point x="225" y="343" type="line"/>
      <point x="277" y="292"/>
      <point x="342" y="242"/>
      <point x="412" y="242" type="curve" smooth="yes"/>
      <point x="494" y="242"/>
      <point x="527" y="313"/>
      <point x="555" y="420" type="curve"/>
      <point x="499" y="434" type="line"/>
      <point x="475" y="358"/>
      <point x="460" y="317"/>
      <point x="409" y="317" type="curve" smooth="yes"/>
      <point x="359" y="317"/>
      <point x="295" y="372"/>
    </contour>
    <contour>
      <point x="147" y="218" type="curve" smooth="yes"/>
      <point x="244" y="218"/>
      <point x="287" y="315"/>
      <point x="287" y="399" type="curve" smooth="yes"/>
      <point x="287" y="550" type="line"/>
      <point x="543" y="550" type="line"/>
      <point x="543" y="625" type="line"/>
      <point x="58" y="625" type="line"/>
      <point x="58" y="550" type="line"/>
      <point x="202" y="550" type="line"/>
      <point x="202" y="395" type="line" smooth="yes"/>
      <point x="202" y="315"/>
      <point x="176" y="288"/>
      <point x="148" y="288" type="curve" smooth="yes"/>
      <point x="118" y="288"/>
      <point x="103" y="305"/>
      <point x="103" y="330" type="curve" smooth="yes"/>
      <point x="103" y="358"/>
      <point x="124" y="375"/>
      <point x="147" y="375" type="curve" smooth="yes"/>
      <point x="167" y="375"/>
      <point x="191" y="366"/>
      <point x="215" y="353" type="curve"/>
      <point x="217" y="429" type="line"/>
      <point x="192" y="439"/>
      <point x="166" y="445"/>
      <point x="139" y="445" type="curve" smooth="yes"/>
      <point x="84" y="445"/>
      <point x="24" y="405"/>
      <point x="24" y="335" type="curve" smooth="yes"/>
      <point x="24" y="261"/>
      <point x="72" y="218"/>
    </contour>
    <contour>
      <point x="641" y="-234" type="line"/>
      <point x="697" y="-192" type="line"/>
      <point x="683" y="-171" type="line" smooth="yes"/>
      <point x="571" y="-3"/>
      <point x="498" y="85"/>
      <point x="391" y="89" type="curve"/>
      <point x="389" y="11" type="line"/>
      <point x="481" y="7"/>
      <point x="557" y="-106"/>
      <point x="626" y="-211" type="curve" smooth="yes"/>
    </contour>
    <contour>
      <point x="711" y="-92" type="line"/>
      <point x="767" y="-50" type="line"/>
      <point x="752" y="-29" type="line" smooth="yes"/>
      <point x="645" y="121"/>
      <point x="584" y="204"/>
      <point x="468" y="234" type="curve"/>
      <point x="457" y="155" type="line"/>
      <point x="554" y="135"/>
      <point x="614" y="48"/>
      <point x="695" y="-69" type="curve" smooth="yes"/>
    </contour>
  </outline>
</glyph>
<glyph name="DRuu" format="2">
  <advance width="741"/>
  <outline>
    <contour>
      <point x="301" y="-60" type="curve" smooth="yes"/>
      <point x="360" y="-60"/>
      <point x="398" y="-6"/>
      <point x="455" y="117" type="curve" smooth="yes"/>
      <point x="504" y="223"/>
      <point x="545" y="344"/>
      <point x="561" y="419" type="curve"/>
      <point x="499" y="434" type="line"/>
      <point x="461" y="311"/>
      <point x="421" y="198"/>
      <point x="369" y="98" type="curve"/>
      <point x="363" y="99"/>
      <point x="352" y="99"/>
      <point x="345" y="99" type="curve" smooth="yes"/>
      <point x="283" y="99"/>
      <point x="219" y="73"/>
      <point x="219" y="11" type="curve" smooth="yes"/>
      <point x="219" y="-40"/>
      <point x="257" y="-60"/>
    </contour>
    <contour>
      <point x="235" y="422" type="curve"/>
      <point x="225" y="343" type="line"/>
      <point x="277" y="292"/>
      <point x="342" y="242"/>
      <point x="412" y="242" type="curve" smooth="yes"/>
      <point x="494" y="242"/>
      <point x="527" y="313"/>
      <point x="555" y="420" type="curve"/>
      <point x="499" y="434" type="line"/>
      <point x="475" y="358"/>
      <point x="460" y="317"/>
      <point x="409" y="317" type="curve" smooth="yes"/>
      <point x="359" y="317"/>
      <point x="295" y="371"/>
    </contour>
    <contour>
      <point x="147" y="218" type="curve" smooth="yes"/>
      <point x="244" y="218"/>
      <point x="287" y="315"/>
      <point x="287" y="399" type="curve" smooth="yes"/>
      <point x="287" y="550" type="line"/>
      <point x="543" y="550" type="line"/>
      <point x="543" y="625" type="line"/>
      <point x="58" y="625" type="line"/>
      <point x="58" y="550" type="line"/>
      <point x="202" y="550" type="line"/>
      <point x="202" y="395" type="line" smooth="yes"/>
      <point x="202" y="315"/>
      <point x="176" y="288"/>
      <point x="148" y="288" type="curve" smooth="yes"/>
      <point x="118" y="288"/>
      <point x="103" y="305"/>
      <point x="103" y="330" type="curve" smooth="yes"/>
      <point x="103" y="358"/>
      <point x="124" y="375"/>
      <point x="147" y="375" type="curve" smooth="yes"/>
      <point x="167" y="375"/>
      <point x="191" y="366"/>
      <point x="215" y="353" type="curve"/>
      <point x="217" y="429" type="line"/>
      <point x="192" y="439"/>
      <point x="166" y="445"/>
      <point x="139" y="445" type="curve" smooth="yes"/>
      <point x="84" y="445"/>
      <point x="24" y="405"/>
      <point x="24" y="335" type="curve" smooth="yes"/>
      <point x="24" y="261"/>
      <point x="72" y="218"/>
    </contour>
    <contour>
      <point x="641" y="-234" type="line"/>
      <point x="697" y="-192" type="line"/>
      <point x="683" y="-171" type="line" smooth="yes"/>
      <point x="571" y="-3"/>
      <point x="498" y="85"/>
      <point x="391" y="89" type="curve"/>
      <point x="389" y="11" type="line"/>
      <point x="481" y="7"/>
      <point x="557" y="-106"/>
      <point x="626" y="-211" type="curve" smooth="yes"/>
    </contour>
    <contour>
      <point x="639" y="62" type="curve" smooth="yes"/>
      <point x="708" y="62"/>
      <point x="752" y="109"/>
      <point x="771" y="209" type="curve"/>
      <point x="709" y="223" type="line"/>
      <point x="691" y="160"/>
      <point x="679" y="137"/>
      <point x="635" y="137" type="curve" smooth="yes"/>
      <point x="592" y="137"/>
      <point x="551" y="167"/>
      <point x="493" y="245" type="curve"/>
      <point x="467" y="168" type="line"/>
      <point x="517" y="110"/>
      <point x="566" y="62"/>
    </contour>
  </outline>
</glyph>
<glyph name="DYa" format="2">
  <advance width="636"/>
  <outline>
    <contour>
      <point x="241" y="422" type="curve"/>
      <point x="231" y="343" type="line"/>
      <point x="283" y="292"/>
      <point x="348" y="242"/>
      <point x="418" y="242" type="curve" smooth="yes"/>
      <point x="507" y="242"/>
      <point x="546" y="313"/>
      <point x="574" y="420" type="curve"/>
      <point x="518" y="434" type="line"/>
      <point x="498" y="358"/>
      <point x="473" y="317"/>
      <point x="415" y="317" type="curve" smooth="yes"/>
      <point x="365" y="317"/>
      <point x="301" y="372"/>
    </contour>
    <contour>
      <point x="153" y="218" type="curve" smooth="yes"/>
      <point x="250" y="218"/>
      <point x="293" y="315"/>
      <point x="293" y="399" type="curve" smooth="yes"/>
      <point x="293" y="550" type="line"/>
      <point x="570" y="550" type="line"/>
      <point x="570" y="625" type="line"/>
      <point x="64" y="625" type="line"/>
      <point x="64" y="550" type="line"/>
      <point x="208" y="550" type="line"/>
      <point x="208" y="395" type="line" smooth="yes"/>
      <point x="207" y="315"/>
      <point x="182" y="288"/>
      <point x="154" y="288" type="curve" smooth="yes"/>
      <point x="124" y="288"/>
      <point x="109" y="305"/>
      <point x="109" y="330" type="curve" smooth="yes"/>
      <point x="109" y="358"/>
      <point x="130" y="375"/>
      <point x="153" y="375" type="curve" smooth="yes"/>
      <point x="173" y="375"/>
      <point x="197" y="366"/>
      <point x="221" y="353" type="curve"/>
      <point x="223" y="429" type="line"/>
      <point x="198" y="439"/>
      <point x="172" y="445"/>
      <point x="145" y="445" type="curve" smooth="yes"/>
      <point x="90" y="445"/>
      <point x="30" y="405"/>
      <point x="30" y="335" type="curve" smooth="yes"/>
      <point x="30" y="261"/>
      <point x="78" y="218"/>
    </contour>
    <contour>
      <point x="498" y="247" type="line" smooth="yes"/>
      <point x="498" y="194"/>
      <point x="464" y="161"/>
      <point x="403" y="161" type="curve" smooth="yes"/>
      <point x="376" y="161"/>
      <point x="344" y="170"/>
      <point x="318" y="179" type="curve" smooth="yes"/>
      <point x="291" y="188"/>
      <point x="268" y="195"/>
      <point x="238" y="195" type="curve" smooth="yes"/>
      <point x="147" y="195"/>
      <point x="103" y="141"/>
      <point x="103" y="76" type="curve" smooth="yes"/>
      <point x="103" y="-18"/>
      <point x="194" y="-65"/>
      <point x="328" y="-65" type="curve" smooth="yes"/>
      <point x="426" y="-65"/>
      <point x="536" y="-32"/>
      <point x="639" y="45" type="curve"/>
      <point x="600" y="101" type="line"/>
      <point x="509" y="37"/>
      <point x="434" y="6"/>
      <point x="337" y="6" type="curve" smooth="yes"/>
      <point x="259" y="6"/>
      <point x="186" y="24"/>
      <point x="186" y="75" type="curve" smooth="yes"/>
      <point x="186" y="103"/>
      <point x="206" y="127"/>
      <point x="247" y="127" type="curve" smooth="yes"/>
      <point x="266" y="127"/>
      <point x="289" y="120"/>
      <point x="309" y="112" type="curve" smooth="yes"/>
      <point x="332" y="103"/>
      <point x="365" y="93"/>
      <point x="405" y="93" type="curve" smooth="yes"/>
      <point x="516" y="93"/>
      <point x="574" y="167"/>
      <point x="574" y="249" type="curve" smooth="yes"/>
      <point x="574" y="420" type="line"/>
      <point x="498" y="276" type="line"/>
    </contour>
  </outline>
</glyph>
<glyph name="Ddu" format="2">
  <advance width="533"/>
  <outline>
    <contour>
      <point x="319" y="-60" type="curve" smooth="yes"/>
      <point x="420" y="-60"/>
      <point x="484" y="-4"/>
      <point x="484" y="74" type="curve" smooth="yes"/>
      <point x="484" y="104"/>
      <point x="476" y="127"/>
      <point x="458" y="149" type="curve"/>
      <point x="480" y="181"/>
      <point x="498" y="225"/>
      <point x="498" y="281" type="curve" smooth="yes"/>
      <point x="498" y="381"/>
      <point x="426" y="444"/>
      <point x="333" y="444" type="curve" smooth="yes"/>
      <point x="305" y="444"/>
      <point x="286" y="442"/>
      <point x="268" y="434" type="curve"/>
      <point x="281" y="472"/>
      <point x="293" y="523"/>
      <point x="295" y="550" type="curve"/>
      <point x="509" y="550" type="line"/>
      <point x="509" y="625" type="line"/>
      <point x="24" y="625" type="line"/>
      <point x="24" y="550" type="line"/>
      <point x="209" y="550" type="line"/>
      <point x="199" y="491"/>
      <point x="174" y="397"/>
      <point x="129" y="339" type="curve"/>
      <point x="180" y="293" type="line"/>
      <point x="212" y="331"/>
      <point x="254" y="369"/>
      <point x="315" y="369" type="curve" smooth="yes"/>
      <point x="374" y="369"/>
      <point x="413" y="337"/>
      <point x="413" y="271" type="curve" smooth="yes"/>
      <point x="413" y="236"/>
      <point x="406" y="209"/>
      <point x="392" y="185" type="curve"/>
      <point x="379" y="187"/>
      <point x="366" y="189"/>
      <point x="351" y="189" type="curve" smooth="yes"/>
      <point x="300" y="189"/>
      <point x="257" y="167"/>
      <point x="231" y="136" type="curve"/>
      <point x="281" y="90" type="line"/>
      <point x="294" y="103"/>
      <point x="318" y="119"/>
      <point x="351" y="119" type="curve" smooth="yes"/>
      <point x="384" y="119"/>
      <point x="406" y="101"/>
      <point x="406" y="73" type="curve" smooth="yes"/>
      <point x="406" y="32"/>
      <point x="364" y="12"/>
      <point x="311" y="12" type="curve" smooth="yes"/>
      <point x="249" y="12"/>
      <point x="195" y="29"/>
      <point x="149" y="57" type="curve"/>
      <point x="108" y="1" type="line"/>
      <point x="165" y="-38"/>
      <point x="242" y="-60"/>
    </contour>
  </outline>
</glyph>
<glyph name="Dduu" format="2">
  <advance width="533"/>
  <outline>
    <contour>
      <point x="319" y="-207" type="curve" smooth="yes"/>
      <point x="420" y="-207"/>
      <point x="484" y="-151"/>
      <point x="484" y="-75" type="curve" smooth="yes"/>
      <point x="484" y="-38"/>
      <point x="471" y="-7"/>
      <point x="448" y="10" type="curve"/>
      <point x="471" y="32"/>
      <point x="484" y="62"/>
      <point x="484" y="98" type="curve" smooth="yes"/>
      <point x="484" y="126"/>
      <point x="475" y="151"/>
      <point x="460" y="170" type="curve"/>
      <point x="482" y="202"/>
      <point x="498" y="234"/>
      <point x="498" y="281" type="curve" smooth="yes"/>
      <point x="498" y="381"/>
      <point x="426" y="444"/>
      <point x="333" y="444" type="curve" smooth="yes"/>
      <point x="305" y="444"/>
      <point x="286" y="442"/>
      <point x="268" y="434" type="curve"/>
      <point x="281" y="472"/>
      <point x="293" y="522"/>
      <point x="295" y="550" type="curve"/>
      <point x="509" y="550" type="line"/>
      <point x="509" y="625" type="line"/>
      <point x="24" y="625" type="line"/>
      <point x="24" y="550" type="line"/>
      <point x="209" y="550" type="line"/>
      <point x="199" y="491"/>
      <point x="174" y="397"/>
      <point x="129" y="339" type="curve"/>
      <point x="180" y="293" type="line"/>
      <point x="212" y="331"/>
      <point x="254" y="369"/>
      <point x="315" y="369" type="curve" smooth="yes"/>
      <point x="374" y="369"/>
      <point x="413" y="335"/>
      <point x="413" y="279" type="curve" smooth="yes"/>
      <point x="413" y="250"/>
      <point x="408" y="228"/>
      <point x="398" y="209" type="curve"/>
      <point x="385" y="213"/>
      <point x="369" y="215"/>
      <point x="352" y="215" type="curve" smooth="yes"/>
      <point x="304" y="215"/>
      <point x="263" y="191"/>
      <point x="234" y="164" type="curve"/>
      <point x="284" y="118" type="line"/>
      <point x="297" y="131"/>
      <point x="318" y="144"/>
      <point x="351" y="144" type="curve" smooth="yes"/>
      <point x="387" y="144"/>
      <point x="406" y="123"/>
      <point x="406" y="95" type="curve" smooth="yes"/>
      <point x="406" y="58"/>
      <point x="365" y="37"/>
      <point x="313" y="37" type="curve" smooth="yes"/>
      <point x="262" y="37"/>
      <point x="207" y="48"/>
      <point x="147" y="82" type="curve"/>
      <point x="108" y="26" type="line"/>
      <point x="171" y="-13"/>
      <point x="239" y="-35"/>
      <point x="319" y="-35" type="curve" smooth="yes"/>
      <point x="335" y="-35"/>
      <point x="354" y="-33"/>
      <point x="368" y="-31" type="curve"/>
      <point x="392" y="-35"/>
      <point x="406" y="-53"/>
      <point x="406" y="-76" type="curve" smooth="yes"/>
      <point x="406" y="-114"/>
      <point x="362" y="-135"/>
      <point x="311" y="-135" type="curve" smooth="yes"/>
      <point x="258" y="-135"/>
      <point x="207" y="-124"/>
      <point x="133" y="-81" type="curve"/>
      <point x="97" y="-139" type="line"/>
      <point x="158" y="-182"/>
      <point x="242" y="-207"/>
    </contour>
  </outline>
</glyph>
<glyph name="GRa" format="2">
  <advance width="746"/>
  <outline>
    <contour>
      <point x="454" y="-12" type="curve" smooth="yes"/>
      <point x="488" y="-12"/>
      <point x="498" y="29"/>
      <point x="498" y="64" type="curve" smooth="yes"/>
      <point x="498" y="550" type="line"/>
      <point x="561" y="550" type="line"/>
      <point x="561" y="625" type="line"/>
      <point x="24" y="625" type="line"/>
      <point x="24" y="550" type="line"/>
      <point x="148" y="550" type="line"/>
      <point x="148" y="333" type="line"/>
      <point x="106" y="324"/>
      <point x="31" y="307"/>
      <point x="31" y="263" type="curve" smooth="yes"/>
      <point x="31" y="215"/>
      <point x="155" y="128"/>
      <point x="189" y="128" type="curve" smooth="yes"/>
      <point x="223" y="128"/>
      <point x="233" y="169"/>
      <point x="233" y="204" type="curve" smooth="yes"/>
      <point x="233" y="550" type="line"/>
      <point x="413" y="550" type="line"/>
      <point x="413" y="193" type="line"/>
      <point x="371" y="184"/>
      <point x="296" y="167"/>
      <point x="296" y="123" type="curve" smooth="yes"/>
      <point x="296" y="75"/>
      <point x="420" y="-12"/>
    </contour>
    <contour>
      <point x="714" y="-136" type="line"/>
      <point x="770" y="-94" type="line"/>
      <point x="737" y="-49" type="line" smooth="yes"/>
      <point x="617" y="115"/>
      <point x="551" y="192"/>
      <point x="443" y="192" type="curve"/>
      <point x="434" y="112" type="line"/>
      <point x="527" y="112"/>
      <point x="604" y="16"/>
      <point x="680" y="-89" type="curve" smooth="yes"/>
    </contour>
  </outline>
</glyph>
<glyph name="Gu" format="2">
  <advance width="609"/>
  <outline>
    <contour>
      <point x="419" y="-66" type="curve" smooth="yes"/>
      <point x="519" y="-66"/>
      <point x="584" y="-10"/>
      <point x="584" y="68" type="curve" smooth="yes"/>
      <point x="584" y="119"/>
      <point x="557" y="164"/>
      <point x="498" y="179" type="curve"/>
      <point x="498" y="550" type="line"/>
      <point x="561" y="550" type="line"/>
      <point x="561" y="625" type="line"/>
      <point x="24" y="625" type="line"/>
      <point x="24" y="550" type="line"/>
      <point x="148" y="550" type="line"/>
      <point x="148" y="333" type="line"/>
      <point x="106" y="324"/>
      <point x="31" y="307"/>
      <point x="31" y="263" type="curve" smooth="yes"/>
      <point x="31" y="215"/>
      <point x="155" y="128"/>
      <point x="189" y="128" type="curve" smooth="yes"/>
      <point x="223" y="128"/>
      <point x="233" y="169"/>
      <point x="233" y="204" type="curve" smooth="yes"/>
      <point x="233" y="550" type="line"/>
      <point x="413" y="550" type="line"/>
      <point x="413" y="179" type="line"/>
      <point x="380" y="171"/>
      <point x="353" y="154"/>
      <point x="334" y="133" type="curve"/>
      <point x="384" y="87" type="line"/>
      <point x="397" y="100"/>
      <point x="419" y="113"/>
      <point x="451" y="113" type="curve" smooth="yes"/>
      <point x="484" y="113"/>
      <point x="506" y="95"/>
      <point x="506" y="67" type="curve" smooth="yes"/>
      <point x="506" y="26"/>
      <point x="464" y="6"/>
      <point x="411" y="6" type="curve" smooth="yes"/>
      <point x="361" y="6"/>
      <point x="307" y="17"/>
      <point x="247" y="51" type="curve"/>
      <point x="208" y="-5" type="line"/>
      <point x="271" y="-44"/>
      <point x="337" y="-66"/>
    </contour>
  </outline>
</glyph>
<glyph name="Guu" format="2">
  <advance width="609"/>
  <outline>
    <contour>
      <point x="419" y="-207" type="curve" smooth="yes"/>
      <point x="520" y="-207"/>
      <point x="584" y="-151"/>
      <point x="584" y="-75" type="curve" smooth="yes"/>
      <point x="584" y="-38"/>
      <point x="571" y="-7"/>
      <point x="548" y="10" type="curve"/>
      <point x="571" y="32"/>
      <point x="584" y="62"/>
      <point x="584" y="98" type="curve" smooth="yes"/>
      <point x="584" y="151"/>
      <point x="554" y="200"/>
      <point x="498" y="209" type="curve"/>
      <point x="498" y="550" type="line"/>
      <point x="561" y="550" type="line"/>
      <point x="561" y="625" type="line"/>
      <point x="24" y="625" type="line"/>
      <point x="24" y="550" type="line"/>
      <point x="148" y="550" type="line"/>
      <point x="148" y="333" type="line"/>
      <point x="106" y="324"/>
      <point x="31" y="307"/>
      <point x="31" y="263" type="curve" smooth="yes"/>
      <point x="31" y="215"/>
      <point x="155" y="128"/>
      <point x="189" y="128" type="curve" smooth="yes"/>
      <point x="223" y="128"/>
      <point x="233" y="169"/>
      <point x="233" y="204" type="curve" smooth="yes"/>
      <point x="233" y="550" type="line"/>
      <point x="413" y="550" type="line"/>
      <point x="413" y="209" type="line"/>
      <point x="377" y="199"/>
      <point x="353" y="185"/>
      <point x="334" y="164" type="curve"/>
      <point x="384" y="118" type="line"/>
      <point x="397" y="131"/>
      <point x="418" y="144"/>
      <point x="451" y="144" type="curve" smooth="yes"/>
      <point x="487" y="144"/>
      <point x="506" y="123"/>
      <point x="506" y="95" type="curve" smooth="yes"/>
      <point x="506" y="58"/>
      <point x="465" y="37"/>
      <point x="413" y="37" type="curve" smooth="yes"/>
      <point x="362" y="37"/>
      <point x="307" y="48"/>
      <point x="247" y="82" type="curve"/>
      <point x="208" y="26" type="line"/>
      <point x="271" y="-13"/>
      <point x="339" y="-35"/>
      <point x="419" y="-35" type="curve" smooth="yes"/>
      <point x="435" y="-35"/>
      <point x="454" y="-33"/>
      <point x="468" y="-31" type="curve"/>
      <point x="492" y="-35"/>
      <point x="506" y="-53"/>
      <point x="506" y="-76" type="curve" smooth="yes"/>
      <point x="506" y="-114"/>
      <point x="462" y="-135"/>
      <point x="411" y="-135" type="curve" smooth="yes"/>
      <point x="358" y="-135"/>
      <point x="307" y="-124"/>
      <point x="233" y="-81" type="curve"/>
      <point x="197" y="-139" type="line"/>
      <point x="258" y="-182"/>
      <point x="342" y="-207"/>
    </contour>
  </outline>
</glyph>
<glyph name="HYa" format="2">
  <advance width="623"/>
  <outline>
    <contour>
      <point x="171" y="-11" type="curve" smooth="yes"/>
      <point x="228" y="-11"/>
      <point x="298" y="12"/>
      <point x="330" y="99" type="curve"/>
      <point x="265" y="127" type="line"/>
      <point x="243" y="73"/>
      <point x="198" y="64"/>
      <point x="172" y="64" type="curve" smooth="yes"/>
      <point x="136" y="64"/>
      <point x="111" y="85"/>
      <point x="111" y="122" type="curve" smooth="yes"/>
      <point x="111" y="224"/>
      <point x="293" y="305"/>
      <point x="419" y="305" type="curve" smooth="yes"/>
      <point x="483" y="305"/>
      <point x="512" y="276"/>
      <point x="512" y="231" type="curve" smooth="yes"/>
      <point x="512" y="173"/>
      <point x="473" y="144"/>
      <point x="432" y="135" type="curve"/>
      <point x="455" y="68" type="line"/>
      <point x="529" y="80"/>
      <point x="593" y="144"/>
      <point x="593" y="230" type="curve" smooth="yes"/>
      <point x="593" y="327"/>
      <point x="525" y="380"/>
      <point x="419" y="380" type="curve" smooth="yes"/>
      <point x="357" y="380"/>
      <point x="293" y="365"/>
      <point x="240" y="346" type="curve"/>
      <point x="230" y="366"/>
      <point x="226" y="389"/>
      <point x="226" y="418" type="curve" smooth="yes"/>
      <point x="226" y="468"/>
      <point x="256" y="523"/>
      <point x="302" y="550" type="curve"/>
      <point x="565" y="550" type="line"/>
      <point x="565" y="625" type="line"/>
      <point x="94" y="625" type="line"/>
      <point x="94" y="550" type="line"/>
      <point x="211" y="550" type="line"/>
      <point x="164" y="512"/>
      <point x="141" y="460"/>
      <point x="141" y="408" type="curve" smooth="yes"/>
      <point x="141" y="371"/>
      <point x="149" y="338"/>
      <point x="164" y="311" type="curve"/>
      <point x="87" y="267"/>
      <point x="30" y="201"/>
      <point x="30" y="116" type="curve" smooth="yes"/>
      <point x="30" y="42"/>
      <point x="87" y="-11"/>
    </contour>
  </outline>
</glyph>
<glyph name="JJVa" format="2">
  <advance width="648"/>
  <outline>
    <contour>
      <point x="479" y="155" type="line"/>
      <point x="479" y="2" type="line" smooth="yes"/>
      <point x="479" y="-153"/>
      <point x="443" y="-180"/>
      <point x="405" y="-180" type="curve" smooth="yes"/>
      <point x="377" y="-180"/>
      <point x="360" y="-163"/>
      <point x="360" y="-138" type="curve" smooth="yes"/>
      <point x="360" y="-110"/>
      <point x="381" y="-93"/>
      <point x="409" y="-93" type="curve" smooth="yes"/>
      <point x="435" y="-93"/>
      <point x="459" y="-102"/>
      <point x="472" y="-115" type="curve"/>
      <point x="486" y="-46" type="line"/>
      <point x="462" y="-32"/>
      <point x="432" y="-23"/>
      <point x="401" y="-23" type="curve" smooth="yes"/>
      <point x="341" y="-23"/>
      <point x="281" y="-63"/>
      <point x="281" y="-133" type="curve" smooth="yes"/>
      <point x="281" y="-207"/>
      <point x="329" y="-250"/>
      <point x="404" y="-250" type="curve" smooth="yes"/>
      <point x="515" y="-250"/>
      <point x="564" y="-153"/>
      <point x="564" y="6" type="curve" smooth="yes"/>
      <point x="564" y="155" type="line"/>
      <point x="618" y="155" type="line"/>
      <point x="618" y="230" type="line"/>
      <point x="320" y="230" type="line"/>
      <point x="304" y="265"/>
      <point x="275" y="292"/>
      <point x="243" y="318" type="curve" smooth="yes"/>
      <point x="199" y="353"/>
      <point x="159" y="391"/>
      <point x="159" y="456" type="curve" smooth="yes"/>
      <point x="159" y="550" type="line"/>
      <point x="279" y="550" type="line"/>
      <point x="279" y="340" type="line"/>
      <point x="364" y="340" type="line"/>
      <point x="364" y="550" type="line"/>
      <point x="479" y="550" type="line"/>
      <point x="479" y="280" type="line"/>
      <point x="564" y="280" type="line"/>
      <point x="564" y="550" type="line"/>
      <point x="618" y="550" type="line"/>
      <point x="618" y="625" type="line"/>
      <point x="24" y="625" type="line"/>
      <point x="24" y="550" type="line"/>
      <point x="74" y="550" type="line"/>
      <point x="74" y="459" type="line" smooth="yes"/>
      <point x="74" y="354"/>
      <point x="136" y="306"/>
      <point x="188" y="267" type="curve" smooth="yes"/>
      <point x="204" y="255"/>
      <point x="218" y="243"/>
      <point x="230" y="230" type="curve"/>
      <point x="24" y="230" type="line"/>
      <point x="24" y="155" type="line"/>
      <point x="74" y="155" type="line"/>
      <point x="74" y="106" type="line" smooth="yes"/>
      <point x="74" y="27"/>
      <point x="92" y="-24"/>
      <point x="108" y="-66" type="curve" smooth="yes"/>
      <point x="120" y="-98"/>
      <point x="127" y="-124"/>
      <point x="127" y="-153" type="curve" smooth="yes"/>
      <point x="127" y="-172"/>
      <point x="125" y="-201"/>
      <point x="120" y="-225" type="curve"/>
      <point x="199" y="-246" type="line"/>
      <point x="206" y="-213"/>
      <point x="211" y="-171"/>
      <point x="211" y="-145" type="curve" smooth="yes"/>
      <point x="211" y="-100"/>
      <point x="200" y="-71"/>
      <point x="188" y="-39" type="curve" smooth="yes"/>
      <point x="174" y="-2"/>
      <point x="159" y="38"/>
      <point x="159" y="109" type="curve" smooth="yes"/>
      <point x="159" y="155" type="line"/>
      <point x="279" y="155" type="line"/>
      <point x="279" y="0" type="line"/>
      <point x="364" y="0" type="line"/>
      <point x="364" y="155" type="line"/>
    </contour>
  </outline>
</glyph>
<glyph name="JJa" format="2">
  <advance width="648"/>
  <outline>
    <contour>
      <point x="290" y="-249" type="line"/>
      <point x="290" y="-229" type="line" smooth="yes"/>
      <point x="290" y="-158"/>
      <point x="262" y="-124"/>
      <point x="223" y="-76" type="curve" smooth="yes"/>
      <point x="191" y="-36"/>
      <point x="159" y="5"/>
      <point x="159" y="69" type="curve" smooth="yes"/>
      <point x="159" y="155" type="line"/>
      <point x="279" y="155" type="line"/>
      <point x="279" y="-55" type="line"/>
      <point x="364" y="-55" type="line"/>
      <point x="364" y="155" type="line"/>
      <point x="479" y="155" type="line"/>
      <point x="479" y="-115" type="line"/>
      <point x="564" y="-115" type="line"/>
      <point x="564" y="155" type="line"/>
      <point x="618" y="155" type="line"/>
      <point x="618" y="230" type="line"/>
      <point x="320" y="230" type="line"/>
      <point x="304" y="265"/>
      <point x="275" y="292"/>
      <point x="243" y="318" type="curve" smooth="yes"/>
      <point x="199" y="353"/>
      <point x="159" y="391"/>
      <point x="159" y="456" type="curve" smooth="yes"/>
      <point x="159" y="550" type="line"/>
      <point x="279" y="550" type="line"/>
      <point x="279" y="340" type="line"/>
      <point x="364" y="340" type="line"/>
      <point x="364" y="550" type="line"/>
      <point x="479" y="550" type="line"/>
      <point x="479" y="280" type="line"/>
      <point x="564" y="280" type="line"/>
      <point x="564" y="550" type="line"/>
      <point x="618" y="550" type="line"/>
      <point x="618" y="625" type="line"/>
      <point x="24" y="625" type="line"/>
      <point x="24" y="550" type="line"/>
      <point x="74" y="550" type="line"/>
      <point x="74" y="459" type="line" smooth="yes"/>
      <point x="74" y="354"/>
      <point x="136" y="306"/>
      <point x="188" y="267" type="curve" smooth="yes"/>
      <point x="204" y="255"/>
      <point x="218" y="243"/>
      <point x="230" y="230" type="curve"/>
      <point x="24" y="230" type="line"/>
      <point x="24" y="155" type="line"/>
      <point x="74" y="155" type="line"/>
      <point x="74" y="71" type="line" smooth="yes"/>
      <point x="74" y="-20"/>
      <point x="111" y="-63"/>
      <point x="146" y="-104" type="curve" smooth="yes"/>
      <point x="176" y="-139"/>
      <point x="205" y="-173"/>
      <point x="205" y="-237" type="curve"/>
    </contour>
  </outline>
</glyph>
<glyph name="JJaa" format="2">
  <advance width="632"/>
  <outline>
    <contour>
      <point x="456" y="21" type="curve" smooth="yes"/>
      <point x="527" y="21"/>
      <point x="589" y="70"/>
      <point x="589" y="158" type="curve" smooth="yes"/>
      <point x="589" y="230" type="line"/>
      <point x="320" y="230" type="line"/>
      <point x="304" y="265"/>
      <point x="275" y="292"/>
      <point x="243" y="318" type="curve" smooth="yes"/>
      <point x="199" y="353"/>
      <point x="159" y="391"/>
      <point x="159" y="456" type="curve" smooth="yes"/>
      <point x="159" y="550" type="line"/>
      <point x="320" y="550" type="line"/>
      <point x="320" y="544" type="line" smooth="yes"/>
      <point x="320" y="465"/>
      <point x="380" y="416"/>
      <point x="455" y="416" type="curve" smooth="yes"/>
      <point x="526" y="416"/>
      <point x="588" y="465"/>
      <point x="588" y="553" type="curve" smooth="yes"/>
      <point x="588" y="625" type="line"/>
      <point x="24" y="625" type="line"/>
      <point x="24" y="550" type="line"/>
      <point x="74" y="550" type="line"/>
      <point x="74" y="459" type="line" smooth="yes"/>
      <point x="74" y="354"/>
      <point x="136" y="306"/>
      <point x="188" y="267" type="curve" smooth="yes"/>
      <point x="204" y="255"/>
      <point x="218" y="243"/>
      <point x="230" y="230" type="curve"/>
      <point x="24" y="230" type="line"/>
      <point x="24" y="155" type="line"/>
      <point x="321" y="155" type="line"/>
      <point x="321" y="149" type="line" smooth="yes"/>
      <point x="321" y="70"/>
      <point x="381" y="21"/>
    </contour>
    <contour>
      <point x="95" y="-113" type="curve" smooth="yes"/>
      <point x="170" y="-113"/>
      <point x="209" y="-43"/>
      <point x="209" y="41" type="curve" smooth="yes"/>
      <point x="209" y="175" type="line"/>
      <point x="124" y="175" type="line"/>
      <point x="124" y="24" type="line"/>
      <point x="60" y="22"/>
      <point x="26" y="-9"/>
      <point x="26" y="-50" type="curve" smooth="yes"/>
      <point x="26" y="-91"/>
      <point x="57" y="-113"/>
    </contour>
    <contour>
      <point x="563" y="-243" type="line"/>
      <point x="608" y="-190" type="line"/>
      <point x="589" y="-176" type="line" smooth="yes"/>
      <point x="416" y="-50"/>
      <point x="279" y="23"/>
      <point x="128" y="23" type="curve"/>
      <point x="126" y="-55" type="line"/>
      <point x="265" y="-55"/>
      <point x="423" y="-141"/>
      <point x="542" y="-228" type="curve" smooth="yes"/>
    </contour>
    <contour>
      <point x="458" y="86" type="curve" smooth="yes"/>
      <point x="422" y="86"/>
      <point x="393" y="109"/>
      <point x="393" y="149" type="curve" smooth="yes"/>
      <point x="393" y="155" type="line"/>
      <point x="517" y="155" type="line"/>
      <point x="517" y="149" type="line" smooth="yes"/>
      <point x="517" y="109"/>
      <point x="491" y="86"/>
    </contour>
    <contour>
      <point x="457" y="481" type="curve" smooth="yes"/>
      <point x="421" y="481"/>
      <point x="392" y="504"/>
      <point x="392" y="544" type="curve" smooth="yes"/>
      <point x="392" y="550" type="line"/>
      <point x="516" y="550" type="line"/>
      <point x="516" y="544" type="line" smooth="yes"/>
      <point x="516" y="504"/>
      <point x="490" y="481"/>
    </contour>
  </outline>
</glyph>
<glyph name="JNna" format="2">
  <advance width="662"/>
  <outline>
    <contour>
      <point x="343" y="182" type="curve"/>
      <point x="337" y="238"/>
      <point x="306" y="280"/>
      <point x="257" y="319" type="curve" smooth="yes"/>
      <point x="211" y="355"/>
      <point x="173" y="391"/>
      <point x="173" y="466" type="curve" smooth="yes"/>
      <point x="173" y="550" type="line"/>
      <point x="293" y="550" type="line"/>
      <point x="293" y="350" type="line"/>
      <point x="378" y="350" type="line"/>
      <point x="378" y="550" type="line"/>
      <point x="493" y="550" type="line"/>
      <point x="493" y="290" type="line"/>
      <point x="578" y="290" type="line"/>
      <point x="578" y="550" type="line"/>
      <point x="632" y="550" type="line"/>
      <point x="632" y="625" type="line"/>
      <point x="38" y="625" type="line"/>
      <point x="38" y="550" type="line"/>
      <point x="88" y="550" type="line"/>
      <point x="88" y="459" type="line" smooth="yes"/>
      <point x="88" y="363"/>
      <point x="146" y="308"/>
      <point x="202" y="267" type="curve" smooth="yes"/>
      <point x="220" y="254"/>
      <point x="243" y="234"/>
      <point x="255" y="217" type="curve"/>
      <point x="235" y="227"/>
      <point x="214" y="234"/>
      <point x="182" y="234" type="curve" smooth="yes"/>
      <point x="71" y="234"/>
      <point x="30" y="162"/>
      <point x="30" y="85" type="curve" smooth="yes"/>
      <point x="30" y="-35" type="line"/>
      <point x="115" y="-35" type="line"/>
      <point x="115" y="82" type="line" smooth="yes"/>
      <point x="115" y="142"/>
      <point x="155" y="161"/>
      <point x="194" y="161" type="curve" smooth="yes"/>
      <point x="265" y="161"/>
      <point x="280" y="105"/>
      <point x="280" y="49" type="curve" smooth="yes"/>
      <point x="280" y="-35" type="line"/>
      <point x="365" y="-35" type="line"/>
      <point x="365" y="49" type="line" smooth="yes"/>
      <point x="365" y="105"/>
      <point x="388" y="161"/>
      <point x="453" y="161" type="curve" smooth="yes"/>
      <point x="492" y="161"/>
      <point x="532" y="142"/>
      <point x="532" y="82" type="curve" smooth="yes"/>
      <point x="532" y="-35" type="line"/>
      <point x="617" y="-35" type="line"/>
      <point x="617" y="85" type="line" smooth="yes"/>
      <point x="617" y="162"/>
      <point x="576" y="234"/>
      <point x="464" y="234" type="curve" smooth="yes"/>
      <point x="405" y="234"/>
      <point x="363" y="206"/>
    </contour>
  </outline>
</glyph>
<glyph name="JNnaa" format="2">
  <advance width="668"/>
  <outline>
    <contour>
      <point x="30" y="-35" type="line"/>
      <point x="115" y="-35" type="line"/>
      <point x="115" y="82" type="line" smooth="yes"/>
      <point x="115" y="142"/>
      <point x="155" y="161"/>
      <point x="194" y="161" type="curve" smooth="yes"/>
      <point x="265" y="161"/>
      <point x="280" y="105"/>
      <point x="280" y="49" type="curve" smooth="yes"/>
      <point x="280" y="-35" type="line"/>
      <point x="365" y="-35" type="line"/>
      <point x="365" y="49" type="line" smooth="yes"/>
      <point x="365" y="105"/>
      <point x="388" y="161"/>
      <point x="453" y="161" type="curve" smooth="yes"/>
      <point x="492" y="161"/>
      <point x="532" y="142"/>
      <point x="532" y="82" type="curve" smooth="yes"/>
      <point x="532" y="-35" type="line"/>
      <point x="617" y="-35" type="line"/>
      <point x="617" y="85" type="line" smooth="yes"/>
      <point x="617" y="162"/>
      <point x="576" y="234"/>
      <point x="464" y="234" type="curve" smooth="yes"/>
      <point x="405" y="234"/>
      <point x="363" y="206"/>
      <point x="343" y="182" type="curve"/>
      <point x="337" y="238"/>
      <point x="306" y="280"/>
      <point x="257" y="319" type="curve" smooth="yes"/>
      <point x="211" y="355"/>
      <point x="173" y="391"/>
      <point x="173" y="466" type="curve" smooth="yes"/>
      <point x="173" y="550" type="line"/>
      <point x="349" y="550" type="line"/>
      <point x="349" y="544" type="line" smooth="yes"/>
      <point x="349" y="465"/>
      <point x="409" y="416"/>
      <point x="484" y="416" type="curve" smooth="yes"/>
      <point x="555" y="416"/>
      <point x="617" y="465"/>
      <point x="617" y="553" type="curve" smooth="yes"/>
      <point x="617" y="625" type="line"/>
      <point x="38" y="625" type="line"/>
      <point x="38" y="550" type="line"/>
      <point x="88" y="550" type="line"/>
      <point x="88" y="459" type="line" smooth="yes"/>
      <point x="88" y="363"/>
      <point x="146" y="308"/>
      <point x="202" y="267" type="curve" smooth="yes"/>
      <point x="218" y="255"/>
      <point x="243" y="234"/>
      <point x="255" y="217" type="curve"/>
      <point x="235" y="227"/>
      <point x="214" y="234"/>
      <point x="182" y="234" type="curve" smooth="yes"/>
      <point x="71" y="234"/>
      <point x="30" y="162"/>
      <point x="30" y="85" type="curve" smooth="yes"/>
    </contour>
    <contour>
      <point x="486" y="481" type="curve" smooth="yes"/>
      <point x="450" y="481"/>
      <point x="421" y="504"/>
      <point x="421" y="544" type="curve" smooth="yes"/>
      <point x="421" y="550" type="line"/>
      <point x="545" y="550" type="line"/>
      <point x="545" y="544" type="line" smooth="yes"/>
      <point x="545" y="504"/>
      <point x="519" y="481"/>
    </contour>
  </outline>
</glyph>
<glyph name="JNya" format="2">
  <advance width="648"/>
  <outline>
    <contour>
      <point x="447" y="-250" type="line"/>
      <point x="537" y="-228"/>
      <point x="612" y="-171"/>
      <point x="612" y="-78" type="curve" smooth="yes"/>
      <point x="612" y="15"/>
      <point x="539" y="77"/>
      <point x="433" y="85" type="curve"/>
      <point x="433" y="155" type="line"/>
      <point x="618" y="155" type="line"/>
      <point x="618" y="230" type="line"/>
      <point x="320" y="230" type="line"/>
      <point x="303" y="267"/>
      <point x="272" y="294"/>
      <point x="241" y="320" type="curve" smooth="yes"/>
      <point x="199" y="356"/>
      <point x="159" y="392"/>
      <point x="159" y="456" type="curve" smooth="yes"/>
      <point x="159" y="550" type="line"/>
      <point x="279" y="550" type="line"/>
      <point x="279" y="340" type="line"/>
      <point x="364" y="340" type="line"/>
      <point x="364" y="550" type="line"/>
      <point x="479" y="550" type="line"/>
      <point x="479" y="280" type="line"/>
      <point x="564" y="280" type="line"/>
      <point x="564" y="550" type="line"/>
      <point x="618" y="550" type="line"/>
      <point x="618" y="625" type="line"/>
      <point x="24" y="625" type="line"/>
      <point x="24" y="550" type="line"/>
      <point x="74" y="550" type="line"/>
      <point x="74" y="459" type="line" smooth="yes"/>
      <point x="74" y="353"/>
      <point x="136" y="305"/>
      <point x="188" y="266" type="curve" smooth="yes"/>
      <point x="204" y="254"/>
      <point x="220" y="242"/>
      <point x="232" y="230" type="curve"/>
      <point x="54" y="230" type="line"/>
      <point x="54" y="155" type="line"/>
      <point x="114" y="155" type="line"/>
      <point x="114" y="-240" type="line"/>
      <point x="199" y="-240" type="line"/>
      <point x="199" y="155" type="line"/>
      <point x="348" y="155" type="line"/>
      <point x="348" y="78" type="line"/>
      <point x="306" y="69"/>
      <point x="251" y="44"/>
      <point x="251" y="8" type="curve" smooth="yes"/>
      <point x="251" y="-40"/>
      <point x="355" y="-107"/>
      <point x="389" y="-107" type="curve" smooth="yes"/>
      <point x="423" y="-107"/>
      <point x="433" y="-66"/>
      <point x="433" y="-31" type="curve" smooth="yes"/>
      <point x="433" y="15" type="line"/>
      <point x="487" y="9"/>
      <point x="530" y="-18"/>
      <point x="530" y="-77" type="curve" smooth="yes"/>
      <point x="530" y="-129"/>
      <point x="495" y="-160"/>
      <point x="418" y="-190" type="curve"/>
    </contour>
  </outline>
</glyph>
<glyph name="JYa" format="2">
  <advance width="659"/>
  <outline>
    <contour>
      <point x="302" y="-65" type="curve" smooth="yes"/>
      <point x="400" y="-65"/>
      <point x="510" y="-32"/>
      <point x="613" y="45" type="curve"/>
      <point x="574" y="101" type="line"/>
      <point x="483" y="37"/>
      <point x="408" y="6"/>
      <point x="311" y="6" type="curve" smooth="yes"/>
      <point x="233" y="6"/>
      <point x="160" y="24"/>
      <point x="160" y="75" type="curve" smooth="yes"/>
      <point x="160" y="103"/>
      <point x="180" y="128"/>
      <point x="220" y="128" type="curve" smooth="yes"/>
      <point x="249" y="128"/>
      <point x="276" y="118"/>
      <point x="294" y="104" type="curve"/>
      <point x="324" y="165" type="line"/>
      <point x="308" y="178"/>
      <point x="280" y="196"/>
      <point x="253" y="212" type="curve" smooth="yes"/>
      <point x="191" y="249"/>
      <point x="159" y="309"/>
      <point x="159" y="414" type="curve" smooth="yes"/>
      <point x="159" y="550" type="line"/>
      <point x="289" y="550" type="line"/>
      <point x="289" y="290" type="line"/>
      <point x="374" y="290" type="line"/>
      <point x="374" y="550" type="line"/>
      <point x="494" y="550" type="line"/>
      <point x="494" y="230" type="line"/>
      <point x="579" y="230" type="line"/>
      <point x="579" y="550" type="line"/>
      <point x="629" y="550" type="line"/>
      <point x="629" y="625" type="line"/>
      <point x="24" y="625" type="line"/>
      <point x="24" y="550" type="line"/>
      <point x="74" y="550" type="line"/>
      <point x="74" y="411" type="line" smooth="yes"/>
      <point x="74" y="282"/>
      <point x="120" y="228"/>
      <point x="172" y="190" type="curve"/>
      <point x="109" y="177"/>
      <point x="77" y="130"/>
      <point x="77" y="74" type="curve" smooth="yes"/>
      <point x="77" y="-18"/>
      <point x="168" y="-65"/>
    </contour>
  </outline>
</glyph>
<glyph name="JYaa" format="2">
  <advance width="609"/>
  <outline>
    <contour>
      <point x="448" y="481" type="curve" smooth="yes"/>
      <point x="412" y="481"/>
      <point x="383" y="504"/>
      <point x="383" y="544" type="curve" smooth="yes"/>
      <point x="383" y="550" type="line"/>
      <point x="507" y="550" type="line"/>
      <point x="507" y="544" type="line" smooth="yes"/>
      <point x="507" y="504"/>
      <point x="481" y="481"/>
    </contour>
    <contour>
      <point x="74" y="550" type="line"/>
      <point x="74" y="411" type="line" smooth="yes"/>
      <point x="74" y="281"/>
      <point x="120" y="226"/>
      <point x="172" y="188" type="curve"/>
      <point x="106" y="177"/>
      <point x="77" y="129"/>
      <point x="77" y="74" type="curve" smooth="yes"/>
      <point x="77" y="-18"/>
      <point x="168" y="-65"/>
      <point x="302" y="-65" type="curve" smooth="yes"/>
      <point x="400" y="-65"/>
      <point x="510" y="-32"/>
      <point x="613" y="45" type="curve"/>
      <point x="574" y="101" type="line"/>
      <point x="483" y="37"/>
      <point x="408" y="6"/>
      <point x="311" y="6" type="curve" smooth="yes"/>
      <point x="233" y="6"/>
      <point x="160" y="24"/>
      <point x="160" y="75" type="curve" smooth="yes"/>
      <point x="160" y="103"/>
      <point x="180" y="128"/>
      <point x="221" y="128" type="curve" smooth="yes"/>
      <point x="250" y="128"/>
      <point x="277" y="119"/>
      <point x="295" y="106" type="curve"/>
      <point x="326" y="169" type="line"/>
      <point x="310" y="182"/>
      <point x="282" y="200"/>
      <point x="255" y="216" type="curve" smooth="yes"/>
      <point x="193" y="253"/>
      <point x="159" y="311"/>
      <point x="159" y="414" type="curve" smooth="yes"/>
      <point x="159" y="550" type="line"/>
      <point x="311" y="550" type="line"/>
      <point x="311" y="544" type="line" smooth="yes"/>
      <point x="311" y="465"/>
      <point x="371" y="416"/>
      <point x="446" y="416" type="curve" smooth="yes"/>
      <point x="517" y="416"/>
      <point x="579" y="465"/>
      <point x="579" y="553" type="curve" smooth="yes"/>
      <point x="579" y="625" type="line"/>
      <point x="23" y="625" type="line"/>
      <point x="23" y="550" type="line"/>
    </contour>
  </outline>
</glyph>
<glyph name="Jaa" format="2">
  <advance width="591"/>
  <outline>
    <contour>
      <point x="301" y="-20" type="line"/>
      <point x="320" y="2"/>
      <point x="331" y="38"/>
      <point x="331" y="72" type="curve" smooth="yes"/>
      <point x="331" y="150"/>
      <point x="296" y="193"/>
      <point x="235" y="240" type="curve" smooth="yes"/>
      <point x="185" y="278"/>
      <point x="159" y="298"/>
      <point x="159" y="362" type="curve" smooth="yes"/>
      <point x="159" y="550" type="line"/>
      <point x="293" y="550" type="line"/>
      <point x="293" y="544" type="line" smooth="yes"/>
      <point x="293" y="465"/>
      <point x="353" y="416"/>
      <point x="428" y="416" type="curve" smooth="yes"/>
      <point x="499" y="416"/>
      <point x="561" y="465"/>
      <point x="561" y="553" type="curve" smooth="yes"/>
      <point x="561" y="625" type="line"/>
      <point x="24" y="625" type="line"/>
      <point x="24" y="550" type="line"/>
      <point x="74" y="550" type="line"/>
      <point x="74" y="362" type="line" smooth="yes"/>
      <point x="74" y="260"/>
      <point x="120" y="223"/>
      <point x="170" y="184" type="curve" smooth="yes"/>
      <point x="216" y="148"/>
      <point x="246" y="123"/>
      <point x="246" y="73" type="curve" smooth="yes"/>
      <point x="246" y="52"/>
      <point x="241" y="37"/>
      <point x="233" y="26" type="curve"/>
    </contour>
    <contour>
      <point x="430" y="481" type="curve" smooth="yes"/>
      <point x="394" y="481"/>
      <point x="365" y="504"/>
      <point x="365" y="544" type="curve" smooth="yes"/>
      <point x="365" y="550" type="line"/>
      <point x="489" y="550" type="line"/>
      <point x="489" y="544" type="line" smooth="yes"/>
      <point x="489" y="504"/>
      <point x="463" y="481"/>
    </contour>
  </outline>
</glyph>
<glyph name="Jhu" format="2">
  <advance width="755"/>
  <outline>
    <contour>
      <point x="469" y="-63" type="curve" smooth="yes"/>
      <point x="572" y="-63"/>
      <point x="634" y="-4"/>
      <point x="634" y="71" type="curve" smooth="yes"/>
      <point x="634" y="101"/>
      <point x="626" y="127"/>
      <point x="606" y="148" type="curve"/>
      <point x="642" y="174"/>
      <point x="668" y="217"/>
      <point x="668" y="284" type="curve" smooth="yes"/>
      <point x="668" y="550" type="line"/>
      <point x="731" y="550" type="line"/>
      <point x="731" y="625" type="line"/>
      <point x="24" y="625" type="line"/>
      <point x="24" y="550" type="line"/>
      <point x="148" y="550" type="line"/>
      <point x="148" y="333" type="line"/>
      <point x="106" y="324"/>
      <point x="31" y="307"/>
      <point x="31" y="263" type="curve" smooth="yes"/>
      <point x="31" y="215"/>
      <point x="155" y="128"/>
      <point x="189" y="128" type="curve" smooth="yes"/>
      <point x="223" y="128"/>
      <point x="233" y="169"/>
      <point x="233" y="204" type="curve" smooth="yes"/>
      <point x="233" y="550" type="line"/>
      <point x="338" y="550" type="line"/>
      <point x="338" y="284" type="line" smooth="yes"/>
      <point x="338" y="185"/>
      <point x="413" y="118"/>
      <point x="500" y="118" type="curve" smooth="yes"/>
      <point x="535" y="118"/>
      <point x="556" y="98"/>
      <point x="556" y="70" type="curve" smooth="yes"/>
      <point x="556" y="34"/>
      <point x="521" y="9"/>
      <point x="467" y="9" type="curve" smooth="yes"/>
      <point x="411" y="9"/>
      <point x="357" y="20"/>
      <point x="297" y="54" type="curve"/>
      <point x="258" y="-2" type="line"/>
      <point x="321" y="-41"/>
      <point x="387" y="-63"/>
    </contour>
    <contour>
      <point x="502" y="193" type="curve" smooth="yes"/>
      <point x="479" y="193"/>
      <point x="423" y="203"/>
      <point x="423" y="286" type="curve" smooth="yes"/>
      <point x="423" y="550" type="line"/>
      <point x="583" y="550" type="line"/>
      <point x="583" y="286" type="line" smooth="yes"/>
      <point x="583" y="204"/>
      <point x="523" y="193"/>
    </contour>
  </outline>
</glyph>
<glyph name="Jhuu" format="2">
  <advance width="755"/>
  <outline>
    <contour>
      <point x="459" y="-207" type="curve" smooth="yes"/>
      <point x="560" y="-207"/>
      <point x="624" y="-151"/>
      <point x="624" y="-75" type="curve" smooth="yes"/>
      <point x="624" y="-41"/>
      <point x="613" y="-11"/>
      <point x="594" y="5" type="curve"/>
      <point x="621" y="28"/>
      <point x="636" y="57"/>
      <point x="636" y="98" type="curve" smooth="yes"/>
      <point x="636" y="128"/>
      <point x="626" y="157"/>
      <point x="606" y="178" type="curve"/>
      <point x="642" y="204"/>
      <point x="668" y="247"/>
      <point x="668" y="314" type="curve" smooth="yes"/>
      <point x="668" y="550" type="line"/>
      <point x="731" y="550" type="line"/>
      <point x="731" y="625" type="line"/>
      <point x="24" y="625" type="line"/>
      <point x="24" y="550" type="line"/>
      <point x="148" y="550" type="line"/>
      <point x="148" y="333" type="line"/>
      <point x="106" y="324"/>
      <point x="31" y="307"/>
      <point x="31" y="263" type="curve" smooth="yes"/>
      <point x="31" y="215"/>
      <point x="155" y="128"/>
      <point x="189" y="128" type="curve" smooth="yes"/>
      <point x="223" y="128"/>
      <point x="233" y="169"/>
      <point x="233" y="204" type="curve" smooth="yes"/>
      <point x="233" y="550" type="line"/>
      <point x="338" y="550" type="line"/>
      <point x="338" y="314" type="line" smooth="yes"/>
      <point x="338" y="215"/>
      <point x="413" y="148"/>
      <point x="500" y="148" type="curve" smooth="yes"/>
      <point x="538" y="148"/>
      <point x="558" y="125"/>
      <point x="558" y="100" type="curve" smooth="yes"/>
      <point x="558" y="57"/>
      <point x="516" y="37"/>
      <point x="465" y="37" type="curve" smooth="yes"/>
      <point x="414" y="37"/>
      <point x="359" y="48"/>
      <point x="299" y="82" type="curve"/>
      <point x="260" y="26" type="line"/>
      <point x="323" y="-13"/>
      <point x="391" y="-35"/>
      <point x="471" y="-35" type="curve" smooth="yes"/>
      <point x="485" y="-35"/>
      <point x="499" y="-34"/>
      <point x="513" y="-32" type="curve"/>
      <point x="533" y="-37"/>
      <point x="546" y="-54"/>
      <point x="546" y="-76" type="curve" smooth="yes"/>
      <point x="546" y="-114"/>
      <point x="502" y="-135"/>
      <point x="451" y="-135" type="curve" smooth="yes"/>
      <point x="398" y="-135"/>
      <point x="347" y="-124"/>
      <point x="273" y="-81" type="curve"/>
      <point x="237" y="-139" type="line"/>
      <point x="298" y="-182"/>
      <point x="382" y="-207"/>
    </contour>
    <contour>
      <point x="502" y="223" type="curve" smooth="yes"/>
      <point x="479" y="223"/>
      <point x="423" y="233"/>
      <point x="423" y="316" type="curve" smooth="yes"/>
      <point x="423" y="550" type="line"/>
      <point x="583" y="550" type="line"/>
      <point x="583" y="316" type="line" smooth="yes"/>
      <point x="583" y="234"/>
      <point x="523" y="223"/>
    </contour>
  </outline>
</glyph>
